<svg xmlns="http://www.w3.org/2000/svg" width="25" height="25" viewBox="0 0 25 25">
  <g id="Group_13702" data-name="Group 13702" transform="translate(-214 -768)">
    <g id="Path_17447" data-name="Path 17447" transform="translate(214 768)" fill="none">
      <path d="M5,0H20a5,5,0,0,1,5,5V20a5,5,0,0,1-5,5H5a5,5,0,0,1-5-5V5A5,5,0,0,1,5,0Z" stroke="none"/>
      <path d="M 5.000003814697266 1.499998092651367 C 3.070093154907227 1.499998092651367 1.500003814697266 3.070089340209961 1.500003814697266 4.999998092651367 L 1.500003814697266 20 C 1.500003814697266 21.92990875244141 3.070093154907227 23.5 5.000003814697266 23.5 L 20.00000381469727 23.5 C 21.9299144744873 23.5 23.50000381469727 21.92990875244141 23.50000381469727 20 L 23.50000381469727 4.999998092651367 C 23.50000381469727 3.070089340209961 21.9299144744873 1.499998092651367 20.00000381469727 1.499998092651367 L 5.000003814697266 1.499998092651367 M 5.000003814697266 -1.9073486328125e-06 L 20.00000381469727 -1.9073486328125e-06 C 22.76142311096191 -1.9073486328125e-06 25.00000381469727 2.238578796386719 25.00000381469727 4.999998092651367 L 25.00000381469727 20 C 25.00000381469727 22.76141929626465 22.76142311096191 25 20.00000381469727 25 L 5.000003814697266 25 C 2.23857307434082 25 3.814697265625e-06 22.76141929626465 3.814697265625e-06 20 L 3.814697265625e-06 4.999998092651367 C 3.814697265625e-06 2.238578796386719 2.23857307434082 -1.9073486328125e-06 5.000003814697266 -1.9073486328125e-06 Z" stroke="none" fill="#f27043"/>
    </g>
    <g id="Path_17446" data-name="Path 17446" transform="translate(218.595 771.88)" fill="none">
      <path d="M1.317,0H14.492a1.242,1.242,0,0,1,1.317,1.149v4.6a1.242,1.242,0,0,1-1.317,1.149H1.317A1.242,1.242,0,0,1,0,5.744v-4.6A1.242,1.242,0,0,1,1.317,0Z" stroke="none"/>
      <path d="M 1.499999046325684 1.500003337860107 L 1.499999046325684 5.393221855163574 L 14.30903911590576 5.393124580383301 L 14.30903911590576 1.500003337860107 L 1.499999046325684 1.500003337860107 M 1.317419052124023 3.337860107421875e-06 L 14.49161911010742 3.337860107421875e-06 C 15.21920871734619 3.337860107421875e-06 15.80903911590576 0.5143632888793945 15.80903911590576 1.148873329162598 L 15.80903911590576 5.744353294372559 C 15.80903911590576 6.378863334655762 15.21920871734619 6.893223285675049 14.49161911010742 6.893223285675049 L 1.317419052124023 6.893223285675049 C 0.5898294448852539 6.893223285675049 -9.5367431640625e-07 6.378863334655762 -9.5367431640625e-07 5.744353294372559 L -9.5367431640625e-07 1.148873329162598 C -9.5367431640625e-07 0.5143632888793945 0.5898294448852539 3.337860107421875e-06 1.317419052124023 3.337860107421875e-06 Z" stroke="none" fill="#f27043"/>
    </g>
    <path id="Path_17445" data-name="Path 17445" d="M0,0H14.66" transform="translate(219.17 783)" fill="none" stroke="#f27043" stroke-linecap="round" stroke-width="1.5"/>
    <path id="Path_17444" data-name="Path 17444" d="M0,0H14.66" transform="translate(219.17 786.75)" fill="none" stroke="#f27043" stroke-linecap="round" stroke-width="1.5"/>
  </g>
</svg>
