<svg xmlns="http://www.w3.org/2000/svg" width="24" height="24" viewBox="0 0 24 24">
  <g id="Group_13703" data-name="Group 13703" transform="translate(-141 -424)">
    <g id="Path_17464" data-name="Path 17464" transform="translate(141 424)" fill="#fff">
      <path d="M 8.582400321960449 23.24987983703613 L 1.821599960327148 23.2487907409668 L 1.821599960327148 9.440580368041992 L 1.831079959869385 9.345780372619629 L 1.864089965820312 9.015700340270996 L 1.64208996295929 8.769220352172852 C 1.066820025444031 8.130499839782715 0.75 7.304709911346436 0.75 6.443960189819336 C 0.75 5.837790012359619 0.907480001449585 5.24206018447876 1.205430030822754 4.721149921417236 L 1.240949988365173 4.659049987792969 L 1.264089941978455 4.591350078582764 L 2.577033758163452 0.75 L 21.4984302520752 0.75 L 22.98660087585449 5.110610008239746 L 22.99325942993164 5.130139827728271 L 23.00098991394043 5.149280071258545 C 23.16621971130371 5.558310031890869 23.25 5.99390983581543 23.25 6.443960189819336 C 23.25 7.294600009918213 22.93996047973633 8.112500190734863 22.37700080871582 8.746979713439941 L 22.15970993041992 8.991869926452637 L 22.19156074523926 9.317709922790527 L 22.20359992980957 9.440896034240723 L 22.20359992980957 23.24745750427246 L 15.86040019989014 23.24854278564453 L 15.86040019989014 18.6107006072998 C 15.86040019989014 16.6044807434082 14.22821998596191 14.97231006622314 12.22200012207031 14.97231006622314 C 10.21512031555176 14.97231006622314 8.582400321960449 16.6044807434082 8.582400321960449 18.6107006072998 L 8.582400321960449 23.24987983703613 Z" stroke="none"/>
      <path d="M 7.832399845123291 22.49975776672363 L 7.832399845123291 18.6107006072998 C 7.832399845123291 16.1909294128418 9.801569938659668 14.22231006622314 12.22200012207031 14.22231006622314 C 14.641770362854 14.22231006622314 16.61039924621582 16.1909294128418 16.61039924621582 18.6107006072998 L 16.61039924621582 22.4984130859375 L 21.45359992980957 22.49758529663086 L 21.45359992980957 9.477524757385254 L 21.38142013549805 8.73898983001709 L 21.81599044799805 8.249210357666016 C 22.257080078125 7.752089977264404 22.5 7.110970020294189 22.5 6.443960189819336 C 22.5 6.090630054473877 22.43458938598633 5.749539852142334 22.30558967590332 5.430180072784424 L 22.27679061889648 5.352849960327148 L 20.96190643310547 1.5 L 3.113284587860107 1.5 L 1.927500009536743 4.969319820404053 L 1.856459975242615 5.093530178070068 C 1.623260021209717 5.501229763031006 1.5 5.968200206756592 1.5 6.443960189819336 C 1.5 7.119019985198975 1.748379945755005 7.766560077667236 2.19936990737915 8.267290115356445 L 2.643369913101196 8.760259628295898 L 2.571599960327148 9.478010177612305 L 2.571599960327148 22.49891090393066 L 7.832399845123291 22.49975776672363 M 9.332400321960449 24 L 1.071599960327148 23.99867057800293 L 1.071599960327148 9.403149604797363 L 1.084800004959106 9.271149635314941 C 0.3853699862957001 8.494580268859863 -1.77635683940025e-15 7.49015998840332 -1.77635683940025e-15 6.443960189819336 C -1.77635683940025e-15 5.707379817962646 0.1917099952697754 4.982880115509033 0.5544000267982483 4.348780155181885 L 1.960800051689148 0.2339999973773956 L 1.98360002040863 -1.77635683940025e-15 L 22.04280090332031 -1.77635683940025e-15 L 22.04520034790039 0.0300500001758337 L 23.6963996887207 4.868370056152344 C 23.89784049987793 5.367050170898438 24 5.897180080413818 24 6.443960189819336 C 24 7.478240013122559 23.62284088134766 8.472909927368164 22.9379997253418 9.244750022888184 L 22.95359992980957 9.404359817504883 L 22.95359992980957 23.99732971191406 L 15.11040019989014 23.99867057800293 L 15.11040019989014 18.6107006072998 C 15.11040019989014 17.01803970336914 13.81466960906982 15.72231006622314 12.22200012207031 15.72231006622314 C 10.62866973876953 15.72231006622314 9.332400321960449 17.01803970336914 9.332400321960449 18.6107006072998 L 9.332400321960449 24 Z" stroke="none" fill="#f27043"/>
    </g>
    <g id="Path_17463" data-name="Path 17463" transform="translate(141 424)" fill="none">
      <path d="M15.989,7.478A4.564,4.564,0,0,1,12,9.6,4.564,4.564,0,0,1,8.011,7.478,4.286,4.286,0,0,1,4.223,9.6,4.027,4.027,0,0,1,0,5.8,3.5,3.5,0,0,1,.558,3.911L2.038,0h20l1.652,4.362A3.461,3.461,0,0,1,24,5.8a4.027,4.027,0,0,1-4.223,3.8A4.286,4.286,0,0,1,15.989,7.478Z" stroke="none"/>
      <path d="M 19.77725028991699 8.100000381469727 C 21.27857971191406 8.100000381469727 22.5 7.068110466003418 22.5 5.799740791320801 C 22.5 5.517950534820557 22.44004058837891 5.243160724639893 22.32180023193359 4.983020782470703 L 22.30171012878418 4.938830852508545 L 20.99977111816406 1.500000715255737 L 3.074486970901489 1.500000715255737 L 1.905580043792725 4.587430477142334 L 1.822289943695068 4.718030452728271 C 1.608430027961731 5.053340435028076 1.5 5.417280673980713 1.5 5.799740791320801 C 1.5 7.068110466003418 2.721420049667358 8.100000381469727 4.222750186920166 8.100000381469727 C 5.278480052947998 8.100000381469727 6.249179840087891 7.573020458221436 6.695720195770264 6.757450580596924 L 7.977759838104248 4.415910720825195 L 9.310970306396484 6.728700637817383 C 9.791170120239258 7.561730861663818 10.84667015075684 8.100000381469727 12 8.100000381469727 C 13.15330982208252 8.100000381469727 14.2088098526001 7.561730861663818 14.68900966644287 6.728700637817383 L 16.02222061157227 4.415910720825195 L 17.30426025390625 6.757450580596924 C 17.75079917907715 7.573020458221436 18.72150993347168 8.100000381469727 19.77725028991699 8.100000381469727 M 19.77725028991699 9.600000381469727 C 18.11491966247559 9.600000381469727 16.67696952819824 8.735140800476074 15.98855972290039 7.477820873260498 C 15.26377964019775 8.735140800476074 13.7499303817749 9.600000381469727 12 9.600000381469727 C 10.25008010864258 9.600000381469727 8.736200332641602 8.735140800476074 8.011420249938965 7.477820873260498 C 7.323009967803955 8.735140800476074 5.885079860687256 9.600000381469727 4.222750186920166 9.600000381469727 C 1.889979958534241 9.600000381469727 -1.77635683940025e-15 7.899200439453125 -1.77635683940025e-15 5.799740791320801 C -1.77635683940025e-15 5.112420558929443 0.2028599977493286 4.467670440673828 0.5576000213623047 3.911450624465942 L 2.038480043411255 6.675720101156912e-07 L 22.03577995300293 6.675720101156912e-07 L 23.68734931945801 4.362320899963379 C 23.88888931274414 4.805710792541504 24 5.291070461273193 24 5.799740791320801 C 24 7.899200439453125 22.11002922058105 9.600000381469727 19.77725028991699 9.600000381469727 Z" stroke="none" fill="#f27043"/>
    </g>
  </g>
</svg>
