<svg xmlns="http://www.w3.org/2000/svg" width="20" height="22.009" viewBox="0 0 20 22.009">
  <g id="Group_13662" data-name="Group 13662" transform="translate(-206 -768.925)">
    <g id="Path_17427" data-name="Path 17427" transform="translate(206 774)" fill="#f27043">
      <path d="M 17 16.43408012390137 L 3 16.43408012390137 C 1.63353157043457 16.43408012390137 0.5195962190628052 15.41034412384033 0.5002554059028625 14.14516258239746 L 2.434130430221558 0.5000010132789612 L 17.56587028503418 0.5000010132789612 L 19.4997444152832 14.14516258239746 C 19.48040390014648 15.41034412384033 18.36646842956543 16.43408012390137 17 16.43408012390137 Z" stroke="none"/>
      <path d="M 2.868270874023438 1.000000953674316 L 1.001155853271484 14.17411041259766 C 1.037328720092773 15.15022850036621 1.920085906982422 15.93408107757568 3 15.93408107757568 L 17 15.93408107757568 C 18.07991409301758 15.93408107757568 18.96267127990723 15.15022850036621 18.99884414672852 14.17411041259766 L 17.13172912597656 1.000000953674316 L 2.868270874023438 1.000000953674316 M 2 1.9073486328125e-06 L 18 1.9073486328125e-06 L 20 14.11173057556152 C 20 15.67047119140625 18.65685081481934 16.93408012390137 17 16.93408012390137 L 3 16.93408012390137 C 1.343149185180664 16.93408012390137 0 15.67047119140625 0 14.11173057556152 L 2 1.9073486328125e-06 Z" stroke="none" fill="#000"/>
    </g>
    <path id="Path_17428" data-name="Path 17428" d="M-.574-.074c0-1.391-.49-6.94,3.574-6.94S6.563-1.728,6.576-.074" transform="translate(213 776.439)" fill="rgba(0,0,0,0)" stroke="#000" stroke-width="1"/>
    <g id="Path_17452" data-name="Path 17452" transform="translate(211 776)" fill="#fff">
      <path d="M 1.5 2.5 C 0.9485999941825867 2.5 0.5 2.051399946212769 0.5 1.5 C 0.5 0.9485999941825867 0.9485999941825867 0.5 1.5 0.5 C 2.051399946212769 0.5 2.5 0.9485999941825867 2.5 1.5 C 2.5 2.051399946212769 2.051399946212769 2.5 1.5 2.5 Z" stroke="none"/>
      <path d="M 1.5 1 C 1.224300026893616 1 1 1.224300026893616 1 1.5 C 1 1.775699973106384 1.224300026893616 2 1.5 2 C 1.775699973106384 2 2 1.775699973106384 2 1.5 C 2 1.224300026893616 1.775699973106384 1 1.5 1 M 1.5 0 C 2.328429937362671 0 3 0.6715700626373291 3 1.5 C 3 2.328429937362671 2.328429937362671 3 1.5 3 C 0.6715700626373291 3 0 2.328429937362671 0 1.5 C 0 0.6715700626373291 0.6715700626373291 0 1.5 0 Z" stroke="none" fill="#000"/>
    </g>
    <g id="Path_17451" data-name="Path 17451" transform="translate(218 776)" fill="#fff">
      <path d="M 1.5 2.5 C 0.9485999941825867 2.5 0.5 2.051399946212769 0.5 1.5 C 0.5 0.9485999941825867 0.9485999941825867 0.5 1.5 0.5 C 2.051399946212769 0.5 2.5 0.9485999941825867 2.5 1.5 C 2.5 2.051399946212769 2.051399946212769 2.5 1.5 2.5 Z" stroke="none"/>
      <path d="M 1.5 1 C 1.224300026893616 1 1 1.224300026893616 1 1.5 C 1 1.775699973106384 1.224300026893616 2 1.5 2 C 1.775699973106384 2 2 1.775699973106384 2 1.5 C 2 1.224300026893616 1.775699973106384 1 1.5 1 M 1.5 0 C 2.328429937362671 0 3 0.6715700626373291 3 1.5 C 3 2.328429937362671 2.328429937362671 3 1.5 3 C 0.6715700626373291 3 0 2.328429937362671 0 1.5 C 0 0.6715700626373291 0.6715700626373291 0 1.5 0 Z" stroke="none" fill="#000"/>
    </g>
  </g>
</svg>
