<svg xmlns="http://www.w3.org/2000/svg" width="19.998" height="20" viewBox="0 0 19.998 20">
  <g id="Group_13660" data-name="Group 13660" transform="translate(-297.002 -768)">
    <g id="Path_17454" data-name="Path 17454" transform="translate(302 768)" fill="#f27043">
      <path d="M 5 9.5 C 2.51869010925293 9.5 0.5 7.48130989074707 0.5 5 C 0.5 2.51869010925293 2.51869010925293 0.5 5 0.5 C 7.48130989074707 0.5 9.5 2.51869010925293 9.5 5 C 9.5 7.48130989074707 7.48130989074707 9.5 5 9.5 Z" stroke="none"/>
      <path d="M 5 1 C 2.794390201568604 1 1 2.794390201568604 1 5 C 1 7.205610275268555 2.794390201568604 9 5 9 C 7.205610275268555 9 9 7.205610275268555 9 5 C 9 2.794390201568604 7.205610275268555 1 5 1 M 5 0 C 7.761420249938965 0 10 2.238580226898193 10 5 C 10 7.761420249938965 7.761420249938965 10 5 10 C 2.238580226898193 10 0 7.761420249938965 0 5 C 0 2.238580226898193 2.238580226898193 0 5 0 Z" stroke="none" fill="#000"/>
    </g>
    <g id="Path_17453" data-name="Path 17453" transform="translate(-18473 -7979)" fill="#f27043">
      <path d="M 18789.5 8766.5 L 18770.501953125 8766.5 L 18770.501953125 8764.0009765625 C 18770.501953125 8761.0478515625 18772.83984375 8758.6298828125 18775.76171875 8758.5029296875 C 18776.810546875 8759.7744140625 18778.33984375 8760.498046875 18779.998046875 8760.498046875 C 18781.66015625 8760.498046875 18783.19140625 8759.7744140625 18784.240234375 8758.5029296875 C 18787.162109375 8758.62890625 18789.5 8761.046875 18789.5 8764.0009765625 L 18789.5 8766.5 Z" stroke="none"/>
      <path d="M 18789 8766 L 18789 8764.0009765625 C 18789 8761.3955078125 18787 8759.2490234375 18784.45703125 8759.0185546875 C 18783.3203125 8760.283203125 18781.72265625 8760.998046875 18779.998046875 8760.998046875 C 18778.27734375 8760.998046875 18776.681640625 8760.283203125 18775.544921875 8759.0185546875 C 18773.001953125 8759.25 18771.001953125 8761.396484375 18771.001953125 8764.0009765625 L 18771.001953125 8766 L 18789 8766 M 18790 8767 L 18770.001953125 8767 L 18770.001953125 8764.0009765625 C 18770.001953125 8760.6923828125 18772.693359375 8757.9990234375 18776 8757.998046875 C 18776.955078125 8759.26953125 18778.41015625 8759.998046875 18779.998046875 8759.998046875 C 18781.587890625 8759.998046875 18783.046875 8759.26953125 18784.001953125 8757.998046875 C 18787.30859375 8757.998046875 18790 8760.69140625 18790 8764.0009765625 L 18790 8767 Z" stroke="none" fill="#000"/>
    </g>
  </g>
</svg>
