<svg xmlns="http://www.w3.org/2000/svg" width="18.25" height="19" viewBox="0 0 18.25 19">
  <g id="Group_13701" data-name="Group 13701" transform="translate(-96 -769.752)">
    <g id="Group_13698" data-name="Group 13698" transform="translate(20 11.752)">
      <g id="Path_17450" data-name="Path 17450" transform="translate(76 774)">
        <path d="M 1.5 2.5 C 0.9485999941825867 2.5 0.5 2.051399946212769 0.5 1.5 C 0.5 0.9485999941825867 0.9485999941825867 0.5 1.5 0.5 C 2.051399946212769 0.5 2.5 0.9485999941825867 2.5 1.5 C 2.5 2.051399946212769 2.051399946212769 2.5 1.5 2.5 Z" stroke="none"/>
        <path d="M 1.5 1 C 1.224300026893616 1 1 1.224300026893616 1 1.5 C 1 1.775699973106384 1.224300026893616 2 1.5 2 C 1.775699973106384 2 2 1.775699973106384 2 1.5 C 2 1.224300026893616 1.775699973106384 1 1.5 1 M 1.5 0 C 2.328429937362671 0 3 0.6715700626373291 3 1.5 C 3 2.328429937362671 2.328429937362671 3 1.5 3 C 0.6715700626373291 3 0 2.328429937362671 0 1.5 C 0 0.6715700626373291 0.6715700626373291 0 1.5 0 Z" stroke="none" fill="#f27043"/>
      </g>
      <path id="Path_17449" data-name="Path 17449" d="M0,0H12" transform="translate(81.5 775.5)" stroke="#f27043" stroke-linecap="round" stroke-width="1.5"/>
    </g>
    <g id="Group_13699" data-name="Group 13699" transform="translate(20 3.752)">
      <g id="Path_17450-2" data-name="Path 17450" transform="translate(76 774)">
        <path d="M 1.5 2.5 C 0.9485999941825867 2.5 0.5 2.051399946212769 0.5 1.5 C 0.5 0.9485999941825867 0.9485999941825867 0.5 1.5 0.5 C 2.051399946212769 0.5 2.5 0.9485999941825867 2.5 1.5 C 2.5 2.051399946212769 2.051399946212769 2.5 1.5 2.5 Z" stroke="none"/>
        <path d="M 1.5 1 C 1.224300026893616 1 1 1.224300026893616 1 1.5 C 1 1.775699973106384 1.224300026893616 2 1.5 2 C 1.775699973106384 2 2 1.775699973106384 2 1.5 C 2 1.224300026893616 1.775699973106384 1 1.5 1 M 1.5 0 C 2.328429937362671 0 3 0.6715700626373291 3 1.5 C 3 2.328429937362671 2.328429937362671 3 1.5 3 C 0.6715700626373291 3 0 2.328429937362671 0 1.5 C 0 0.6715700626373291 0.6715700626373291 0 1.5 0 Z" stroke="none" fill="#f27043"/>
      </g>
      <path id="Path_17449-2" data-name="Path 17449" d="M0,0H12" transform="translate(81.5 775.5)" stroke="#f27043" stroke-linecap="round" stroke-width="1.5"/>
    </g>
    <g id="Group_13700" data-name="Group 13700" transform="translate(20 -4.248)">
      <g id="Path_17450-3" data-name="Path 17450" transform="translate(76 774)">
        <path d="M 1.5 2.5 C 0.9485999941825867 2.5 0.5 2.051399946212769 0.5 1.5 C 0.5 0.9485999941825867 0.9485999941825867 0.5 1.5 0.5 C 2.051399946212769 0.5 2.5 0.9485999941825867 2.5 1.5 C 2.5 2.051399946212769 2.051399946212769 2.5 1.5 2.5 Z" stroke="none"/>
        <path d="M 1.5 1 C 1.224300026893616 1 1 1.224300026893616 1 1.5 C 1 1.775699973106384 1.224300026893616 2 1.5 2 C 1.775699973106384 2 2 1.775699973106384 2 1.5 C 2 1.224300026893616 1.775699973106384 1 1.5 1 M 1.5 0 C 2.328429937362671 0 3 0.6715700626373291 3 1.5 C 3 2.328429937362671 2.328429937362671 3 1.5 3 C 0.6715700626373291 3 0 2.328429937362671 0 1.5 C 0 0.6715700626373291 0.6715700626373291 0 1.5 0 Z" stroke="none" fill="#f27043"/>
      </g>
      <path id="Path_17449-3" data-name="Path 17449" d="M0,0H12" transform="translate(81.5 775.5)" stroke="#f27043" stroke-linecap="round" stroke-width="1.5"/>
    </g>
  </g>
</svg>
