<svg xmlns="http://www.w3.org/2000/svg" width="24.104" height="25.094" viewBox="0 0 24.104 25.094">
  <g id="Group_13704" data-name="Group 13704" transform="translate(-192 -399.25)">
    <g id="Path_17469" data-name="Path 17469" transform="translate(-17388 -8343.717)" fill="none">
      <path d="M17586.023,8764.052h0a6.025,6.025,0,0,1,0-12.05v12.05Z" stroke="none"/>
      <path d="M 17584.5234375 8762.2978515625 L 17584.5234375 8753.7548828125 C 17583.892578125 8753.9765625 17583.314453125 8754.3388671875 17582.828125 8754.8251953125 C 17581.970703125 8755.68359375 17581.5 8756.8203125 17581.5 8758.02734375 C 17581.5 8759.2333984375 17581.970703125 8760.3701171875 17582.828125 8761.2275390625 C 17583.314453125 8761.71484375 17583.892578125 8762.0771484375 17584.5234375 8762.2978515625 M 17586.0234375 8764.0517578125 C 17584.41796875 8764.0517578125 17582.90234375 8763.42578125 17581.765625 8762.287109375 C 17580.62890625 8761.1484375 17580 8759.634765625 17580 8758.02734375 C 17580 8756.4189453125 17580.62890625 8754.9052734375 17581.765625 8753.765625 C 17582.90234375 8752.6279296875 17584.41796875 8752.001953125 17586.0234375 8752.001953125 L 17586.0234375 8764.0517578125 Z" stroke="none" fill="#f27043"/>
    </g>
    <g id="Path_17468" data-name="Path 17468" transform="translate(216.104 420.336) rotate(180)" fill="none">
      <path d="M6.025,0h0A6.025,6.025,0,0,0,1.765,10.286a5.987,5.987,0,0,0,4.26,1.764V0Z" stroke="none"/>
      <path d="M 4.525142192840576 1.753323554992676 C 3.893157243728638 1.974750518798828 3.313911437988281 2.337248802185059 2.826391935348511 2.824614524841309 C 1.971062183380127 3.680503845214844 1.500001907348633 4.81714391708374 1.500001907348633 6.025144100189209 C 1.500001907348633 7.233144283294678 1.971062183380127 8.369784355163574 2.825881958007812 9.225164413452148 C 3.313640356063843 9.7127685546875 3.893022537231445 10.07536602020264 4.525142192840576 10.29685306549072 L 4.525142192840576 1.753323554992676 M 6.024412155151367 3.814697265625e-06 L 6.025142192840576 0.0003643035888671875 L 6.025142192840576 12.05028438568115 C 4.416431903839111 12.05028438568115 2.903342008590698 11.42357444763184 1.765391826629639 10.2859935760498 C 0.6274518966674805 9.147314071655273 1.9073486328125e-06 7.634223937988281 1.9073486328125e-06 6.025144100189209 C 1.9073486328125e-06 4.416064262390137 0.6274518966674805 2.902974128723145 1.765391826629639 1.764293670654297 C 2.903342008590698 0.626713752746582 4.415692329406738 3.814697265625e-06 6.024412155151367 3.814697265625e-06 Z" stroke="none" fill="#f27043"/>
    </g>
    <path id="Path_17465" data-name="Path 17465" d="M-.115-7.463S-1.632-18.479,9.994-18.451,20.1-7.463,20.1-7.463" transform="translate(194.14 418.451)" fill="none" stroke="#f27043" stroke-width="1.5"/>
    <g id="Path_17467" data-name="Path 17467" transform="translate(204.052 422.409)" fill="none">
      <path d="M3.226,0C5.007,0,6.451.433,6.451.968s-1.444.968-3.226.968S0,1.5,0,.968,1.444,0,3.226,0Z" stroke="none"/>
      <path d="M 3.225659608840942 -2.145767211914062e-06 C 5.007139682769775 -2.145767211914062e-06 6.451319694519043 0.4332578182220459 6.451319694519043 0.9676978588104248 C 6.451319694519043 1.502137899398804 5.007139682769775 1.935397863388062 3.225659608840942 1.935397863388062 C 1.444179534912109 1.935397863388062 -4.76837158203125e-07 1.502137899398804 -4.76837158203125e-07 0.9676978588104248 C -4.76837158203125e-07 0.4332578182220459 1.444179534912109 -2.145767211914062e-06 3.225659608840942 -2.145767211914062e-06 Z" stroke="none" fill="#f27043"/>
    </g>
    <path id="Path_17466" data-name="Path 17466" d="M6.086,0A7.022,7.022,0,0,1,4.67,3.975,5,5,0,0,1,1.3,5.285" transform="translate(207.946 418.141)" fill="none" stroke="#f27043" stroke-width="1.5"/>
  </g>
</svg>
