<svg xmlns="http://www.w3.org/2000/svg" width="20" height="22.009" viewBox="0 0 20 22.009">
  <g id="Group_13662" data-name="Group 13662" transform="translate(-206 -768.925)">
    <g id="Path_17427" data-name="Path 17427" transform="translate(206 774)" fill="none">
      <path d="M2,0H18l2,14.112a2.915,2.915,0,0,1-3,2.822H3a2.915,2.915,0,0,1-3-2.822Z" stroke="none"/>
      <path d="M 2.868270874023438 1.000000953674316 L 1.001155853271484 14.17411041259766 C 1.037328720092773 15.15022850036621 1.920085906982422 15.93408107757568 3 15.93408107757568 L 17 15.93408107757568 C 18.07991409301758 15.93408107757568 18.96267127990723 15.15022850036621 18.99884414672852 14.17411041259766 L 17.13172912597656 1.000000953674316 L 2.868270874023438 1.000000953674316 M 2 1.9073486328125e-06 L 18 1.9073486328125e-06 L 20 14.11173057556152 C 20 15.67047119140625 18.65685081481934 16.93408012390137 17 16.93408012390137 L 3 16.93408012390137 C 1.343149185180664 16.93408012390137 0 15.67047119140625 0 14.11173057556152 L 2 1.9073486328125e-06 Z" stroke="none" fill="#707070"/>
    </g>
    <path id="Path_17428" data-name="Path 17428" d="M-.574-.074c0-1.391-.49-6.94,3.574-6.94S6.563-1.728,6.576-.074" transform="translate(213 776.439)" fill="none" stroke="#707070" stroke-width="1"/>
    <g id="Path_17443" data-name="Path 17443" transform="translate(211 776)" fill="none">
      <path d="M1.5,0A1.5,1.5,0,1,1,0,1.5,1.5,1.5,0,0,1,1.5,0Z" stroke="none"/>
      <path d="M 1.5 1 C 1.224300026893616 1 1 1.224300026893616 1 1.5 C 1 1.775699973106384 1.224300026893616 2 1.5 2 C 1.775699973106384 2 2 1.775699973106384 2 1.5 C 2 1.224300026893616 1.775699973106384 1 1.5 1 M 1.5 0 C 2.328429937362671 0 3 0.6715700626373291 3 1.5 C 3 2.328429937362671 2.328429937362671 3 1.5 3 C 0.6715700626373291 3 0 2.328429937362671 0 1.5 C 0 0.6715700626373291 0.6715700626373291 0 1.5 0 Z" stroke="none" fill="#707070"/>
    </g>
    <g id="Path_17442" data-name="Path 17442" transform="translate(218 776)" fill="none">
      <path d="M1.5,0A1.5,1.5,0,1,1,0,1.5,1.5,1.5,0,0,1,1.5,0Z" stroke="none"/>
      <path d="M 1.5 1 C 1.224300026893616 1 1 1.224300026893616 1 1.5 C 1 1.775699973106384 1.224300026893616 2 1.5 2 C 1.775699973106384 2 2 1.775699973106384 2 1.5 C 2 1.224300026893616 1.775699973106384 1 1.5 1 M 1.5 0 C 2.328429937362671 0 3 0.6715700626373291 3 1.5 C 3 2.328429937362671 2.328429937362671 3 1.5 3 C 0.6715700626373291 3 0 2.328429937362671 0 1.5 C 0 0.6715700626373291 0.6715700626373291 0 1.5 0 Z" stroke="none" fill="#707070"/>
    </g>
  </g>
</svg>
