<svg xmlns="http://www.w3.org/2000/svg" width="25.709" height="15.825" viewBox="0 0 25.709 15.825">
  <path id="Icon_awesome-money-bill-alt" data-name="Icon awesome-money-bill-alt" d="M13.59,13.148h-.618v-3.4a.309.309,0,0,0-.309-.309h-.524a.925.925,0,0,0-.514.156l-.592.395a.309.309,0,0,0-.086.428l.343.514a.309.309,0,0,0,.428.086l.018-.012v2.14h-.618a.309.309,0,0,0-.309.309v.618a.309.309,0,0,0,.309.309H13.59a.309.309,0,0,0,.309-.309v-.618A.309.309,0,0,0,13.59,13.148ZM23.474,4.5H1.235A1.236,1.236,0,0,0,0,5.735V18.09a1.236,1.236,0,0,0,1.235,1.235H23.474a1.236,1.236,0,0,0,1.235-1.235V5.735A1.236,1.236,0,0,0,23.474,4.5ZM1.853,17.472V15a2.471,2.471,0,0,1,2.471,2.471Zm0-8.648V6.353H4.324A2.471,2.471,0,0,1,1.853,8.824Zm10.5,7.413c-2.047,0-3.706-1.936-3.706-4.324s1.659-4.324,3.706-4.324,3.706,1.936,3.706,4.324S14.4,16.237,12.354,16.237Zm10.5,1.235H20.385A2.471,2.471,0,0,1,22.856,15Zm0-8.648a2.471,2.471,0,0,1-2.471-2.471h2.471Z" transform="translate(0.5 -4)" fill="#f27043" stroke="#000" stroke-width="1"/>
</svg>
