<svg xmlns="http://www.w3.org/2000/svg" width="24.104" height="24.844" viewBox="0 0 24.104 24.844">
  <g id="Group_13704" data-name="Group 13704" transform="translate(-192 -399.5)">
    <g id="Path_17469" data-name="Path 17469" transform="translate(-17388 -8343.717)" fill="none">
      <path d="M17586.023,8764.052h0a6.025,6.025,0,0,1,0-12.05v12.05Z" stroke="none"/>
      <path d="M 17585.0234375 8762.953125 L 17585.0234375 8753.1005859375 C 17584.0625 8753.2939453125 17583.181640625 8753.763671875 17582.474609375 8754.4716796875 C 17581.5234375 8755.4248046875 17581 8756.6875 17581 8758.02734375 C 17581 8759.3671875 17581.5234375 8760.62890625 17582.47265625 8761.5810546875 C 17583.1796875 8762.2890625 17584.0625 8762.759765625 17585.0234375 8762.953125 M 17586.0234375 8764.0517578125 C 17584.41796875 8764.0517578125 17582.90234375 8763.42578125 17581.765625 8762.287109375 C 17580.62890625 8761.1484375 17580 8759.634765625 17580 8758.02734375 C 17580 8756.4189453125 17580.62890625 8754.9052734375 17581.765625 8753.765625 C 17582.90234375 8752.6279296875 17584.41796875 8752.001953125 17586.0234375 8752.001953125 L 17586.0234375 8764.0517578125 Z" stroke="none" fill="#000"/>
    </g>
    <g id="Path_17468" data-name="Path 17468" transform="translate(216.104 420.336) rotate(180)" fill="none">
      <path d="M6.025,0h0A6.025,6.025,0,0,0,1.765,10.286a5.987,5.987,0,0,0,4.26,1.764V0Z" stroke="none"/>
      <path d="M 5.025142192840576 1.098852157592773 C 4.064559459686279 1.291788101196289 3.181496381759644 1.76263427734375 2.472732067108154 2.471174240112305 C 1.523022174835205 3.421494483947754 1.000001907348633 4.683654308319092 1.000001907348633 6.025144100189209 C 1.000001907348633 7.366633892059326 1.523022174835205 8.628793716430664 2.472382068634033 9.578774452209473 C 3.181291818618774 10.28745269775391 4.064455986022949 10.75833702087402 5.025142192840576 10.95134830474854 L 5.025142192840576 1.098852157592773 M 6.024412155151367 3.814697265625e-06 L 6.025142192840576 0.0003643035888671875 L 6.025142192840576 12.05028438568115 C 4.416431903839111 12.05028438568115 2.903342008590698 11.42357444763184 1.765391826629639 10.2859935760498 C 0.6274518966674805 9.147314071655273 1.9073486328125e-06 7.634223937988281 1.9073486328125e-06 6.025144100189209 C 1.9073486328125e-06 4.416064262390137 0.6274518966674805 2.902974128723145 1.765391826629639 1.764293670654297 C 2.903342008590698 0.626713752746582 4.415692329406738 3.814697265625e-06 6.024412155151367 3.814697265625e-06 Z" stroke="none" fill="#000"/>
    </g>
    <path id="Path_17465" data-name="Path 17465" d="M-.115-7.463S-1.632-18.479,9.994-18.451,20.1-7.463,20.1-7.463" transform="translate(194.14 418.451)" fill="none" stroke="#000" stroke-width="1"/>
    <g id="Path_17467" data-name="Path 17467" transform="translate(204.052 422.409)" fill="none">
      <path d="M3.226,0C5.007,0,6.451.433,6.451.968s-1.444.968-3.226.968S0,1.5,0,.968,1.444,0,3.226,0Z" stroke="none"/>
      <path d="M 3.225659608840942 -2.145767211914062e-06 C 5.007139682769775 -2.145767211914062e-06 6.451319694519043 0.4332578182220459 6.451319694519043 0.9676978588104248 C 6.451319694519043 1.502137899398804 5.007139682769775 1.935397863388062 3.225659608840942 1.935397863388062 C 1.444179534912109 1.935397863388062 -4.76837158203125e-07 1.502137899398804 -4.76837158203125e-07 0.9676978588104248 C -4.76837158203125e-07 0.4332578182220459 1.444179534912109 -2.145767211914062e-06 3.225659608840942 -2.145767211914062e-06 Z" stroke="none" fill="#000"/>
    </g>
    <path id="Path_17466" data-name="Path 17466" d="M6.086,0A7.022,7.022,0,0,1,4.67,3.975,5,5,0,0,1,1.3,5.285" transform="translate(207.946 418.141)" fill="none" stroke="#000" stroke-width="1"/>
  </g>
</svg>
