<svg xmlns="http://www.w3.org/2000/svg" width="20.379" height="21.533" viewBox="0 0 20.379 21.533">
  <g id="Group_13661" data-name="Group 13661" transform="translate(-171.621 -767.467)">
    <g id="Path_17437" data-name="Path 17437" transform="translate(174 773)" fill="none">
      <path d="M0,0H16a2,2,0,0,1,2,2V6a5,5,0,0,1-5,5H5A5,5,0,0,1,0,6Z" stroke="none"/>
      <path d="M 1 1 L 1 6 C 1 8.205610275268555 2.794389724731445 10 5 10 L 13 10 C 15.20561027526855 10 17 8.205610275268555 17 6 L 17 2 C 17 1.448599815368652 16.55139923095703 1 16 1 L 1 1 M 0 0 L 16 0 C 17.10457038879395 0 18 0.8954296112060547 18 2 L 18 6 C 18 8.761420249938965 15.76142024993896 11 13 11 L 5 11 C 2.238579750061035 11 0 8.761420249938965 0 6 L 0 0 Z" stroke="none" fill="#707070"/>
    </g>
    <g id="Path_17436" data-name="Path 17436" transform="translate(179 786)" fill="none">
      <path d="M1.5,0A1.5,1.5,0,1,1,0,1.5,1.5,1.5,0,0,1,1.5,0Z" stroke="none"/>
      <path d="M 1.5 1 C 1.224300026893616 1 1 1.224300026893616 1 1.5 C 1 1.775699973106384 1.224300026893616 2 1.5 2 C 1.775699973106384 2 2 1.775699973106384 2 1.5 C 2 1.224300026893616 1.775699973106384 1 1.5 1 M 1.5 0 C 2.328429937362671 0 3 0.6715700626373291 3 1.5 C 3 2.328429937362671 2.328429937362671 3 1.5 3 C 0.6715700626373291 3 0 2.328429937362671 0 1.5 C 0 0.6715700626373291 0.6715700626373291 0 1.5 0 Z" stroke="none" fill="#707070"/>
    </g>
    <g id="Path_17435" data-name="Path 17435" transform="translate(186 786)" fill="none">
      <path d="M1.5,0A1.5,1.5,0,1,1,0,1.5,1.5,1.5,0,0,1,1.5,0Z" stroke="none"/>
      <path d="M 1.5 1 C 1.224300026893616 1 1 1.224300026893616 1 1.5 C 1 1.775699973106384 1.224300026893616 2 1.5 2 C 1.775699973106384 2 2 1.775699973106384 2 1.5 C 2 1.224300026893616 1.775699973106384 1 1.5 1 M 1.5 0 C 2.328429937362671 0 3 0.6715700626373291 3 1.5 C 3 2.328429937362671 2.328429937362671 3 1.5 3 C 0.6715700626373291 3 0 2.328429937362671 0 1.5 C 0 0.6715700626373291 0.6715700626373291 0 1.5 0 Z" stroke="none" fill="#707070"/>
    </g>
    <path id="Path_17426" data-name="Path 17426" d="M-18578-7982s2.363.16,2.363,6.984" transform="translate(18750.152 8750)" fill="none" stroke="#707070" stroke-linecap="round" stroke-width="1"/>
  </g>
</svg>
