<svg xmlns="http://www.w3.org/2000/svg" width="24.574" height="24.574" viewBox="0 0 24.574 24.574">
  <g id="Icon_ionic-ios-checkmark-circle-outline" data-name="Icon ionic-ios-checkmark-circle-outline" transform="translate(-3.375 -3.375)">
    <path id="Path_17541" data-name="Path 17541" d="M23.088,13.346l-1.04-1.069a.224.224,0,0,0-.165-.071h0a.215.215,0,0,0-.165.071l-7.207,7.26-2.623-2.623a.228.228,0,0,0-.331,0l-1.051,1.051a.235.235,0,0,0,0,.337l3.308,3.308a1.046,1.046,0,0,0,.691.337,1.1,1.1,0,0,0,.685-.325H15.2l7.9-7.939A.253.253,0,0,0,23.088,13.346Z" transform="translate(-1.128 -1.412)" fill="#0491a4"/>
    <path id="Path_17542" data-name="Path 17542" d="M15.662,5.029a10.629,10.629,0,1,1-7.52,3.113,10.563,10.563,0,0,1,7.52-3.113m0-1.654A12.287,12.287,0,1,0,27.949,15.662,12.285,12.285,0,0,0,15.662,3.375Z" fill="#0491a4"/>
  </g>
</svg>
