<svg xmlns="http://www.w3.org/2000/svg" xmlns:xlink="http://www.w3.org/1999/xlink" width="128.161" height="114.21" viewBox="0 0 128.161 114.21">
  <defs>
    <clipPath id="clip-path">
      <circle id="Ellipse_82" data-name="Ellipse 82" cx="54.631" cy="54.631" r="54.631" fill="none"/>
    </clipPath>
  </defs>
  <g id="Group_13878" data-name="Group 13878" transform="translate(-57.356 -60.887)">
    <g id="Group_13871" data-name="Group 13871" transform="translate(66.624 65.835)">
      <g id="Group_13870" data-name="Group 13870" transform="translate(0)" clip-path="url(#clip-path)">
        <circle id="Ellipse_81" data-name="Ellipse 81" cx="68.315" cy="68.315" r="68.315" transform="translate(-39.889 59.989) rotate(-45)" fill="#ffedde"/>
        <g id="Group_13863" data-name="Group 13863" transform="translate(21.433 71.798)">
          <path id="Path_17505" data-name="Path 17505" d="M219.044,292.264h0Z" transform="translate(-196.114 -292.264)" fill="#1e2d77"/>
          <path id="Path_17506" data-name="Path 17506" d="M224.313,299.64c7.879,0,13.415-6.267,13.418-6.271-.761-.235-1.518-.472-2.252-.7h0c-3.95,3.3-7.648,4.376-10.831,4.342l-.555,1.043-.541-1.1a16.565,16.565,0,0,1-9.721-4.687c-.831.254-1.7.521-2.588.8C213.014,294.965,218,299.64,224.313,299.64Z" transform="translate(-190.901 -292.264)" fill="#00637a"/>
          <path id="Path_17507" data-name="Path 17507" d="M149.949,324.869c0-11.93-1.141-22.033,9.808-26.761,2.271-.981,6.559-2.223,10.5-3.445,1.77,1.906,6.755,6.58,13.069,6.58,7.879,0,13.415-6.267,13.418-6.271,3.135.971,6.4,1.725,8.427,2.416,14.184,4.843,12.028,16.458,12.028,27.48l-33.673,20.2Z" transform="translate(-149.915 -293.867)" fill="#008cab"/>
        </g>
        <g id="Group_13864" data-name="Group 13864" transform="translate(44.362 69.852)">
          <path id="Path_17508" data-name="Path 17508" d="M248.892,307.5l.555-1.043c-.373,0-.738-.024-1.1-.057Z" transform="translate(-238.63 -299.762)" fill="none"/>
          <path id="Path_17509" data-name="Path 17509" d="M251.656,293.086c3.184.034,6.881-1.046,10.831-4.342h0c-3.949-1.246-7.269-2.348-7.269-2.348Z" transform="translate(-240.839 -286.395)" fill="#fff"/>
          <path id="Path_17510" data-name="Path 17510" d="M228.765,293.029,225.5,286.4s-2.845.842-6.454,1.947h0A16.564,16.564,0,0,0,228.765,293.029Z" transform="translate(-219.044 -286.395)" fill="#fff"/>
        </g>
        <path id="Path_17511" data-name="Path 17511" d="M187.151,159.3s-15.507-8.467-12.721-28.9a25.647,25.647,0,0,1,6.618-13.623c5.165-5.265,18.439-11.08,27.5-1.558a7.107,7.107,0,0,1,7.62.943c9.615,7.16,12.119,30.568-3.841,42.431" transform="translate(-144.641 -98.749)" fill="#734d25"/>
        <path id="Path_17512" data-name="Path 17512" d="M245.586,276.129l-4.433,4.127-4.588-4.127V265.017h9.021Z" transform="translate(-186.391 -202.256)" fill="#f5d5af"/>
        <path id="Path_17513" data-name="Path 17513" d="M229.425,159.544c0,12.3-9.149,22.275-20.434,22.275s-20.435-9.972-20.435-22.275,9.149-22.276,20.435-22.276S229.425,147.241,229.425,159.544Z" transform="translate(-154.306 -116.881)" fill="#ffddb6"/>
        <path id="Path_17514" data-name="Path 17514" d="M231.238,150.217a23.372,23.372,0,0,1,5.057,14.662c0,12.3-9.149,22.275-20.435,22.275a19.242,19.242,0,0,1-12.059-4.3,19.713,19.713,0,0,0,15.378,7.614c11.286,0,20.434-9.972,20.434-22.275A22.931,22.931,0,0,0,231.238,150.217Z" transform="translate(-164.495 -125.535)" fill="#f5d5af"/>
        <path id="Path_17515" data-name="Path 17515" d="M223.57,142.025c-5.463-5.978-12.991-6.371-18.376-5.482-5.523.912-20.17,8.632-16.485,26.908,0,0,5.962-2.885,7.192-11.106.589-3.938,6.834,1.019,12.827,1.214,5.612.183,11.607-5.509,13.284-1.214,1.205,3.088-.36,8.281,7.123,11.181C229.135,163.527,231.982,151.229,223.57,142.025Z" transform="translate(-154.016 -116.157)" fill="#734d25"/>
        <path id="Path_17516" data-name="Path 17516" d="M224.855,281.728l-5.812,3.494,8.662,7.376,1.737-1.175Z" transform="translate(-174.681 -213.425)" fill="#f2f2f2"/>
        <path id="Path_17517" data-name="Path 17517" d="M255.233,281.728l6.579,3.9-9.393,6.975-1.773-1.175Z" transform="translate(-195.801 -213.425)" fill="#f2f2f2"/>
        <g id="Group_13865" data-name="Group 13865" transform="translate(31.221 18.031)">
          <path id="Path_17518" data-name="Path 17518" d="M179.428,153.742c-.013-.429-.232-10.6,6.473-17.5,3.913-4.03,9.374-6.073,16.231-6.073,12.5,0,18.429,6.418,21.2,11.8a28.305,28.305,0,0,1,3.021,11.763h-.928a27.894,27.894,0,0,0-2.933-11.368c-3.858-7.477-10.708-11.269-20.358-11.269-6.6,0-11.834,1.949-15.565,5.792-6.435,6.627-6.214,16.73-6.211,16.831Z" transform="translate(-179.425 -130.165)" stroke="#000" stroke-width="2"/>
        </g>
        <g id="Group_13866" data-name="Group 13866" transform="translate(31.128 47.295)">
          <path id="Path_17519" data-name="Path 17519" d="M196.733,233.181c-6.848,0-11.809-1.753-14.744-5.211a12.674,12.674,0,0,1-2.744-9.578l.916.15a11.945,11.945,0,0,0,2.544,8.838c2.751,3.234,7.472,4.874,14.028,4.874Z" transform="translate(-179.145 -218.392)" fill="#0b1016"/>
        </g>
        <g id="Group_13869" data-name="Group 13869" transform="translate(27.943 34.658)">
          <g id="Group_13867" data-name="Group 13867">
            <path id="Path_17520" data-name="Path 17520" d="M175.671,197.855h0a6.128,6.128,0,0,1-6.128-6.128v-.69a6.129,6.129,0,0,1,6.128-6.129h0" transform="translate(-169.543 -183.378)" fill="#fdbf1e"/>
            <path id="Path_17521" data-name="Path 17521" d="M172.762,187.123a6.1,6.1,0,0,0-1.361,3.847v.69a6.13,6.13,0,0,0,4.271,5.839v1.836a6.128,6.128,0,0,1-6.128-6.128v-.69A6.127,6.127,0,0,1,172.762,187.123Z" transform="translate(-169.543 -184.857)" fill="#d6a219"/>
            <path id="Path_17522" data-name="Path 17522" d="M186.223,194.971a1.33,1.33,0,0,1-1.329,1.33h0a1.33,1.33,0,0,1-1.33-1.33v-13.35a1.331,1.331,0,0,1,1.33-1.33h0a1.33,1.33,0,0,1,1.329,1.33Z" transform="translate(-178.913 -180.292)" fill="#0b1016"/>
          </g>
          <g id="Group_13868" data-name="Group 13868" transform="translate(46.172)">
            <path id="Path_17523" data-name="Path 17523" d="M312.307,184.909h0a6.128,6.128,0,0,1,6.128,6.129v.69a6.128,6.128,0,0,1-6.128,6.128h0" transform="translate(-311.125 -183.378)" fill="#fdbf1e"/>
            <path id="Path_17524" data-name="Path 17524" d="M315.216,187.123a6.1,6.1,0,0,1,1.361,3.847v.69a6.13,6.13,0,0,1-4.27,5.839v1.836a6.128,6.128,0,0,0,6.128-6.128v-.69A6.127,6.127,0,0,0,315.216,187.123Z" transform="translate(-311.125 -184.857)" fill="#d6a219"/>
            <path id="Path_17525" data-name="Path 17525" d="M308.743,181.622a1.331,1.331,0,0,1,1.33-1.33h0a1.33,1.33,0,0,1,1.33,1.33v13.35a1.33,1.33,0,0,1-1.33,1.33h0a1.33,1.33,0,0,1-1.33-1.33Z" transform="translate(-308.743 -180.292)" fill="#0b1016"/>
          </g>
        </g>
        <path id="Path_17526" data-name="Path 17526" d="M233.313,256.63a2.456,2.456,0,1,1-2.457-2.456A2.456,2.456,0,0,1,233.313,256.63Z" transform="translate(-180.934 -195.01)" fill="#0b1016"/>
        <path id="Path_17527" data-name="Path 17527" d="M232.625,255.066a2.457,2.457,0,0,1-3.331,3.331,2.457,2.457,0,1,0,3.331-3.331Z" transform="translate(-181.532 -195.606)" fill="#4d4d4d" opacity="0.5"/>
      </g>
    </g>
    <g id="Group_13872" data-name="Group 13872" transform="translate(67.566 60.887)">
      <path id="Path_17528" data-name="Path 17528" d="M134.467,88.251l-4.428-8.461V63.775a2.888,2.888,0,0,0-2.888-2.888H91.025a2.888,2.888,0,0,0-2.888,2.888V81.7a2.888,2.888,0,0,0,2.888,2.888h34.282Z" transform="translate(-88.137 -60.887)" fill="#fdbf1e"/>
      <path id="Path_17529" data-name="Path 17529" d="M127.916,82H93.634a2.888,2.888,0,0,1-2.888-2.888V61.194c0-.09.005-.178.013-.266A2.888,2.888,0,0,0,88.137,63.8V81.723a2.888,2.888,0,0,0,2.888,2.888h34.282l9.159,3.667h0Z" transform="translate(-88.137 -60.914)" fill="#ebb21b"/>
      <text id="_24_7" data-name="24 / 7" transform="translate(7.201 14.591)" fill="#fff" font-size="9" font-family="Montserrat-ExtraBold, Montserrat" font-weight="800"><tspan x="0" y="0">24 / 7</tspan></text>
    </g>
    <g id="Group_13874" data-name="Group 13874" transform="translate(150.738 103.854)">
      <path id="Path_17530" data-name="Path 17530" d="M358,190.424a15.673,15.673,0,0,0-14.185,22.333l-4.924,9.408,9.41-3.768a15.669,15.669,0,1,0,9.7-27.974Z" transform="translate(-338.887 -190.424)" fill="#5d5d5d"/>
      <path id="Path_17531" data-name="Path 17531" d="M371.618,214.327a15.667,15.667,0,0,1-24.71,16.8l-8.021,7.009h0l9.41-3.768a15.666,15.666,0,0,0,23.321-20.045Z" transform="translate(-338.887 -206.399)" fill="#545454"/>
      <g id="Group_13873" data-name="Group 13873" transform="translate(11.042 13.994)">
        <path id="Path_17532" data-name="Path 17532" d="M375.928,234.491a1.876,1.876,0,1,1-1.876-1.876A1.876,1.876,0,0,1,375.928,234.491Z" transform="translate(-372.176 -232.615)" fill="#fff"/>
        <path id="Path_17533" data-name="Path 17533" d="M393.721,234.491a1.876,1.876,0,1,1-1.876-1.876A1.876,1.876,0,0,1,393.721,234.491Z" transform="translate(-384.067 -232.615)" fill="#fff"/>
        <path id="Path_17534" data-name="Path 17534" d="M411.513,234.491a1.876,1.876,0,1,1-1.876-1.876A1.876,1.876,0,0,1,411.513,234.491Z" transform="translate(-395.958 -232.615)" fill="#fff"/>
      </g>
    </g>
    <g id="Group_13876" data-name="Group 13876" transform="translate(153.629 78.296)">
      <path id="Path_17535" data-name="Path 17535" d="M358.328,113.373a10.728,10.728,0,0,1,9.71,15.286l3.371,6.44-6.441-2.579a10.725,10.725,0,1,1-6.639-19.147Z" transform="translate(-347.602 -113.373)" fill="#008cab"/>
      <path id="Path_17536" data-name="Path 17536" d="M349,129.733a10.724,10.724,0,0,0,16.914,11.5l5.491,4.8h0l-6.441-2.579A10.724,10.724,0,0,1,349,129.733Z" transform="translate(-347.602 -124.307)" fill="#007d99"/>
      <g id="Group_13875" data-name="Group 13875" transform="translate(5.601 9.579)">
        <path id="Path_17537" data-name="Path 17537" d="M388.845,143.536a1.284,1.284,0,1,0,1.284-1.284A1.284,1.284,0,0,0,388.845,143.536Z" transform="translate(-380.766 -142.252)" fill="#fff"/>
        <path id="Path_17538" data-name="Path 17538" d="M376.666,143.536a1.284,1.284,0,1,0,1.284-1.284A1.284,1.284,0,0,0,376.666,143.536Z" transform="translate(-372.626 -142.252)" fill="#fff"/>
        <path id="Path_17539" data-name="Path 17539" d="M364.487,143.536a1.284,1.284,0,1,0,1.284-1.284A1.284,1.284,0,0,0,364.487,143.536Z" transform="translate(-364.487 -142.252)" fill="#fff"/>
      </g>
    </g>
    <g id="Group_13877" data-name="Group 13877" transform="translate(57.356 103.16)">
      <path id="Path_17540" data-name="Path 17540" d="M57.356,201.481c.116-8.282,5.039-13.148,13.206-13.148,7.7,0,12.453,3.591,12.453,10.078,0,8.8-8.862,9.847-8.862,16.8H66.681c0-8.978,7.124-9.441,7.124-15.175,0-2.606-1.564-3.765-4.17-3.765-2.9,0-4.518,1.68-4.575,5.271Zm17.782,23.168a4.837,4.837,0,1,1-9.673,0,4.591,4.591,0,0,1,4.807-4.808A4.638,4.638,0,0,1,75.138,224.649Z" transform="translate(-57.356 -188.333)" fill="#c9304c"/>
    </g>
  </g>
</svg>
