<svg xmlns="http://www.w3.org/2000/svg" width="18.993" height="21.563" viewBox="0 0 18.993 21.563">
  <path id="Icon_awesome-building" data-name="Icon awesome-building" d="M17.511,19.278h-.8V.964A.964.964,0,0,0,15.744,0H2.249a.964.964,0,0,0-.964.964V19.278h-.8A.482.482,0,0,0,0,19.76v.8H17.993v-.8A.482.482,0,0,0,17.511,19.278ZM5.141,3.052a.482.482,0,0,1,.482-.482H7.229a.482.482,0,0,1,.482.482V4.659a.482.482,0,0,1-.482.482H5.623a.482.482,0,0,1-.482-.482Zm0,3.856a.482.482,0,0,1,.482-.482H7.229a.482.482,0,0,1,.482.482V8.514A.482.482,0,0,1,7.229,9H5.623a.482.482,0,0,1-.482-.482Zm2.088,5.944H5.623a.482.482,0,0,1-.482-.482V10.763a.482.482,0,0,1,.482-.482H7.229a.482.482,0,0,1,.482.482V12.37A.482.482,0,0,1,7.229,12.852Zm3.052,6.426H7.711V15.9a.482.482,0,0,1,.482-.482H9.8a.482.482,0,0,1,.482.482Zm2.57-6.908a.482.482,0,0,1-.482.482H10.763a.482.482,0,0,1-.482-.482V10.763a.482.482,0,0,1,.482-.482H12.37a.482.482,0,0,1,.482.482Zm0-3.856A.482.482,0,0,1,12.37,9H10.763a.482.482,0,0,1-.482-.482V6.908a.482.482,0,0,1,.482-.482H12.37a.482.482,0,0,1,.482.482Zm0-3.856a.482.482,0,0,1-.482.482H10.763a.482.482,0,0,1-.482-.482V3.052a.482.482,0,0,1,.482-.482H12.37a.482.482,0,0,1,.482.482Z" transform="translate(0.5 0.5)" fill="none" stroke="#707070" stroke-width="1"/>
</svg>
