<svg xmlns="http://www.w3.org/2000/svg" xmlns:xlink="http://www.w3.org/1999/xlink" width="64.385" height="70.242" viewBox="0 0 64.385 70.242">
  <defs>
    <radialGradient id="radial-gradient" cx="0.5" cy="0.5" r="0.466" gradientUnits="objectBoundingBox">
      <stop offset="0" stop-color="#f39494"/>
      <stop offset="1" stop-color="#e9a7a7"/>
    </radialGradient>
  </defs>
  <g id="Group_16765" data-name="Group 16765" transform="translate(-206 -768.425)">
    <path id="Path_17427" data-name="Path 17427" d="M6.439,0H57.947l6.439,45.429c0,5.018-4.324,9.086-9.658,9.086H9.658C4.324,54.515,0,50.447,0,45.429Z" transform="translate(206 784.152)" fill="#f27043"/>
    <path id="Path_17428" data-name="Path 17428" d="M-.53,15.328C-.542,10.848-2.108-7.014,10.977-7.014S22.445,10,22.489,15.328" transform="translate(227.216 776.439)" fill="rgba(0,0,0,0)" stroke="#262626" stroke-width="2"/>
    <g id="Group_16769" data-name="Group 16769" transform="translate(18043.75 2221.047)">
      <path id="Path_20989" data-name="Path 20989" d="M0,0S3.094,2.792,6.183,2.792,12.354,0,12.354,0" transform="translate(-17798.5 -1421.5)" fill="none" stroke="#707070" stroke-linecap="round" stroke-width="1"/>
      <path id="Path_20996" data-name="Path 20996" d="M0,1.095.86,0" transform="translate(-17798.422 -1420.718)" fill="none" stroke="#707070" stroke-linecap="round" stroke-width="1"/>
      <path id="Path_20995" data-name="Path 20995" d="M0,1.564.782,0" transform="translate(-17796.701 -1419.702)" fill="none" stroke="#707070" stroke-linecap="round" stroke-width="1"/>
      <path id="Path_20994" data-name="Path 20994" d="M0,1.877.391,0" transform="translate(-17794.592 -1418.998)" fill="none" stroke="#707070" stroke-linecap="round" stroke-width="1"/>
      <path id="Path_20993" data-name="Path 20993" d="M0,2.111V0" transform="translate(-17792.324 -1418.685)" fill="none" stroke="#707070" stroke-linecap="round" stroke-width="1"/>
      <path id="Path_20990" data-name="Path 20990" d="M.034.566l-.37-1.928" transform="translate(-17790.059 -1417.664)" fill="none" stroke="#707070" stroke-linecap="round" stroke-width="1"/>
      <path id="Path_20992" data-name="Path 20992" d="M.7,1.642,0,0" transform="translate(-17788.648 -1419.78)" fill="none" stroke="#707070" stroke-linecap="round" stroke-width="1"/>
      <path id="Path_20991" data-name="Path 20991" d="M.938,1.173,0,0" transform="translate(-17787.086 -1420.796)" fill="none" stroke="#707070" stroke-linecap="round" stroke-width="1"/>
    </g>
    <g id="Group_16770" data-name="Group 16770" transform="translate(18017.75 2221.047)">
      <path id="Path_20989-2" data-name="Path 20989" d="M0,0S3.094,2.792,6.183,2.792,12.354,0,12.354,0" transform="translate(-17798.5 -1421.5)" fill="none" stroke="#707070" stroke-linecap="round" stroke-width="1"/>
      <path id="Path_20996-2" data-name="Path 20996" d="M0,1.095.86,0" transform="translate(-17798.422 -1420.718)" fill="none" stroke="#707070" stroke-linecap="round" stroke-width="1"/>
      <path id="Path_20995-2" data-name="Path 20995" d="M0,1.564.782,0" transform="translate(-17796.701 -1419.702)" fill="none" stroke="#707070" stroke-linecap="round" stroke-width="1"/>
      <path id="Path_20994-2" data-name="Path 20994" d="M0,1.877.391,0" transform="translate(-17794.592 -1418.998)" fill="none" stroke="#707070" stroke-linecap="round" stroke-width="1"/>
      <path id="Path_20993-2" data-name="Path 20993" d="M0,2.111V0" transform="translate(-17792.324 -1418.685)" fill="none" stroke="#707070" stroke-linecap="round" stroke-width="1"/>
      <path id="Path_20990-2" data-name="Path 20990" d="M.034.566l-.37-1.928" transform="translate(-17790.059 -1417.664)" fill="none" stroke="#707070" stroke-linecap="round" stroke-width="1"/>
      <path id="Path_20992-2" data-name="Path 20992" d="M.7,1.642,0,0" transform="translate(-17788.648 -1419.78)" fill="none" stroke="#707070" stroke-linecap="round" stroke-width="1"/>
      <path id="Path_20991-2" data-name="Path 20991" d="M.938,1.173,0,0" transform="translate(-17787.086 -1420.796)" fill="none" stroke="#707070" stroke-linecap="round" stroke-width="1"/>
    </g>
    <path id="Path_21049" data-name="Path 21049" d="M3.5,0A3.5,3.5,0,1,1,0,3.5,3.5,3.5,0,0,1,3.5,0Z" transform="translate(253.5 808.426)" fill="url(#radial-gradient)"/>
    <g id="Path_21050" data-name="Path 21050" transform="translate(255.104 808.148)" fill="#fff">
      <path d="M 2.5 4.499999523162842 C 1.397199988365173 4.499999523162842 0.5 3.602799415588379 0.5 2.499999284744263 C 0.5 1.74372661113739 1.608056783676147 0.1625880748033524 2.499892473220825 -0.9094710350036621 C 3.391779184341431 0.1631796061992645 4.5 1.744825601577759 4.5 2.499999284744263 C 4.5 3.602799415588379 3.602799892425537 4.499999523162842 2.5 4.499999523162842 Z" stroke="none"/>
      <path d="M 2.49993634223938 -0.1067242622375488 C 2.360338449478149 0.07242131233215332 2.211336612701416 0.2698004245758057 2.062580108642578 0.477189302444458 C 1.029819965362549 1.917039394378662 1 2.444589376449585 1 2.499999523162842 C 1 3.327099323272705 1.672899961471558 3.999999523162842 2.5 3.999999523162842 C 3.327100038528442 3.999999523162842 4 3.327099323272705 4 2.499999523162842 C 4 2.444919347763062 3.970459938049316 1.920579433441162 2.947180032730103 0.4908194541931152 C 2.795483827590942 0.2788617610931396 2.64291524887085 0.07669472694396973 2.49993634223938 -0.1067242622375488 M 2.5 -1.675780773162842 C 2.5 -1.675780773162842 5 1.119289398193359 5 2.499999523162842 C 5 3.880709409713745 3.880710124969482 4.999999523162842 2.5 4.999999523162842 C 1.119290113449097 4.999999523162842 0 3.880709409713745 0 2.499999523162842 C 0 1.119289398193359 2.5 -1.675780773162842 2.5 -1.675780773162842 Z" stroke="none" fill="#707070"/>
    </g>
    <g id="Path_21051" data-name="Path 21051" transform="translate(255.854 816.824)" fill="#fff">
      <path d="M 1.75 2.497262239456177 C 1.060750007629395 2.497262239456177 0.5 1.936512231826782 0.5 1.247262239456177 C 0.5 0.8125737905502319 1.153684973716736 -0.1621797233819962 1.749858498573303 -0.9018911123275757 C 2.346091032028198 -0.1616726219654083 3 0.8135035634040833 3 1.247262239456177 C 3 1.936512231826782 2.439249992370605 2.497262239456177 1.75 2.497262239456177 Z" stroke="none"/>
      <path d="M 1.75 -0.07925796508789062 C 1.33382511138916 0.49559485912323 1.022664546966553 1.032501459121704 1.000026226043701 1.253466129302979 C 1.003370761871338 1.664172053337097 1.338519811630249 1.997262001037598 1.75 1.997262001037598 C 2.161480188369751 1.997262001037598 2.496629238128662 1.664172053337097 2.499973773956299 1.253466129302979 C 2.477335453033447 1.032501459121704 2.16617488861084 0.49559485912323 1.75 -0.07925796508789062 M 1.75 -1.675777912139893 C 1.75 -1.675777912139893 3.5 0.2807720899581909 3.5 1.247262001037598 C 3.5 2.213762044906616 2.716500043869019 2.997262001037598 1.75 2.997262001037598 C 0.7834999561309814 2.997262001037598 0 2.213762044906616 0 1.247262001037598 C 0 0.2807720899581909 1.75 -1.675777912139893 1.75 -1.675777912139893 Z" stroke="none" fill="#707070"/>
    </g>
    <g id="Path_21052" data-name="Path 21052" transform="translate(255.854 823.497)" fill="#fff">
      <path d="M 1.75 2.497262239456177 C 1.060750007629395 2.497262239456177 0.5 1.936512231826782 0.5 1.247262239456177 C 0.5 0.8125737905502319 1.153684973716736 -0.1621797233819962 1.749858498573303 -0.9018911123275757 C 2.346091032028198 -0.1616726219654083 3 0.8135035634040833 3 1.247262239456177 C 3 1.936512231826782 2.439249992370605 2.497262239456177 1.75 2.497262239456177 Z" stroke="none"/>
      <path d="M 1.75 -0.07925796508789062 C 1.33382511138916 0.49559485912323 1.022664546966553 1.032501459121704 1.000026226043701 1.253466129302979 C 1.003370761871338 1.664172053337097 1.338519811630249 1.997262001037598 1.75 1.997262001037598 C 2.161480188369751 1.997262001037598 2.496629238128662 1.664172053337097 2.499973773956299 1.253466129302979 C 2.477335453033447 1.032501459121704 2.16617488861084 0.49559485912323 1.75 -0.07925796508789062 M 1.75 -1.675777912139893 C 1.75 -1.675777912139893 3.5 0.2807720899581909 3.5 1.247262001037598 C 3.5 2.213762044906616 2.716500043869019 2.997262001037598 1.75 2.997262001037598 C 0.7834999561309814 2.997262001037598 0 2.213762044906616 0 1.247262001037598 C 0 0.2807720899581909 1.75 -1.675777912139893 1.75 -1.675777912139893 Z" stroke="none" fill="#707070"/>
    </g>
    <path id="Path_21053" data-name="Path 21053" d="M0,0,6.692-1.587,13,0" transform="translate(232.25 821.926)" fill="none" stroke="#707070" stroke-linecap="round" stroke-width="1"/>
    <path id="Path_21054" data-name="Path 21054" d="M3.5,0A3.5,3.5,0,1,1,0,3.5,3.5,3.5,0,0,1,3.5,0Z" transform="translate(215.5 808.426)" fill="url(#radial-gradient)"/>
  </g>
</svg>
