<svg xmlns="http://www.w3.org/2000/svg" width="43.178" height="38.436" viewBox="0 0 43.178 38.436">
  <g id="Group_12181" data-name="Group 12181" transform="translate(0)">
    <circle id="Ellipse_58" data-name="Ellipse 58" cx="16.459" cy="16.459" r="16.459" transform="translate(2.756 2.756)" fill="#fff"/>
    <path id="Path_16024" data-name="Path 16024" d="M1762.8,907.856a16.176,16.176,0,1,1-29.43-13.433.451.451,0,0,0-.818-.383,17.079,17.079,0,1,0,31.071,14.185.451.451,0,1,0-.824-.369Z" transform="translate(-1728.814 -882.048)" fill="#361b11" fill-rule="evenodd"/>
    <path id="Path_16025" data-name="Path 16025" d="M1848.416,747.405a16.172,16.172,0,0,1,25.083,13.5.451.451,0,0,0,.9,0,17.075,17.075,0,0,0-26.484-14.251.452.452,0,0,0,.5.753Z" transform="translate(-1838.107 -741.685)" fill="#361b11" fill-rule="evenodd"/>
    <circle id="Ellipse_59" data-name="Ellipse 59" cx="13.589" cy="13.589" r="13.589" transform="translate(0 19.218) rotate(-45)" fill="#fff"/>
    <circle id="Ellipse_60" data-name="Ellipse 60" cx="10.553" cy="10.553" r="10.553" transform="translate(4.294 19.218) rotate(-45)" fill="rgba(242,112,67,0.25)"/>
    <circle id="Ellipse_61" data-name="Ellipse 61" cx="7.517" cy="7.517" r="7.517" transform="translate(8.587 19.218) rotate(-45)" fill="#fff"/>
    <path id="Path_16026" data-name="Path 16026" d="M1927.915,945.267a4.48,4.48,0,1,0,4.481-4.481A4.48,4.48,0,0,0,1927.915,945.267Z" transform="translate(-1913.177 -926.049)" fill="rgba(242,112,67,0.25)"/>
    <path id="Path_16027" data-name="Path 16027" d="M1976.828,988.259a1.445,1.445,0,1,1-1.445,1.444A1.444,1.444,0,0,1,1976.828,988.259Z" transform="translate(-1957.61 -970.486)" fill="#fff" fill-rule="evenodd"/>
    <rect id="Rectangle_3370" data-name="Rectangle 3370" width="21.831" height="0.956" transform="translate(19.218 18.78)" fill="#f27043"/>
    <path id="Path_16028" data-name="Path 16028" d="M2243.118,955.6l2-2.668c.263-.351.119-.638-.319-.638h-4.979a1.8,1.8,0,0,0-1.274.638l-2,2.668Z" transform="translate(-2202.07 -936.823)" fill="#f27043"/>
    <path id="Path_16029" data-name="Path 16029" d="M2243.118,1018.941l2,2.669c.263.35.119.638-.319.638h-4.979a1.8,1.8,0,0,1-1.274-.638l-2-2.669Z" transform="translate(-2202.07 -999.205)" fill="#f27043"/>
  </g>
</svg>
