<svg xmlns="http://www.w3.org/2000/svg" width="20.004" height="20.763" viewBox="0 0 20.004 20.763">
  <g id="Path_17448" data-name="Path 17448" transform="translate(-18770 -8749.989)" fill="none">
    <path d="M18777,8770.752h-6a1,1,0,0,1-1-1v-12.309a1,1,0,0,1,.436-.825c.037-.032.068-.059.1-.08l8.885-6.361a1.006,1.006,0,0,1,.586-.187,1,1,0,0,1,.584.188l8.879,6.361a.682.682,0,0,1,.055.042l.012.009.02.016a1,1,0,0,1,.451.839v12.309a1,1,0,0,1-1,1h-6v-7a3,3,0,1,0-6,0v7Z" stroke="none"/>
    <path d="M 18789.00390625 8769.751953125 L 18789.00390625 8757.4404296875 L 18788.96484375 8757.4150390625 L 18788.880859375 8757.34765625 L 18780.001953125 8750.9892578125 C 18780.001953125 8750.9892578125 18780 8750.990234375 18779.99609375 8750.9921875 L 18771.125 8757.34375 C 18771.115234375 8757.3525390625 18771.103515625 8757.3623046875 18771.091796875 8757.373046875 L 18771.044921875 8757.4130859375 L 18771 8757.443359375 L 18771 8769.7509765625 L 18776.00390625 8769.751953125 L 18776.00390625 8763.7490234375 C 18776.00390625 8761.54296875 18777.796875 8759.7490234375 18780.001953125 8759.7490234375 C 18782.20703125 8759.7490234375 18784.001953125 8761.54296875 18784.001953125 8763.7490234375 L 18784.001953125 8769.7509765625 L 18789.00390625 8769.751953125 M 18777.00390625 8770.751953125 L 18771 8770.7509765625 C 18770.44921875 8770.7509765625 18770 8770.302734375 18770 8769.751953125 L 18770 8757.443359375 C 18770 8757.1103515625 18770.1640625 8756.8017578125 18770.435546875 8756.6181640625 C 18770.47265625 8756.5859375 18770.50390625 8756.5595703125 18770.533203125 8756.5380859375 L 18779.41796875 8750.1767578125 C 18779.591796875 8750.0537109375 18779.79296875 8749.9892578125 18780.00390625 8749.9892578125 C 18780.21484375 8749.9892578125 18780.416015625 8750.0537109375 18780.587890625 8750.1767578125 L 18789.466796875 8756.5380859375 C 18789.484375 8756.55078125 18789.50390625 8756.564453125 18789.521484375 8756.580078125 L 18789.552734375 8756.6044921875 C 18789.833984375 8756.7890625 18790.00390625 8757.1025390625 18790.00390625 8757.443359375 L 18790.00390625 8769.751953125 C 18790.00390625 8770.302734375 18789.5546875 8770.7509765625 18789.005859375 8770.7509765625 L 18783.001953125 8770.7509765625 L 18783.001953125 8763.7490234375 C 18783.001953125 8762.0947265625 18781.65625 8760.7490234375 18780.001953125 8760.7490234375 C 18778.34765625 8760.7490234375 18777.00390625 8762.0947265625 18777.00390625 8763.7490234375 L 18777.00390625 8770.751953125 Z" stroke="none" fill="#707070"/>
  </g>
</svg>
