<svg id="Group_13900" data-name="Group 13900" xmlns="http://www.w3.org/2000/svg" width="24.055" height="24.055" viewBox="0 0 24.055 24.055">
  <path id="Path_576" data-name="Path 576" d="M16.538,0H7.517A7.518,7.518,0,0,0,0,7.517v9.021a7.518,7.518,0,0,0,7.517,7.517h9.021a7.518,7.518,0,0,0,7.517-7.517V7.517A7.518,7.518,0,0,0,16.538,0ZM21.8,16.538A5.268,5.268,0,0,1,16.538,21.8H7.517a5.268,5.268,0,0,1-5.262-5.262V7.517A5.268,5.268,0,0,1,7.517,2.255h9.021A5.268,5.268,0,0,1,21.8,7.517Z"/>
  <path id="Path_577" data-name="Path 577" d="M134.014,128a6.014,6.014,0,1,0,6.014,6.014A6.014,6.014,0,0,0,134.014,128Zm0,9.772a3.759,3.759,0,1,1,3.759-3.759A3.764,3.764,0,0,1,134.014,137.772Z" transform="translate(-121.986 -121.986)"/>
  <circle id="Ellipse_29" data-name="Ellipse 29" cx="0.801" cy="0.801" r="0.801" transform="translate(17.691 4.761)"/>
</svg>
