<svg xmlns="http://www.w3.org/2000/svg" width="26.26" height="22.014" viewBox="0 0 26.26 22.014">
  <g id="Group_13708" data-name="Group 13708" transform="translate(-32.051 -443.001)">
    <g id="Path_17482" data-name="Path 17482" transform="translate(32.051 443.001)" fill="none">
      <path d="M21.567,18.4H12.138c-1.113,0-2.014-1.256-2.014-2.808V14.055H4.69L0,19.268V2.808C0,1.254.9,0,2.016,0h12.1c1.113,0,2.014,1.254,2.014,2.808V4.348h8.108c1.116,0,2.024,1.262,2.024,2.814V22.014Z" stroke="none"/>
      <path d="M 24.75976371765137 18.96804618835449 L 24.75976371765137 7.16197681427002 C 24.75976371765137 6.325606822967529 24.35830307006836 5.875786781311035 24.23543357849121 5.847656726837158 L 14.62730312347412 5.847656726837158 L 14.62730312347412 2.808416843414307 C 14.62730312347412 1.983161449432373 14.23789215087891 1.533720254898071 14.11076259613037 1.499996662139893 L 2.019842863082886 1.499646782875061 C 1.894532799720764 1.527346849441528 1.500002861022949 1.973736763000488 1.500002861022949 2.808416843414307 L 1.500002861022949 15.35825157165527 L 4.0220627784729 12.55535697937012 L 11.6243724822998 12.55535697937012 L 11.6243724822998 15.59607696533203 C 11.6243724822998 16.42000579833984 12.01386165618896 16.87018585205078 12.1411714553833 16.90448760986328 L 22.0770320892334 16.90448760986328 L 24.75976371765137 18.96804618835449 M 26.25976371765137 22.01425743103027 L 21.56686210632324 18.40448760986328 L 12.13793277740479 18.40448760986328 C 11.02468299865723 18.40448760986328 10.1243724822998 17.14859771728516 10.1243724822998 15.59607696533203 L 10.1243724822998 14.05535697937012 L 4.690202713012695 14.05535697937012 L 2.812500042637112e-06 19.26782608032227 L 2.812500042637112e-06 2.808416843414307 C 2.812500042637112e-06 1.254416823387146 0.9003028273582458 -3.191833457094617e-06 2.016252756118774 -3.191833457094617e-06 L 14.1137523651123 -3.191833457094617e-06 C 15.22700309753418 -3.191833457094617e-06 16.1273021697998 1.254416823387146 16.1273021697998 2.808416843414307 L 16.1273021697998 4.347656726837158 L 24.23543357849121 4.347656726837158 C 25.35138320922852 4.347656726837158 26.25976371765137 5.609447002410889 26.25976371765137 7.16197681427002 L 26.25976371765137 22.01425743103027 Z" stroke="none" fill="#f27043"/>
    </g>
    <path id="Path_17478" data-name="Path 17478" d="M-2.951-12.6h1.3L1.073-5.108H-.1L-.623-6.532H-3.978l-.514,1.423H-5.674Zm-.615,4.955h2.531L-2.3-11.123Z" transform="translate(41.392 459.16)" fill="#f27043"/>
    <path id="Path_17480" data-name="Path 17480" d="M3.262-3.367a1.867,1.867,0,0,0-.086-.562,1.352,1.352,0,0,0-.265-.482,1.3,1.3,0,0,0-.458-.335,1.617,1.617,0,0,0-.669-.126,1.679,1.679,0,0,0-.592.1,1.473,1.473,0,0,0-.46.27,1.568,1.568,0,0,0-.327.4,1.63,1.63,0,0,0-.185.485q.011.1.019.2t.008.2a3.43,3.43,0,0,1-.1.825,3.647,3.647,0,0,1-.278.76,3.746,3.746,0,0,1-.423.664,3.555,3.555,0,0,1-.533.541L-2.023-1.45a4.067,4.067,0,0,0,.289-.324,2.437,2.437,0,0,0,.26-.4,2.434,2.434,0,0,0,.187-.479,2.1,2.1,0,0,0,.072-.565,1.985,1.985,0,0,0-.091-.589,1.635,1.635,0,0,0-.278-.533,1.426,1.426,0,0,0-.471-.386,1.447,1.447,0,0,0-.675-.147,1.447,1.447,0,0,0-.675.147,1.426,1.426,0,0,0-.471.386,1.635,1.635,0,0,0-.278.533,1.985,1.985,0,0,0-.091.589,2.1,2.1,0,0,0,.072.565,2.434,2.434,0,0,0,.187.479,2.436,2.436,0,0,0,.26.4,4.067,4.067,0,0,0,.289.324L-4.374-.433a3.555,3.555,0,0,1-.533-.541,3.746,3.746,0,0,1-.423-.664,3.647,3.647,0,0,1-.278-.76,3.43,3.43,0,0,1-.1-.825,3.013,3.013,0,0,1,.22-1.159,2.778,2.778,0,0,1,.613-.924,2.829,2.829,0,0,1,.94-.613,3.168,3.168,0,0,1,1.2-.222,3.093,3.093,0,0,1,1.288.262,2.863,2.863,0,0,1,.983.717,2.733,2.733,0,0,1,.953-.717,3.042,3.042,0,0,1,1.29-.262,3.416,3.416,0,0,1,1.183.2A2.723,2.723,0,0,1,3.9-5.38a2.537,2.537,0,0,1,.608.873,2.867,2.867,0,0,1,.217,1.135,3.237,3.237,0,0,1-.217,1.2,2.8,2.8,0,0,1-.6.94,2.693,2.693,0,0,1-.916.61A3.026,3.026,0,0,1,1.832-.4a2.445,2.445,0,0,1-.447-.037,3.131,3.131,0,0,1-.34-.08,1.687,1.687,0,0,1-.3-.123l.4-1.173a1.888,1.888,0,0,0,.214.075q.1.027.217.048a1.42,1.42,0,0,0,.249.021,1.344,1.344,0,0,0,.557-.118,1.33,1.33,0,0,0,.458-.34,1.639,1.639,0,0,0,.308-.535A2.074,2.074,0,0,0,3.262-3.367Z" transform="translate(51.889 457.948)" fill="#f27043"/>
    <path id="Path_17481" data-name="Path 17481" d="M-.279,8.883,4.22.295" transform="translate(43.171 447.682)" fill="#f27043" stroke="#f27043" stroke-width="1.5"/>
  </g>
</svg>
