<svg xmlns="http://www.w3.org/2000/svg" width="18.25" height="19" viewBox="0 0 18.25 19">
  <g id="Group_13694" data-name="Group 13694" transform="translate(-317 -809.752)">
    <g id="Group_13691" data-name="Group 13691" transform="translate(241 35.752)">
      <g id="Path_17441" data-name="Path 17441" transform="translate(76 774)" fill="#fff">
        <path d="M 1.5 2.5 C 0.9485999941825867 2.5 0.5 2.051399946212769 0.5 1.5 C 0.5 0.9485999941825867 0.9485999941825867 0.5 1.5 0.5 C 2.051399946212769 0.5 2.5 0.9485999941825867 2.5 1.5 C 2.5 2.051399946212769 2.051399946212769 2.5 1.5 2.5 Z" stroke="none"/>
        <path d="M 1.5 1 C 1.224300026893616 1 1 1.224300026893616 1 1.5 C 1 1.775699973106384 1.224300026893616 2 1.5 2 C 1.775699973106384 2 2 1.775699973106384 2 1.5 C 2 1.224300026893616 1.775699973106384 1 1.5 1 M 1.5 0 C 2.328429937362671 0 3 0.6715700626373291 3 1.5 C 3 2.328429937362671 2.328429937362671 3 1.5 3 C 0.6715700626373291 3 0 2.328429937362671 0 1.5 C 0 0.6715700626373291 0.6715700626373291 0 1.5 0 Z" stroke="none" fill="#707070"/>
      </g>
      <path id="Path_17440" data-name="Path 17440" d="M0,0H12" transform="translate(81.5 775.5)" fill="none" stroke="#707070" stroke-linecap="round" stroke-width="1.5"/>
    </g>
    <g id="Group_13692" data-name="Group 13692" transform="translate(241 43.752)">
      <g id="Path_17441-2" data-name="Path 17441" transform="translate(76 774)" fill="#fff">
        <path d="M 1.5 2.5 C 0.9485999941825867 2.5 0.5 2.051399946212769 0.5 1.5 C 0.5 0.9485999941825867 0.9485999941825867 0.5 1.5 0.5 C 2.051399946212769 0.5 2.5 0.9485999941825867 2.5 1.5 C 2.5 2.051399946212769 2.051399946212769 2.5 1.5 2.5 Z" stroke="none"/>
        <path d="M 1.5 1 C 1.224300026893616 1 1 1.224300026893616 1 1.5 C 1 1.775699973106384 1.224300026893616 2 1.5 2 C 1.775699973106384 2 2 1.775699973106384 2 1.5 C 2 1.224300026893616 1.775699973106384 1 1.5 1 M 1.5 0 C 2.328429937362671 0 3 0.6715700626373291 3 1.5 C 3 2.328429937362671 2.328429937362671 3 1.5 3 C 0.6715700626373291 3 0 2.328429937362671 0 1.5 C 0 0.6715700626373291 0.6715700626373291 0 1.5 0 Z" stroke="none" fill="#707070"/>
      </g>
      <path id="Path_17440-2" data-name="Path 17440" d="M0,0H12" transform="translate(81.5 775.5)" fill="none" stroke="#707070" stroke-linecap="round" stroke-width="1.5"/>
    </g>
    <g id="Group_13693" data-name="Group 13693" transform="translate(241 51.752)">
      <g id="Path_17441-3" data-name="Path 17441" transform="translate(76 774)" fill="#fff">
        <path d="M 1.5 2.5 C 0.9485999941825867 2.5 0.5 2.051399946212769 0.5 1.5 C 0.5 0.9485999941825867 0.9485999941825867 0.5 1.5 0.5 C 2.051399946212769 0.5 2.5 0.9485999941825867 2.5 1.5 C 2.5 2.051399946212769 2.051399946212769 2.5 1.5 2.5 Z" stroke="none"/>
        <path d="M 1.5 1 C 1.224300026893616 1 1 1.224300026893616 1 1.5 C 1 1.775699973106384 1.224300026893616 2 1.5 2 C 1.775699973106384 2 2 1.775699973106384 2 1.5 C 2 1.224300026893616 1.775699973106384 1 1.5 1 M 1.5 0 C 2.328429937362671 0 3 0.6715700626373291 3 1.5 C 3 2.328429937362671 2.328429937362671 3 1.5 3 C 0.6715700626373291 3 0 2.328429937362671 0 1.5 C 0 0.6715700626373291 0.6715700626373291 0 1.5 0 Z" stroke="none" fill="#707070"/>
      </g>
      <path id="Path_17440-3" data-name="Path 17440" d="M0,0H12" transform="translate(81.5 775.5)" fill="none" stroke="#707070" stroke-linecap="round" stroke-width="1.5"/>
    </g>
  </g>
</svg>
