<svg xmlns="http://www.w3.org/2000/svg" width="30.3" height="25.896" viewBox="0 0 30.3 25.896">
  <g id="money_4_" data-name="money (4)" opacity="0.71" style="mix-blend-mode: luminosity;isolation: isolate">
    <path id="Path_586" data-name="Path 586" d="M7.5,185.286H36.913v16.689H7.5Z" transform="translate(-7.056 -176.523)" fill="#71e4bf"/>
    <path id="Path_587" data-name="Path 587" d="M63.362,217.683v8.344a2.19,2.19,0,0,0-2.19,2.19c0,.07,0,.139.01.207H39.68c.007-.068.01-.137.01-.207a2.19,2.19,0,0,0-2.19-2.19v-8.344a2.19,2.19,0,0,0,2.19-2.19c0-.07,0-.139-.01-.207h21.5c-.007.068-.01.137-.01.207A2.19,2.19,0,0,0,63.362,217.683Z" transform="translate(-35.281 -204.748)" fill="#e1fd9e"/>
    <path id="Path_588" data-name="Path 588" d="M248.2,112.217l-2.2-3.663a2.19,2.19,0,0,1-3-.751c-.036-.06-.069-.121-.1-.183l-7.658,4.6H248.2Z" transform="translate(-221.323 -103.454)" fill="#71e4bf"/>
    <path id="Path_589" data-name="Path 589" d="M195.43,55.659,190.536,47.5l-13.585,8.154Z" transform="translate(-166.479 -46.896)" fill="#71e4bf"/>
    <circle id="Ellipse_29" data-name="Ellipse 29" cx="4.675" cy="4.675" r="4.675" transform="translate(10.475 12.432)" fill="#91eacd"/>
    <path id="Path_590" data-name="Path 590" d="M7.5,185.286H8.684v16.689H7.5Z" transform="translate(-7.056 -176.523)" fill="#5fa6b0"/>
    <path id="Path_591" data-name="Path 591" d="M38.684,226.027v-8.344a2.19,2.19,0,0,0,2.19-2.19c0-.07,0-.139-.01-.207H39.68c.007.068.01.137.01.207a2.19,2.19,0,0,1-2.19,2.19v8.344a2.19,2.19,0,0,1,2.19,2.19c0,.07,0,.139-.01.207h1.184c.007-.068.01-.137.01-.207A2.19,2.19,0,0,0,38.684,226.027Z" transform="translate(-35.281 -204.748)" fill="#8ae897"/>
    <g id="Group_1069" data-name="Group 1069" transform="translate(13.922 4.167)">
      <g id="Group_1068" data-name="Group 1068">
        <g id="Group_1066" data-name="Group 1066" transform="translate(10.226 0.933)">
          <path id="Path_592" data-name="Path 592" d="M408.763,123.7l-.185-.308a2.191,2.191,0,0,1-.534.23A2.2,2.2,0,0,0,408.763,123.7Z" transform="translate(-408.044 -123.391)" fill="#5fa6b0"/>
        </g>
        <g id="Group_1067" data-name="Group 1067">
          <path id="Path_593" data-name="Path 593" d="M243,107.8c-.036-.06-.069-.121-.1-.183l-7.658,4.6h1.184l6.811-4.088A2.2,2.2,0,0,1,243,107.8Z" transform="translate(-235.245 -107.62)" fill="#5fa6b0"/>
        </g>
      </g>
    </g>
    <path id="Path_594" data-name="Path 594" d="M190.536,47.5l-13.585,8.154h1.184l12.715-7.632Z" transform="translate(-166.479 -46.896)" fill="#5fa6b0"/>
    <path id="Path_595" data-name="Path 595" d="M178.184,251.961a4.675,4.675,0,0,1,4.083-4.637,4.675,4.675,0,1,0,0,9.273A4.675,4.675,0,0,1,178.184,251.961Z" transform="translate(-166.525 -234.854)" fill="#5fa6b0"/>
    <g id="Group_1072" data-name="Group 1072" transform="translate(5.83 16.663)">
      <g id="Group_1070" data-name="Group 1070" transform="translate(17.754)">
        <path id="Path_596" data-name="Path 596" d="M398.509,318.786h.888v.888h-.888Z" transform="translate(-398.509 -318.786)"/>
      </g>
      <g id="Group_1071" data-name="Group 1071">
        <path id="Path_597" data-name="Path 597" d="M98.509,318.786H99.4v.888h-.888Z" transform="translate(-98.509 -318.786)"/>
      </g>
    </g>
    <path id="Path_598" data-name="Path 598" d="M169.5,244.905a5.119,5.119,0,1,0,5.119-5.119A5.125,5.125,0,0,0,169.5,244.905Zm9.35,0a4.231,4.231,0,1,1-4.231-4.231A4.236,4.236,0,0,1,178.85,244.905Z" transform="translate(-159.469 -227.798)"/>
    <path id="Path_599" data-name="Path 599" d="M226.6,267.764v.322a1.824,1.824,0,0,0-1.377,1.766v.222a1.6,1.6,0,0,0,1.377,1.581v1.768a.934.934,0,0,1-.49-.821v-.016h-.888v.016a1.824,1.824,0,0,0,1.377,1.766v.322h.888v-.322a1.824,1.824,0,0,0,1.377-1.766v-.222a1.6,1.6,0,0,0-1.377-1.581v-1.768a.934.934,0,0,1,.49.821v.016h.888v-.016a1.824,1.824,0,0,0-1.377-1.766v-.322Zm0,2.984a.71.71,0,0,1-.49-.674v-.222a.934.934,0,0,1,.49-.821Zm1.377,1.632v.222a.934.934,0,0,1-.49.821v-1.717A.71.71,0,0,1,227.982,272.38Z" transform="translate(-211.898 -254.12)"/>
    <path id="Path_600" data-name="Path 600" d="M0,177.785v17.577H4.941v-.888H.888v-15.8H29.413v15.8H5.829v.888H30.3V177.785Z" transform="translate(0 -169.466)"/>
    <path id="Path_601" data-name="Path 601" d="M32.135,221.811H54.614l-.047-.486c-.005-.055-.008-.111-.008-.165a1.748,1.748,0,0,1,1.746-1.746h.444v-9.232h-.444a1.748,1.748,0,0,1-1.746-1.746c0-.054,0-.109.008-.165l.047-.486h-4.6v.888h3.667a2.639,2.639,0,0,0,2.179,2.359v7.532a2.639,2.639,0,0,0-2.179,2.359H33.067a2.639,2.639,0,0,0-2.179-2.359v-7.532a2.639,2.639,0,0,0,2.179-2.359H49.128v-.888H32.135l.047.486c.005.056.008.111.008.165a1.748,1.748,0,0,1-1.746,1.746H30v9.232h.444a1.748,1.748,0,0,1,1.746,1.746c0,.054,0,.109-.008.165Z" transform="translate(-28.225 -197.691)"/>
    <path id="Path_602" data-name="Path 602" d="M287.85,98.316a1.735,1.735,0,0,1-1.074-.8c-.028-.046-.054-.095-.078-.144l-.21-.441-5.118,3.073.457.761,4.319-2.593a2.636,2.636,0,0,0,3.083.9l.923,1.538.761-.457-1.361-2.268-.381.228A1.733,1.733,0,0,1,287.85,98.316Z" transform="translate(-264.718 -93.4)"/>
    <path id="Path_603" data-name="Path 603" d="M238.134,43.974l-4.057-6.759L223.07,43.822l.457.761,10.246-6.15,3.6,6Z" transform="translate(-209.869 -37.215)"/>
  </g>
</svg>
