<svg xmlns="http://www.w3.org/2000/svg" width="25" height="25" viewBox="0 0 25 25">
  <g id="Group_13702" data-name="Group 13702" transform="translate(-214 -768)">
    <g id="Path_17447" data-name="Path 17447" transform="translate(214 768)" fill="none">
      <path d="M5,0H20a5,5,0,0,1,5,5V20a5,5,0,0,1-5,5H5a5,5,0,0,1-5-5V5A5,5,0,0,1,5,0Z" stroke="none"/>
      <path d="M 5.000003814697266 0.9999980926513672 C 2.794393539428711 0.9999980926513672 1.000003814697266 2.794389724731445 1.000003814697266 4.999998092651367 L 1.000003814697266 20 C 1.000003814697266 22.20560836791992 2.794393539428711 24 5.000003814697266 24 L 20.00000381469727 24 C 22.20561408996582 24 24.00000381469727 22.20560836791992 24.00000381469727 20 L 24.00000381469727 4.999998092651367 C 24.00000381469727 2.794389724731445 22.20561408996582 0.9999980926513672 20.00000381469727 0.9999980926513672 L 5.000003814697266 0.9999980926513672 M 5.000003814697266 -1.9073486328125e-06 L 20.00000381469727 -1.9073486328125e-06 C 22.76142311096191 -1.9073486328125e-06 25.00000381469727 2.238578796386719 25.00000381469727 4.999998092651367 L 25.00000381469727 20 C 25.00000381469727 22.76141929626465 22.76142311096191 25 20.00000381469727 25 L 5.000003814697266 25 C 2.23857307434082 25 3.814697265625e-06 22.76141929626465 3.814697265625e-06 20 L 3.814697265625e-06 4.999998092651367 C 3.814697265625e-06 2.238578796386719 2.23857307434082 -1.9073486328125e-06 5.000003814697266 -1.9073486328125e-06 Z" stroke="none" fill="#000"/>
    </g>
    <g id="Path_17446" data-name="Path 17446" transform="translate(218.595 771.88)" fill="none">
      <path d="M1.317,0H14.492a1.242,1.242,0,0,1,1.317,1.149v4.6a1.242,1.242,0,0,1-1.317,1.149H1.317A1.242,1.242,0,0,1,0,5.744v-4.6A1.242,1.242,0,0,1,1.317,0Z" stroke="none"/>
      <path d="M 1.317419052124023 1.000003337860107 C 1.105798721313477 1.000003337860107 0.9999990463256836 1.120443344116211 0.9999990463256836 1.148873329162598 L 0.9999990463256836 5.744353294372559 C 0.9999990463256836 5.772783279418945 1.105798721313477 5.893223285675049 1.317419052124023 5.893223285675049 L 14.49161911010742 5.893223285675049 C 14.70323944091797 5.893223285675049 14.80903911590576 5.772783279418945 14.80903911590576 5.744353294372559 L 14.80903911590576 1.148873329162598 C 14.80903911590576 1.120443344116211 14.70323944091797 1.000003337860107 14.49161911010742 1.000003337860107 L 1.317419052124023 1.000003337860107 M 1.317419052124023 3.337860107421875e-06 L 14.49161911010742 3.337860107421875e-06 C 15.21920871734619 3.337860107421875e-06 15.80903911590576 0.5143632888793945 15.80903911590576 1.148873329162598 L 15.80903911590576 5.744353294372559 C 15.80903911590576 6.378863334655762 15.21920871734619 6.893223285675049 14.49161911010742 6.893223285675049 L 1.317419052124023 6.893223285675049 C 0.5898294448852539 6.893223285675049 -9.5367431640625e-07 6.378863334655762 -9.5367431640625e-07 5.744353294372559 L -9.5367431640625e-07 1.148873329162598 C -9.5367431640625e-07 0.5143632888793945 0.5898294448852539 3.337860107421875e-06 1.317419052124023 3.337860107421875e-06 Z" stroke="none" fill="#000"/>
    </g>
    <path id="Path_17445" data-name="Path 17445" d="M0,0H14.66" transform="translate(219.17 783)" fill="none" stroke="#000" stroke-linecap="round" stroke-width="1"/>
    <path id="Path_17444" data-name="Path 17444" d="M0,0H14.66" transform="translate(219.17 786.75)" fill="none" stroke="#000" stroke-linecap="round" stroke-width="1"/>
  </g>
</svg>
