<svg xmlns="http://www.w3.org/2000/svg" width="26.684" height="17.163" viewBox="0 0 26.684 17.163">
  <g id="Group_16714" data-name="Group 16714" transform="translate(-65.316 -157)">
    <g id="Path_17506" data-name="Path 17506" transform="translate(74 157)" fill="#f27043">
      <path d="M 15.87571334838867 16.53808212280273 L -2.209829807281494 16.53808212280273 L -7.914680957794189 8.408381462097168 L -2.217704057693481 0.6250029802322388 L 15.87571334838867 0.6250029802322388 C 16.68841361999512 0.6250029802322388 17.37500381469727 1.579792976379395 17.37500381469727 2.709963083267212 L 17.37500381469727 14.45312309265137 C 17.37500381469727 15.58329296112061 16.68841361999512 16.53808212280273 15.87571334838867 16.53808212280273 Z" stroke="none"/>
      <path d="M -1.900638580322266 1.250002861022949 L -7.145763397216797 8.416048049926758 L -1.884872436523438 15.91308307647705 L 15.87571334838867 15.91308307647705 C 16.28842353820801 15.91308307647705 16.75000381469727 15.28872299194336 16.75000381469727 14.45312309265137 L 16.75000381469727 2.709962844848633 C 16.75000381469727 1.874362945556641 16.28842353820801 1.250002861022949 15.87571334838867 1.250002861022949 L -1.900638580322266 1.250002861022949 M -2.53477668762207 3.814697265625e-06 L 15.87571334838867 3.814697265625e-06 C 17.04892349243164 3.814697265625e-06 18.00000381469727 1.213293075561523 18.00000381469727 2.709962844848633 L 18.00000381469727 14.45312309265137 C 18.00000381469727 15.94979286193848 17.04892349243164 17.16308212280273 15.87571334838867 17.16308212280273 L -2.53477668762207 17.16308212280273 L -8.683597564697266 8.400703430175781 L -2.53477668762207 3.814697265625e-06 Z" stroke="none" fill="#000"/>
    </g>
    <path id="Icon_awesome-star" data-name="Icon awesome-star" d="M5.9.332,4.681,2.8l-2.728.4a.6.6,0,0,0-.331,1.02L3.6,6.144,3.129,8.861A.6.6,0,0,0,4,9.491l2.44-1.283,2.44,1.283a.6.6,0,0,0,.866-.629L9.276,6.144,11.25,4.221A.6.6,0,0,0,10.92,3.2L8.191,2.8,6.972.332A.6.6,0,0,0,5.9.332Z" transform="translate(74.564 160.802)"/>
  </g>
</svg>
