<svg xmlns="http://www.w3.org/2000/svg" width="24" height="24" viewBox="0 0 24 24">
  <g id="Group_13703" data-name="Group 13703" transform="translate(-141 -424)">
    <g id="Path_17464" data-name="Path 17464" transform="translate(141 424)" fill="#fff">
      <path d="M 8.832400321960449 23.49991989135742 L 1.571599960327148 23.49875068664551 L 1.571599960327148 9.428099632263184 L 1.582319974899292 9.320899963378906 L 1.604320049285889 9.100850105285645 L 1.45632004737854 8.936530113220215 C 0.8396300077438354 8.251819610595703 0.5 7.366610050201416 0.5 6.443960189819336 C 0.5 5.794320106506348 0.6688899993896484 5.155660152435303 0.9884200096130371 4.597030162811279 L 1.012099981307983 4.555630207061768 L 1.027529954910278 4.510489940643311 L 2.398284435272217 0.5 L 21.67726898193359 0.5 L 23.22319984436035 5.029860019683838 L 23.22764015197754 5.042880058288574 L 23.2327995300293 5.05564022064209 C 23.41010093688965 5.494569778442383 23.5 5.961669921875 23.5 6.443960189819336 C 23.5 7.355810165405273 23.16758918762207 8.232629776000977 22.56399917602539 8.912899971008301 L 22.41913986206055 9.076160430908203 L 22.44037055969238 9.293390274047852 L 22.45359992980957 9.428751945495605 L 22.45359992980957 23.49741554260254 L 15.61040019989014 23.49858474731445 L 15.61040019989014 18.6107006072998 C 15.61040019989014 16.74234008789062 14.09037017822266 15.22231006622314 12.22200012207031 15.22231006622314 C 10.35297012329102 15.22231006622314 8.832400321960449 16.74234008789062 8.832400321960449 18.6107006072998 L 8.832400321960449 23.49991989135742 Z" stroke="none"/>
      <path d="M 8.332400321960449 22.99983978271484 L 8.332400321960449 18.6107006072998 C 8.332400321960449 16.46663093566895 10.07726955413818 14.72231006622314 12.22200012207031 14.72231006622314 C 14.36606979370117 14.72231006622314 16.11039924621582 16.46663093566895 16.11039924621582 18.6107006072998 L 16.11039924621582 22.99849891662598 L 21.95359992980957 22.99750137329102 L 21.95359992980957 9.453133583068848 L 21.9002799987793 8.907580375671387 L 22.18998908996582 8.581060409545898 C 22.71232986450195 7.99236011505127 23 7.233389854431152 23 6.443960189819336 C 23 6.026150226593018 22.92234039306641 5.62205982208252 22.76918983459473 5.242909908294678 L 22.75 5.191349983215332 L 21.31959533691406 1 L 2.755779504776001 1 L 1.469799995422363 4.76246976852417 L 1.422440052032471 4.845280170440674 C 1.146080017089844 5.328450202941895 1 5.881259918212891 1 6.443960189819336 C 1 7.242809772491455 1.294000029563904 8.009189605712891 1.827849984169006 8.601909637451172 L 2.123850107192993 8.930560111999512 L 2.071599960327148 9.453049659729004 L 2.071599960327148 22.99883079528809 L 8.332400321960449 22.99983978271484 M 9.332400321960449 24 L 1.071599960327148 23.99867057800293 L 1.071599960327148 9.403149604797363 L 1.084800004959106 9.271149635314941 C 0.3853699862957001 8.494580268859863 -1.77635683940025e-15 7.49015998840332 -1.77635683940025e-15 6.443960189819336 C -1.77635683940025e-15 5.707379817962646 0.1917099952697754 4.982880115509033 0.5544000267982483 4.348780155181885 L 1.960800051689148 0.2339999973773956 L 1.98360002040863 -1.77635683940025e-15 L 22.04280090332031 -1.77635683940025e-15 L 22.04520034790039 0.0300500001758337 L 23.6963996887207 4.868370056152344 C 23.89784049987793 5.367050170898438 24 5.897180080413818 24 6.443960189819336 C 24 7.478240013122559 23.62284088134766 8.472909927368164 22.9379997253418 9.244750022888184 L 22.95359992980957 9.404359817504883 L 22.95359992980957 23.99732971191406 L 15.11040019989014 23.99867057800293 L 15.11040019989014 18.6107006072998 C 15.11040019989014 17.01803970336914 13.81466960906982 15.72231006622314 12.22200012207031 15.72231006622314 C 10.62866973876953 15.72231006622314 9.332400321960449 17.01803970336914 9.332400321960449 18.6107006072998 L 9.332400321960449 24 Z" stroke="none" fill="#000"/>
    </g>
    <g id="Path_17463" data-name="Path 17463" transform="translate(141 424)" fill="none">
      <path d="M15.989,7.478A4.564,4.564,0,0,1,12,9.6,4.564,4.564,0,0,1,8.011,7.478,4.286,4.286,0,0,1,4.223,9.6,4.027,4.027,0,0,1,0,5.8,3.5,3.5,0,0,1,.558,3.911L2.038,0h20l1.652,4.362A3.461,3.461,0,0,1,24,5.8a4.027,4.027,0,0,1-4.223,3.8A4.286,4.286,0,0,1,15.989,7.478Z" stroke="none"/>
      <path d="M 19.77725028991699 8.600000381469727 C 21.55427932739258 8.600000381469727 23 7.343810558319092 23 5.799740791320801 C 23 5.446080684661865 22.92497062683105 5.101690769195557 22.77697944641113 4.776120662689209 L 22.75213050842285 4.716390609741211 L 21.34510803222656 1.000000715255737 L 2.729150056838989 1.000000715255737 L 1.456249952316284 4.362100601196289 L 1.400720000267029 4.449170589447021 C 1.138569951057434 4.860220432281494 1 5.327240467071533 1 5.799740791320801 C 1 7.343810558319092 2.445719957351685 8.600000381469727 4.222750186920166 8.600000381469727 C 5.458459854125977 8.600000381469727 6.601309776306152 7.971010684967041 7.134290218353271 6.997570514678955 L 7.988979816436768 5.436550617218018 L 8.877779960632324 6.978410720825195 C 9.445630073547363 7.96349048614502 10.67117023468018 8.600000381469727 12 8.600000381469727 C 13.32880973815918 8.600000381469727 14.55434989929199 7.96349048614502 15.12220001220703 6.978410720825195 L 16.01099967956543 5.436550617218018 L 16.86569023132324 6.997570514678955 C 17.3986701965332 7.971010684967041 18.54153060913086 8.600000381469727 19.77725028991699 8.600000381469727 M 19.77725028991699 9.600000381469727 C 18.11491966247559 9.600000381469727 16.67696952819824 8.735140800476074 15.98855972290039 7.477820873260498 C 15.26377964019775 8.735140800476074 13.7499303817749 9.600000381469727 12 9.600000381469727 C 10.25008010864258 9.600000381469727 8.736200332641602 8.735140800476074 8.011420249938965 7.477820873260498 C 7.323009967803955 8.735140800476074 5.885079860687256 9.600000381469727 4.222750186920166 9.600000381469727 C 1.889979958534241 9.600000381469727 -1.77635683940025e-15 7.899200439453125 -1.77635683940025e-15 5.799740791320801 C -1.77635683940025e-15 5.112420558929443 0.2028599977493286 4.467670440673828 0.5576000213623047 3.911450624465942 L 2.038480043411255 6.675720101156912e-07 L 22.03577995300293 6.675720101156912e-07 L 23.68734931945801 4.362320899963379 C 23.88888931274414 4.805710792541504 24 5.291070461273193 24 5.799740791320801 C 24 7.899200439453125 22.11002922058105 9.600000381469727 19.77725028991699 9.600000381469727 Z" stroke="none" fill="#000"/>
    </g>
  </g>
</svg>
