<svg xmlns="http://www.w3.org/2000/svg" width="38" height="30.4" viewBox="0 0 38 30.4">
  <path id="Icon_awesome-tags" data-name="Icon awesome-tags" d="M29.565,13.415,16.985.835A2.85,2.85,0,0,0,14.97,0H2.85A2.85,2.85,0,0,0,0,2.85V14.97a2.85,2.85,0,0,0,.835,2.015L13.415,29.565a2.85,2.85,0,0,0,4.03,0l12.12-12.12a2.85,2.85,0,0,0,0-4.03ZM6.65,9.5A2.85,2.85,0,1,1,9.5,6.65,2.85,2.85,0,0,1,6.65,9.5Zm30.515,7.946-12.12,12.12a2.85,2.85,0,0,1-4.03,0l-.021-.021L31.329,19.209a5.344,5.344,0,0,0,0-7.557L19.677,0H22.57a2.85,2.85,0,0,1,2.015.835L37.165,13.415a2.85,2.85,0,0,1,0,4.03Z" fill="#ff4200"/>
</svg>
