<svg xmlns="http://www.w3.org/2000/svg" width="22.241" height="25.419" viewBox="0 0 22.241 25.419">
  <path id="Icon_metro-clipboard" data-name="Icon metro-clipboard" d="M25.946,5.105H18.8a3.177,3.177,0,1,0-6.355,0H5.293A.794.794,0,0,0,4.5,5.9V26.552a.794.794,0,0,0,.794.794H25.946a.794.794,0,0,0,.794-.794V5.9a.794.794,0,0,0-.794-.794ZM15.619,3.517a1.589,1.589,0,1,1-1.589,1.589A1.589,1.589,0,0,1,15.619,3.517Zm9.532,22.241H6.087V6.694H9.265V9.077a.794.794,0,0,0,.794.794H21.18a.794.794,0,0,0,.794-.794V6.694h3.177ZM14.031,23.239,8.936,17.349,10.388,15.9l3.643,2.848,6.82-6.026L22.3,14.172Z" transform="translate(-4.499 -1.928)"/>
</svg>
