<svg xmlns="http://www.w3.org/2000/svg" width="19.998" height="20" viewBox="0 0 19.998 20">
  <g id="Group_13660" data-name="Group 13660" transform="translate(-297.002 -768)">
    <g id="Ellipse_68" data-name="Ellipse 68" transform="translate(302 768)" fill="none" stroke="#707070" stroke-width="1">
      <circle cx="5" cy="5" r="5" stroke="none"/>
      <circle cx="5" cy="5" r="4.5" fill="none"/>
    </g>
    <g id="Subtraction_2" data-name="Subtraction 2" transform="translate(-18473 -7979)" fill="none">
      <path d="M18790,8767h-20v-3a6.009,6.009,0,0,1,6-6,5,5,0,0,0,8,0h0a6.008,6.008,0,0,1,6,6v3Z" stroke="none"/>
      <path d="M 18789 8766 L 18789 8764.0009765625 C 18789 8761.3955078125 18787 8759.2490234375 18784.45703125 8759.0185546875 C 18783.3203125 8760.283203125 18781.72265625 8760.998046875 18779.998046875 8760.998046875 C 18778.27734375 8760.998046875 18776.681640625 8760.283203125 18775.544921875 8759.0185546875 C 18773.001953125 8759.25 18771.001953125 8761.396484375 18771.001953125 8764.0009765625 L 18771.001953125 8766 L 18789 8766 M 18790 8767 L 18770.001953125 8767 L 18770.001953125 8764.0009765625 C 18770.001953125 8760.6923828125 18772.693359375 8757.9990234375 18776 8757.998046875 C 18776.955078125 8759.26953125 18778.41015625 8759.998046875 18779.998046875 8759.998046875 C 18781.587890625 8759.998046875 18783.046875 8759.26953125 18784.001953125 8757.998046875 C 18787.30859375 8757.998046875 18790 8760.69140625 18790 8764.0009765625 L 18790 8767 Z" stroke="none" fill="#707070"/>
    </g>
  </g>
</svg>
