<svg xmlns="http://www.w3.org/2000/svg" width="25.145" height="25.145" viewBox="0 0 25.145 25.145">
  <path id="Icon_awesome-user-circle" data-name="Icon awesome-user-circle" d="M12.572.563A12.572,12.572,0,1,0,25.145,13.135,12.57,12.57,0,0,0,12.572.563Zm0,4.867A4.461,4.461,0,1,1,8.111,9.89,4.461,4.461,0,0,1,12.572,5.429Zm0,17.439a9.715,9.715,0,0,1-7.427-3.457,5.652,5.652,0,0,1,4.993-3.032,1.24,1.24,0,0,1,.36.056,6.712,6.712,0,0,0,2.073.35,6.687,6.687,0,0,0,2.073-.35,1.24,1.24,0,0,1,.36-.056A5.652,5.652,0,0,1,20,19.411,9.715,9.715,0,0,1,12.572,22.868Z" transform="translate(0 -0.563)" fill="#fff"/>
</svg>
