<svg id="Group_12182" data-name="Group 12182" xmlns="http://www.w3.org/2000/svg" width="27.465" height="43.637" viewBox="0 0 27.465 43.637">
  <path id="Path_16030" data-name="Path 16030" d="M3157.275,1123.158c-.047,2.372-.134,6.812-.134,6.812a2.747,2.747,0,0,0,2.683,2.79l7.113.14a2.745,2.745,0,0,0,2.791-2.683s.087-4.441.134-6.812a10.324,10.324,0,0,1-1.149.41,17.194,17.194,0,0,1-5.167.562A15.63,15.63,0,0,1,3157.275,1123.158Z" transform="translate(-3150.186 -1091.704)" fill="rgba(43,145,0,0.25)"/>
  <path id="Path_16031" data-name="Path 16031" d="M3202.743,1257.713a3.222,3.222,0,0,0,5.967.118Z" transform="translate(-3192.53 -1216.646)" fill="#2b9100"/>
  <path id="Path_16032" data-name="Path 16032" d="M3202.467,1185.441a3.726,3.726,0,0,1-6.749-.447.5.5,0,1,1,.942-.361,2.718,2.718,0,0,0,5.032.1.5.5,0,0,1,.473-.305l.572.011a2.239,2.239,0,0,0,2.276-2.189l.05-2.551a.5.5,0,1,1,1.008.02c-.046,2.372-.05,2.551-.05,2.551a3.25,3.25,0,0,1-3.3,3.177l-.251,0Z" transform="translate(-3185.976 -1143.746)" fill="#081a00" fill-rule="evenodd"/>
  <path id="Path_16033" data-name="Path 16033" d="M3151.934,1125.213a2.234,2.234,0,0,1-.844-1.789s.087-4.44.134-6.812a.5.5,0,1,0-1.008-.02c-.047,2.372-.135,6.812-.135,6.812h0a3.241,3.241,0,0,0,1.223,2.6.5.5,0,0,0,.63-.788Z" transform="translate(-3143.63 -1085.148)" fill="#081a00" fill-rule="evenodd"/>
  <path id="Path_16034" data-name="Path 16034" d="M3066.856,702.912a13.048,13.048,0,0,0,.194,2.528v0q.153.731.343,1.48c1.592,6.137,5.168,12.942,6.046,13.972a18.632,18.632,0,0,0,12.577.249l.009,0c.919-.995,4.76-7.654,6.589-13.725.148-.494.284-.982.4-1.463v0a13.231,13.231,0,0,0-24.886-8.458v0a13.185,13.185,0,0,0-1.274,5.417Z" transform="translate(-3066.349 -689.44)" fill="#fff"/>
  <path id="Path_16035" data-name="Path 16035" d="M3078.683,690.958l-1.007-.036v0a.505.505,0,0,1,.049-.2,13.737,13.737,0,0,1,25.834,8.781l-.123.22.118-.2c-.12.49-.258.987-.408,1.489-1.857,6.161-5.77,12.912-6.7,13.922a.5.5,0,1,1-.741-.684c.906-.98,4.675-7.547,6.477-13.528.145-.485.279-.964.394-1.437l0-.014a12.727,12.727,0,0,0-23.943-8.11l.048-.2Z" transform="translate(-3076.398 -682.884)" fill="#081a00" fill-rule="evenodd"/>
  <path id="Path_16036" data-name="Path 16036" d="M3059.994,867.5a13.594,13.594,0,0,1-.2-2.608.5.5,0,1,1,1.009.02,12.571,12.571,0,0,0,.186,2.43v0c.1.475.21.956.334,1.44,1.568,6.047,5.076,12.757,5.941,13.772a.5.5,0,0,1-.767.654c-.892-1.045-4.535-7.944-6.151-14.174q-.194-.759-.348-1.5c0-.012,0-.024-.006-.036Z" transform="translate(-3059.793 -851.426)" fill="#081a00" fill-rule="evenodd"/>
  <path id="Path_16037" data-name="Path 16037" d="M3188.891,755.019a2.418,2.418,0,0,0,.843-.152,2.387,2.387,0,0,0,1.4-3.072c-.387-1.035-.792-2.061-1.223-3.08s-.9-2.025-1.365-3.031c-.221-.507-.495-1-.741-1.5s-.5-.993-.783-1.48a33.265,33.265,0,0,0-1.763-2.9.808.808,0,0,0-1.471.507,32.829,32.829,0,0,0,.4,3.366c.079.557.186,1.1.3,1.65s.2,1.1.336,1.635c.242,1.022.471,2.05.749,3.061-1.362-.029-2.725-.036-4.088-.007l-.269,0a2.226,2.226,0,0,0-2.033,2.985c.321.881.644,1.763,1.006,2.632s.693,1.749,1.1,2.605c.376.864.779,1.721,1.214,2.57s.879,1.692,1.387,2.517a.8.8,0,0,0,1.49-.444c-.031-.969-.112-1.921-.223-2.867s-.238-1.884-.4-2.814c-.114-.791-.274-1.566-.43-2.344l4.576.151Z" transform="translate(-3170.518 -735.421)" fill="#2b9100"/>
</svg>
