<svg xmlns="http://www.w3.org/2000/svg" width="28" height="16" viewBox="0 0 28 16">
  <g id="Group_13665" data-name="Group 13665" transform="translate(-220 -768)">
    <g id="Path_17439" data-name="Path 17439" transform="translate(220 768)" fill="none">
      <path d="M3,0H18a3,3,0,0,1,3,3V13a3,3,0,0,1-3,3H3a3,3,0,0,1-3-3V3A3,3,0,0,1,3,0Z" stroke="none"/>
      <path d="M 3 1 C 1.897199630737305 1 1 1.897199630737305 1 3 L 1 13 C 1 14.1028003692627 1.897199630737305 15 3 15 L 18 15 C 19.1028003692627 15 20 14.1028003692627 20 13 L 20 3 C 20 1.897199630737305 19.1028003692627 1 18 1 L 3 1 M 3 0 L 18 0 C 19.65685081481934 0 21 1.34315013885498 21 3 L 21 13 C 21 14.65684986114502 19.65685081481934 16 18 16 L 3 16 C 1.343149185180664 16 0 14.65684986114502 0 13 L 0 3 C 0 1.34315013885498 1.343149185180664 0 3 0 Z" stroke="none" fill="#707070"/>
    </g>
    <g id="Path_17429" data-name="Path 17429" transform="translate(242 769)" fill="none">
      <path d="M0,1.541,4,0A2,2,0,0,1,6,2V12a2,2,0,0,1-2,2L0,12.621Z" stroke="none"/>
      <path d="M 4.154827117919922 1.011967658996582 L 1 2.226994514465332 L 1 11.90806770324707 L 4.139424324035645 12.99031352996826 C 4.625048160552979 12.92225456237793 5 12.50408172607422 5 12 L 5 2 C 5 1.501235961914062 4.632987976074219 1.086587905883789 4.154827117919922 1.011967658996582 M 4 0 C 5.104569911956787 0 6 0.8954296112060547 6 2 L 6 12 C 6 13.10457038879395 5.104569911956787 14 4 14 L 0 12.62108993530273 L 0 1.540530204772949 L 4 0 Z" stroke="none" fill="#707070"/>
    </g>
    <g id="Path_17438" data-name="Path 17438" transform="translate(235.5 771.5) rotate(90)" fill="none">
      <path d="M3.628,1.549a1,1,0,0,1,1.743,0l2.79,4.96A1,1,0,0,1,7.29,8H1.71A1,1,0,0,1,.838,6.51Z" stroke="none"/>
      <path d="M 4.499990463256836 2.039718151092529 L 4.500000476837158 2.039727687835693 L 1.709850311279297 6.999998092651367 L 7.29015064239502 6.999998092651367 C 7.290153503417969 6.999998092651367 7.290153503417969 6.999991416931152 7.290160179138184 6.999998092651367 L 4.499990463256836 2.039718151092529 M 4.499999046325684 1.039730548858643 C 4.840210437774658 1.039730548858643 5.180420398712158 1.209642887115479 5.371570587158203 1.549468040466309 L 8.161730766296387 6.509737968444824 C 8.536690711975098 7.176338195800781 8.054980278015137 7.999998092651367 7.29015064239502 7.999998092651367 L 1.709850311279297 7.999998092651367 C 0.9450206756591797 7.999998092651367 0.4633102416992188 7.176338195800781 0.8382701873779297 6.509737968444824 L 3.628420352935791 1.549468040466309 C 3.819575309753418 1.209642887115479 4.159788131713867 1.039730548858643 4.499999046325684 1.039730548858643 Z" stroke="none" fill="#707070"/>
    </g>
  </g>
</svg>
