<svg id="Group_12180" data-name="Group 12180" xmlns="http://www.w3.org/2000/svg" width="44.763" height="31.489" viewBox="0 0 44.763 31.489">
  <path id="Path_16012" data-name="Path 16012" d="M448.446,830.92a23.358,23.358,0,0,1,41.178-5.138l-.01-.016a23.251,23.251,0,0,1,2.669,5.154,23.246,23.246,0,0,1-2.669,5.153l.01-.015a23.359,23.359,0,0,1-41.178-5.138Z" transform="translate(-447.983 -815.175)" fill="#fff"/>
  <path id="Path_16013" data-name="Path 16013" d="M557.538,810.781A15.524,15.524,0,1,0,573.061,826.3a15.523,15.523,0,0,0-15.523-15.524Zm7.591,8.257v14.676H550.456V819.038Z" transform="translate(-535.411 -810.637)" fill="rgba(4,145,164,0.25)"/>
  <path id="Path_16014" data-name="Path 16014" d="M483.4,900.356a23.822,23.822,0,0,1-41.987-5.252.463.463,0,0,1,0-.32,23.848,23.848,0,0,1,7.678-10.527.463.463,0,1,1,.571.729,22.926,22.926,0,0,0-7.32,9.958,22.9,22.9,0,0,0,40.3,4.875.463.463,0,0,1,.766.521l-.01.015Z" transform="translate(-441.387 -879.2)" fill="#00363d" fill-rule="evenodd"/>
  <path id="Path_16015" data-name="Path 16015" d="M709.229,819.462l-.01-.014a22.925,22.925,0,0,0-24.766-9.178.463.463,0,0,1-.238-.9,23.852,23.852,0,0,1,25.743,9.513l.014.02a23.731,23.731,0,0,1,2.722,5.256.463.463,0,0,1-.87.32,22.77,22.77,0,0,0-2.6-5.022Z" transform="translate(-667.96 -808.579)" fill="#00363d" fill-rule="evenodd"/>
  <path id="Path_16016" data-name="Path 16016" d="M663.885,929.843v3.177a.512.512,0,1,1-1.024,0v-3.689a.512.512,0,0,1,.512-.512h3.687a.512.512,0,1,1,0,1.024Z" transform="translate(-648.328 -920.929)" fill="#0491a4" fill-rule="evenodd"/>
  <path id="Path_16017" data-name="Path 16017" d="M833.983,929.843h-3.175a.512.512,0,1,1,0-1.024H834.5a.512.512,0,0,1,.512.512v3.689a.512.512,0,1,1-1.024,0Z" transform="translate(-804.776 -920.929)" fill="#0491a4" fill-rule="evenodd"/>
  <path id="Path_16018" data-name="Path 16018" d="M663.885,1099.957h3.175a.512.512,0,1,1,0,1.024h-3.687a.512.512,0,0,1-.512-.512v-3.688a.512.512,0,0,1,1.024,0v3.176Z" transform="translate(-648.328 -1077.391)" fill="#0491a4" fill-rule="evenodd"/>
  <path id="Path_16019" data-name="Path 16019" d="M833.983,1099.957v-3.176a.512.512,0,0,1,1.024,0v3.688a.512.512,0,0,1-.512.512h-3.687a.512.512,0,1,1,0-1.024Z" transform="translate(-804.776 -1077.391)" fill="#0491a4" fill-rule="evenodd"/>
  <path id="Path_16020" data-name="Path 16020" d="M775.7,900.836v-3.773a.512.512,0,0,0-1.024,0v3.773a.512.512,0,1,0,1.024,0Z" transform="translate(-752.802 -890.778)" fill="#0491a4" fill-rule="evenodd"/>
  <path id="Path_16021" data-name="Path 16021" d="M775.7,1131.528v-3.773a.512.512,0,0,0-1.024,0v3.773a.512.512,0,0,0,1.024,0Z" transform="translate(-752.802 -1106.333)" fill="#0491a4" fill-rule="evenodd"/>
  <path id="Path_16022" data-name="Path 16022" d="M861.787,1041.669h3.773a.512.512,0,0,0,0-1.024h-3.773a.512.512,0,0,0,0,1.024Z" transform="translate(-833.722 -1025.417)" fill="#0491a4" fill-rule="evenodd"/>
  <path id="Path_16023" data-name="Path 16023" d="M631.09,1041.669h3.773a.512.512,0,1,0,0-1.024H631.09a.512.512,0,1,0,0,1.024Z" transform="translate(-618.164 -1025.417)" fill="#0491a4" fill-rule="evenodd"/>
</svg>
