<svg xmlns="http://www.w3.org/2000/svg" width="25.415" height="17.762" viewBox="0 0 25.415 17.762">
  <path id="Icon_simple-youtube" data-name="Icon simple-youtube" d="M24.891,8.167a3.185,3.185,0,0,0-2.212-2.212c-1.981-.531-9.954-.531-9.954-.531s-7.952-.011-9.954.531A3.185,3.185,0,0,0,.56,8.167a33.1,33.1,0,0,0-.553,6.149A33.1,33.1,0,0,0,.56,20.442a3.185,3.185,0,0,0,2.212,2.212c1.979.532,9.954.532,9.954.532s7.951,0,9.954-.532a3.185,3.185,0,0,0,2.212-2.212,33.1,33.1,0,0,0,.53-6.126,33.1,33.1,0,0,0-.53-6.149ZM10.181,18.12V10.5l6.636,3.816Z" transform="translate(-0.007 -5.424)"/>
</svg>
