<svg xmlns="http://www.w3.org/2000/svg" width="21.517" height="13.56" viewBox="0 0 21.517 13.56">
  <g id="Group_16721" data-name="Group 16721" transform="translate(0.706 0.5)">
    <path id="Path_20989" data-name="Path 20989" d="M0,4.543S5.035,0,10.061,0,20.1,4.543,20.1,4.543" transform="translate(0 3.474)" fill="none" stroke="#707070" stroke-linecap="round" stroke-width="1"/>
    <path id="Path_21002" data-name="Path 21002" d="M0,0S5.035,4.543,10.061,4.543,20.1,0,20.1,0" transform="translate(0 8.017)" fill="none" stroke="#707070" stroke-linecap="round" stroke-width="1"/>
    <path id="Path_20996" data-name="Path 20996" d="M0,0,1.4,1.781" transform="translate(0.127 4.963)" fill="none" stroke="#707070" stroke-linecap="round" stroke-width="1"/>
    <path id="Path_20995" data-name="Path 20995" d="M0,0,1.272,2.545" transform="translate(2.928 2.545)" fill="none" stroke="#707070" stroke-linecap="round" stroke-width="1"/>
    <path id="Path_20994" data-name="Path 20994" d="M0,0,.636,3.054" transform="translate(6.361 0.891)" fill="none" stroke="#707070" stroke-linecap="round" stroke-width="1"/>
    <path id="Path_20993" data-name="Path 20993" d="M0,0V3.436" transform="translate(10.051 0)" fill="none" stroke="#707070" stroke-linecap="round" stroke-width="1"/>
    <path id="Path_20990" data-name="Path 20990" d="M.266-1.362l-.6,3.138" transform="translate(13.527 2.215)" fill="none" stroke="#707070" stroke-linecap="round" stroke-width="1"/>
    <path id="Path_20992" data-name="Path 20992" d="M1.145,0,0,2.672" transform="translate(16.033 2.545)" fill="none" stroke="#707070" stroke-linecap="round" stroke-width="1"/>
    <path id="Path_20991" data-name="Path 20991" d="M1.527,0,0,1.909" transform="translate(18.576 4.963)" fill="none" stroke="#707070" stroke-linecap="round" stroke-width="1"/>
    <g id="Path_21003" data-name="Path 21003" transform="translate(5.824 3.313)" fill="#707070">
      <path d="M 4.5 8.5 C 2.294389963150024 8.5 0.5 6.705609798431396 0.5 4.5 C 0.5 2.294389963150024 2.294389963150024 0.5 4.5 0.5 C 6.705609798431396 0.5 8.5 2.294389963150024 8.5 4.5 C 8.5 6.705609798431396 6.705609798431396 8.5 4.5 8.5 Z" stroke="none"/>
      <path d="M 4.5 1 C 2.570089817047119 1 1 2.570089817047119 1 4.5 C 1 6.429909706115723 2.570089817047119 8 4.5 8 C 6.429909706115723 8 8 6.429909706115723 8 4.5 C 8 2.570089817047119 6.429909706115723 1 4.5 1 M 4.5 0 C 6.98528003692627 0 9 2.01471996307373 9 4.5 C 9 6.98528003692627 6.98528003692627 9 4.5 9 C 2.01471996307373 9 0 6.98528003692627 0 4.5 C 0 2.01471996307373 2.01471996307373 0 4.5 0 Z" stroke="none" fill="#707070"/>
    </g>
    <path id="Path_21004" data-name="Path 21004" d="M1.5,0A1.5,1.5,0,1,1,0,1.5,1.5,1.5,0,0,1,1.5,0Z" transform="translate(6.824 4.313)" fill="#fff"/>
  </g>
</svg>
