<svg xmlns="http://www.w3.org/2000/svg" width="21.32" height="21.361" viewBox="0 0 21.32 21.361">
  <path id="Icon_feather-phone" data-name="Icon feather-phone" d="M23.486,18.242v3.065a2.043,2.043,0,0,1-2.227,2.043,20.218,20.218,0,0,1-8.816-3.136,19.921,19.921,0,0,1-6.13-6.13A20.218,20.218,0,0,1,3.176,5.227,2.043,2.043,0,0,1,5.209,3H8.274a2.043,2.043,0,0,1,2.043,1.757,13.117,13.117,0,0,0,.715,2.871,2.043,2.043,0,0,1-.46,2.156l-1.3,1.3a16.346,16.346,0,0,0,6.13,6.13l1.3-1.3a2.043,2.043,0,0,1,2.156-.46,13.117,13.117,0,0,0,2.871.715,2.043,2.043,0,0,1,1.757,2.074Z" transform="translate(-2.667 -2.5)" fill="none" stroke="#707070" stroke-linecap="round" stroke-linejoin="round" stroke-width="1"/>
</svg>
