<?xml version="1.0" encoding="utf-8"?>
<!-- Generator: Adobe Illustrator 16.0.0, SVG Export Plug-In . SVG Version: 6.00 Build 0)  -->
<!DOCTYPE svg PUBLIC "-//W3C//DTD SVG 1.1//EN" "http://www.w3.org/Graphics/SVG/1.1/DTD/svg11.dtd">
<svg version="1.1" xmlns="http://www.w3.org/2000/svg" xmlns:xlink="http://www.w3.org/1999/xlink" x="0px" y="0px" width="500px"
	 height="500px" viewBox="0 0 500 500" enable-background="new 0 0 500 500" xml:space="preserve">
<g id="BACKGROUND">
</g>
<g id="OBJECTS">
	<g>
		<g>
			<path fill="#383838" d="M237.576,325.516c-0.308-0.349-0.718-0.631-1.231-0.847c-0.513-0.216-1.098-0.323-1.754-0.323
				c-0.964,0-1.667,0.183-2.108,0.546c-0.441,0.364-0.662,0.859-0.662,1.485c0,0.328,0.059,0.598,0.177,0.808
				c0.118,0.21,0.3,0.393,0.546,0.546c0.246,0.154,0.562,0.287,0.946,0.4s0.838,0.226,1.362,0.338
				c0.584,0.123,1.11,0.262,1.577,0.416c0.467,0.153,0.864,0.346,1.192,0.577c0.328,0.23,0.58,0.51,0.754,0.838
				c0.174,0.329,0.262,0.738,0.262,1.231c0,0.502-0.098,0.938-0.292,1.308s-0.467,0.677-0.815,0.923s-0.764,0.429-1.246,0.546
				c-0.482,0.118-1.01,0.178-1.584,0.178c-1.693,0-3.154-0.528-4.385-1.585l0.539-0.877c0.195,0.205,0.428,0.399,0.7,0.584
				c0.271,0.186,0.574,0.347,0.908,0.485c0.333,0.139,0.689,0.246,1.069,0.323c0.379,0.076,0.779,0.115,1.2,0.115
				c0.872,0,1.551-0.156,2.039-0.47c0.487-0.313,0.73-0.787,0.73-1.423c0-0.339-0.069-0.623-0.208-0.854
				c-0.139-0.231-0.346-0.432-0.623-0.601s-0.621-0.315-1.031-0.438c-0.411-0.123-0.888-0.246-1.431-0.369
				c-0.574-0.133-1.077-0.271-1.508-0.415c-0.431-0.144-0.795-0.323-1.092-0.539c-0.297-0.215-0.521-0.475-0.669-0.776
				c-0.148-0.303-0.223-0.675-0.223-1.116c0-0.502,0.095-0.951,0.284-1.346c0.19-0.395,0.459-0.724,0.808-0.985
				c0.349-0.261,0.759-0.461,1.23-0.6s0.995-0.208,1.569-0.208c0.729,0,1.377,0.11,1.946,0.331c0.569,0.221,1.085,0.531,1.546,0.931
				L237.576,325.516z"/>
			<path fill="#383838" d="M243.73,334.547c-0.584,0-1.118-0.11-1.6-0.331s-0.9-0.521-1.254-0.9
				c-0.354-0.379-0.628-0.82-0.823-1.323c-0.195-0.502-0.292-1.03-0.292-1.584c0-0.564,0.1-1.098,0.3-1.601
				c0.2-0.502,0.477-0.943,0.831-1.323c0.354-0.379,0.771-0.682,1.254-0.907c0.482-0.226,1.01-0.339,1.584-0.339
				c0.575,0,1.105,0.113,1.593,0.339c0.487,0.226,0.908,0.528,1.261,0.907c0.354,0.38,0.631,0.821,0.831,1.323
				c0.2,0.503,0.3,1.036,0.3,1.601c0,0.554-0.098,1.082-0.292,1.584c-0.195,0.503-0.469,0.944-0.823,1.323
				c-0.354,0.38-0.774,0.68-1.262,0.9S244.315,334.547,243.73,334.547z M240.822,330.423c0,0.452,0.077,0.869,0.231,1.254
				s0.361,0.724,0.623,1.016c0.261,0.292,0.569,0.521,0.923,0.685c0.354,0.164,0.731,0.246,1.131,0.246
				c0.4,0,0.777-0.084,1.131-0.254c0.354-0.169,0.664-0.399,0.931-0.692c0.267-0.292,0.477-0.633,0.63-1.022
				c0.154-0.39,0.231-0.811,0.231-1.262c0-0.441-0.077-0.859-0.231-1.254c-0.154-0.395-0.364-0.738-0.63-1.031
				c-0.267-0.292-0.577-0.522-0.931-0.692c-0.354-0.169-0.73-0.254-1.131-0.254c-0.4,0-0.774,0.085-1.123,0.254
				c-0.349,0.17-0.656,0.403-0.923,0.7c-0.267,0.298-0.477,0.644-0.631,1.039C240.899,329.549,240.822,329.972,240.822,330.423z"/>
			<path fill="#383838" d="M253.469,327.3c-0.708,0.021-1.323,0.216-1.846,0.585c-0.524,0.369-0.893,0.877-1.108,1.522v4.985h-1.046
				v-8.016h0.985v1.923c0.297-0.615,0.697-1.098,1.2-1.446s1.041-0.522,1.615-0.522c0.082,0,0.148,0.005,0.2,0.015V327.3z"/>
			<path fill="#383838" d="M258.87,327.3c-0.708,0.021-1.323,0.216-1.847,0.585c-0.522,0.369-0.893,0.877-1.107,1.522v4.985h-1.046
				v-8.016h0.984v1.923c0.297-0.615,0.697-1.098,1.2-1.446c0.502-0.349,1.041-0.522,1.615-0.522c0.082,0,0.148,0.005,0.2,0.015
				V327.3z"/>
			<path fill="#383838" d="M260.731,336.855c0.082,0.01,0.162,0.018,0.238,0.022c0.077,0.006,0.151,0.008,0.224,0.008
				c0.185,0,0.331-0.025,0.438-0.077c0.107-0.051,0.213-0.164,0.315-0.338c0.103-0.175,0.218-0.426,0.346-0.754
				c0.129-0.328,0.311-0.77,0.547-1.323l-3.493-8.016h1.077l2.97,7.046l2.754-7.046h1l-4.154,10.339
				c-0.113,0.297-0.3,0.557-0.562,0.777c-0.262,0.22-0.618,0.33-1.069,0.33c-0.103,0-0.2-0.002-0.292-0.008
				c-0.093-0.005-0.205-0.018-0.339-0.038V336.855z"/>
			<path fill="#383838" d="M268.04,335.639l0.262-1.292h-0.354v-1.462h1.016v1.462l-0.385,1.292H268.04z"/>
			<path fill="#383838" d="M200.774,349.871c-0.677,0-1.275-0.172-1.792-0.516c-0.518-0.344-0.936-0.777-1.254-1.301v4.939h-1.046
				v-11.293h0.938v1.554c0.328-0.502,0.754-0.91,1.277-1.223c0.523-0.313,1.092-0.47,1.708-0.47c0.554,0,1.062,0.115,1.523,0.346
				c0.461,0.231,0.861,0.539,1.2,0.924c0.339,0.385,0.603,0.828,0.792,1.331c0.19,0.502,0.285,1.021,0.285,1.554
				c0,0.564-0.087,1.098-0.262,1.6c-0.174,0.503-0.423,0.944-0.746,1.323c-0.323,0.38-0.708,0.68-1.154,0.9
				S201.308,349.871,200.774,349.871z M200.482,348.947c0.431,0,0.823-0.092,1.177-0.276c0.354-0.185,0.656-0.429,0.908-0.731
				c0.251-0.302,0.443-0.646,0.577-1.03s0.2-0.782,0.2-1.192c0-0.431-0.077-0.841-0.231-1.231c-0.154-0.39-0.364-0.732-0.631-1.03
				s-0.582-0.533-0.946-0.708c-0.364-0.174-0.756-0.262-1.177-0.262c-0.267,0-0.546,0.054-0.838,0.162
				c-0.292,0.107-0.564,0.251-0.815,0.431c-0.251,0.18-0.467,0.39-0.646,0.631c-0.179,0.241-0.29,0.495-0.331,0.762v2.461
				c0.123,0.288,0.279,0.555,0.469,0.801c0.189,0.246,0.405,0.459,0.646,0.638c0.241,0.18,0.5,0.321,0.777,0.424
				C199.897,348.896,200.185,348.947,200.482,348.947z"/>
			<path fill="#383838" d="M208.19,349.871c-0.379,0-0.731-0.064-1.054-0.192c-0.323-0.129-0.605-0.306-0.846-0.531
				c-0.241-0.226-0.429-0.489-0.562-0.792s-0.2-0.629-0.2-0.978s0.082-0.672,0.246-0.969c0.164-0.298,0.395-0.554,0.692-0.77
				c0.297-0.216,0.651-0.382,1.062-0.5s0.862-0.177,1.354-0.177c0.41,0,0.826,0.036,1.246,0.107c0.42,0.072,0.795,0.175,1.123,0.308
				v-0.723c0-0.708-0.2-1.27-0.6-1.685c-0.4-0.416-0.954-0.624-1.662-0.624c-0.41,0-0.831,0.083-1.261,0.247
				c-0.431,0.164-0.867,0.399-1.308,0.707l-0.369-0.692c1.036-0.697,2.041-1.046,3.016-1.046c1.005,0,1.795,0.282,2.369,0.846
				c0.575,0.564,0.862,1.345,0.862,2.339v3.616c0,0.287,0.128,0.431,0.385,0.431v0.923c-0.175,0.031-0.308,0.046-0.4,0.046
				c-0.267,0-0.474-0.066-0.623-0.2c-0.148-0.133-0.228-0.317-0.238-0.554l-0.031-0.631c-0.369,0.482-0.833,0.852-1.393,1.108
				C209.438,349.742,208.836,349.871,208.19,349.871z M208.436,349.07c0.543,0,1.043-0.103,1.5-0.308s0.803-0.477,1.039-0.815
				c0.092-0.092,0.162-0.192,0.208-0.3c0.046-0.107,0.069-0.208,0.069-0.3v-1.308c-0.349-0.134-0.71-0.236-1.084-0.308
				c-0.375-0.072-0.756-0.108-1.146-0.108c-0.738,0-1.338,0.154-1.8,0.462s-0.692,0.713-0.692,1.216
				c0,0.246,0.048,0.477,0.146,0.691c0.098,0.216,0.231,0.403,0.4,0.563c0.169,0.158,0.372,0.284,0.607,0.377
				C207.918,349.024,208.169,349.07,208.436,349.07z"/>
			<path fill="#383838" d="M217.775,349.824c-0.554,0-1.06-0.115-1.516-0.346c-0.457-0.231-0.852-0.536-1.185-0.916
				c-0.333-0.379-0.592-0.815-0.777-1.308c-0.185-0.492-0.277-1-0.277-1.522c0-0.555,0.09-1.085,0.27-1.593
				c0.179-0.508,0.433-0.951,0.762-1.331c0.328-0.379,0.72-0.682,1.177-0.907c0.456-0.226,0.961-0.339,1.516-0.339
				c0.687,0,1.282,0.172,1.785,0.516c0.502,0.344,0.933,0.776,1.292,1.3v-1.677h0.938v8.047c0,0.554-0.105,1.043-0.315,1.469
				c-0.21,0.426-0.493,0.782-0.846,1.069c-0.354,0.287-0.77,0.503-1.247,0.646c-0.477,0.144-0.982,0.215-1.515,0.215
				c-0.923,0-1.667-0.164-2.231-0.492c-0.564-0.328-1.021-0.77-1.369-1.323l0.646-0.508c0.318,0.513,0.738,0.89,1.262,1.131
				c0.523,0.241,1.087,0.362,1.692,0.362c0.39,0,0.759-0.055,1.107-0.162s0.654-0.267,0.916-0.477
				c0.262-0.211,0.469-0.478,0.623-0.801c0.154-0.322,0.231-0.699,0.231-1.13v-1.585c-0.308,0.513-0.729,0.918-1.262,1.215
				C218.919,349.675,218.36,349.824,217.775,349.824z M218.067,348.947c0.308,0,0.61-0.056,0.908-0.169
				c0.297-0.112,0.567-0.264,0.808-0.454c0.241-0.189,0.443-0.402,0.607-0.639c0.164-0.235,0.272-0.477,0.323-0.723v-2.478
				c-0.113-0.287-0.267-0.554-0.461-0.8c-0.195-0.246-0.416-0.456-0.662-0.631c-0.246-0.174-0.51-0.313-0.792-0.415
				s-0.567-0.154-0.854-0.154c-0.451,0-0.854,0.096-1.208,0.285s-0.654,0.438-0.9,0.746c-0.247,0.308-0.434,0.656-0.562,1.046
				s-0.192,0.785-0.192,1.185c0,0.431,0.077,0.842,0.23,1.231s0.367,0.73,0.639,1.022c0.271,0.293,0.587,0.523,0.946,0.692
				C217.257,348.863,217.647,348.947,218.067,348.947z"/>
			<path fill="#383838" d="M227.529,349.871c-0.585,0-1.121-0.11-1.608-0.331s-0.91-0.523-1.269-0.908
				c-0.359-0.385-0.639-0.828-0.839-1.33c-0.2-0.503-0.3-1.041-0.3-1.616c0-0.563,0.1-1.095,0.3-1.592
				c0.2-0.498,0.477-0.934,0.831-1.309c0.354-0.374,0.777-0.671,1.269-0.892c0.493-0.221,1.026-0.331,1.6-0.331
				c0.585,0,1.121,0.11,1.608,0.331s0.905,0.521,1.254,0.899c0.349,0.38,0.621,0.815,0.815,1.309
				c0.195,0.492,0.292,1.015,0.292,1.568c0,0.083,0,0.165,0,0.247s-0.005,0.138-0.016,0.169h-6.862
				c0.031,0.431,0.131,0.828,0.3,1.192c0.169,0.364,0.387,0.68,0.654,0.946c0.267,0.267,0.571,0.475,0.915,0.623
				s0.71,0.223,1.1,0.223c0.256,0,0.513-0.035,0.77-0.107c0.256-0.071,0.492-0.169,0.708-0.292s0.41-0.274,0.585-0.454
				c0.174-0.18,0.308-0.377,0.4-0.593l0.908,0.246c-0.123,0.298-0.298,0.567-0.523,0.809c-0.226,0.24-0.487,0.451-0.785,0.63
				c-0.298,0.18-0.626,0.318-0.985,0.416C228.293,349.822,227.919,349.871,227.529,349.871z M230.483,345.286
				c-0.031-0.432-0.131-0.823-0.3-1.178c-0.169-0.354-0.384-0.658-0.646-0.915c-0.262-0.256-0.564-0.456-0.908-0.6
				c-0.344-0.144-0.71-0.216-1.1-0.216c-0.39,0-0.759,0.072-1.108,0.216s-0.654,0.344-0.916,0.6
				c-0.261,0.257-0.472,0.564-0.631,0.923c-0.159,0.359-0.253,0.749-0.284,1.17H230.483z"/>
			<path fill="#383838" d="M243.761,349.716h-1.046v-4.478c0-0.953-0.141-1.646-0.423-2.077c-0.282-0.431-0.715-0.646-1.3-0.646
				c-0.308,0-0.616,0.057-0.923,0.169c-0.308,0.113-0.592,0.271-0.854,0.477c-0.261,0.206-0.495,0.449-0.7,0.731
				c-0.206,0.282-0.354,0.587-0.446,0.915v4.908h-1.046v-8.016h0.954v1.815c0.328-0.585,0.797-1.057,1.408-1.416
				c0.61-0.358,1.274-0.538,1.992-0.538c0.441,0,0.815,0.082,1.124,0.246c0.308,0.164,0.554,0.396,0.738,0.692
				c0.185,0.298,0.318,0.661,0.4,1.093c0.082,0.431,0.123,0.907,0.123,1.431V349.716z"/>
			<path fill="#383838" d="M249.407,349.871c-0.584,0-1.118-0.11-1.6-0.331s-0.9-0.521-1.254-0.9
				c-0.354-0.379-0.628-0.82-0.823-1.323c-0.195-0.502-0.292-1.03-0.292-1.584c0-0.564,0.1-1.098,0.3-1.601
				c0.2-0.502,0.477-0.943,0.831-1.323c0.354-0.379,0.771-0.682,1.254-0.907c0.482-0.226,1.01-0.339,1.584-0.339
				c0.575,0,1.105,0.113,1.593,0.339s0.907,0.528,1.262,0.907c0.354,0.38,0.631,0.821,0.83,1.323c0.2,0.503,0.301,1.036,0.301,1.601
				c0,0.554-0.098,1.082-0.293,1.584c-0.194,0.503-0.469,0.944-0.823,1.323c-0.354,0.38-0.773,0.68-1.261,0.9
				C250.527,349.76,249.992,349.871,249.407,349.871z M246.499,345.747c0,0.452,0.077,0.869,0.231,1.254s0.361,0.724,0.623,1.016
				c0.261,0.292,0.569,0.521,0.923,0.685c0.354,0.164,0.731,0.246,1.131,0.246c0.4,0,0.777-0.084,1.131-0.254
				c0.354-0.169,0.664-0.399,0.932-0.692c0.266-0.292,0.477-0.633,0.63-1.022c0.154-0.39,0.231-0.811,0.231-1.262
				c0-0.441-0.077-0.859-0.231-1.254c-0.153-0.395-0.364-0.738-0.63-1.031c-0.268-0.292-0.578-0.522-0.932-0.692
				c-0.354-0.169-0.73-0.254-1.131-0.254c-0.4,0-0.774,0.085-1.123,0.254c-0.349,0.17-0.656,0.403-0.923,0.7
				c-0.267,0.298-0.477,0.644-0.631,1.039C246.576,344.873,246.499,345.295,246.499,345.747z"/>
			<path fill="#383838" d="M258.884,349.332c-0.062,0.031-0.151,0.072-0.269,0.123c-0.118,0.052-0.254,0.103-0.408,0.154
				c-0.153,0.051-0.328,0.098-0.523,0.139c-0.194,0.04-0.399,0.062-0.615,0.062c-0.226,0-0.44-0.031-0.646-0.093
				c-0.206-0.062-0.385-0.156-0.539-0.284c-0.153-0.129-0.276-0.29-0.369-0.485c-0.093-0.194-0.139-0.42-0.139-0.677v-5.738h-1.107
				v-0.831h1.107v-2.708h1.047v2.708h1.846v0.831h-1.846v5.446c0.02,0.297,0.125,0.515,0.315,0.653
				c0.189,0.139,0.407,0.208,0.653,0.208c0.298,0,0.559-0.049,0.785-0.146c0.225-0.097,0.369-0.166,0.431-0.207L258.884,349.332z"/>
			<path fill="#383838" d="M264.5,349.716v-7.185h-1.107v-0.831h1.107v-0.216c0-0.984,0.211-1.756,0.631-2.315
				c0.421-0.559,0.995-0.839,1.724-0.839c0.317,0,0.625,0.047,0.923,0.139c0.298,0.093,0.554,0.216,0.77,0.369l-0.323,0.754
				c-0.144-0.112-0.32-0.199-0.53-0.261c-0.211-0.062-0.424-0.093-0.639-0.093c-0.492,0-0.867,0.189-1.123,0.569
				c-0.257,0.38-0.385,0.929-0.385,1.646v0.246h2.215v0.831h-2.215v7.185H264.5z"/>
			<path fill="#383838" d="M272.208,349.871c-0.585,0-1.118-0.11-1.6-0.331c-0.482-0.221-0.9-0.521-1.254-0.9
				c-0.354-0.379-0.629-0.82-0.823-1.323c-0.195-0.502-0.293-1.03-0.293-1.584c0-0.564,0.101-1.098,0.301-1.601
				c0.199-0.502,0.477-0.943,0.83-1.323c0.354-0.379,0.772-0.682,1.254-0.907c0.482-0.226,1.011-0.339,1.585-0.339
				s1.105,0.113,1.593,0.339s0.907,0.528,1.262,0.907c0.354,0.38,0.631,0.821,0.83,1.323c0.2,0.503,0.301,1.036,0.301,1.601
				c0,0.554-0.098,1.082-0.293,1.584c-0.194,0.503-0.469,0.944-0.823,1.323c-0.354,0.38-0.774,0.68-1.261,0.9
				C273.329,349.76,272.792,349.871,272.208,349.871z M269.3,345.747c0,0.452,0.076,0.869,0.23,1.254
				c0.153,0.385,0.361,0.724,0.623,1.016s0.569,0.521,0.923,0.685c0.354,0.164,0.731,0.246,1.131,0.246
				c0.4,0,0.777-0.084,1.131-0.254c0.354-0.169,0.664-0.399,0.931-0.692c0.267-0.292,0.478-0.633,0.631-1.022
				c0.154-0.39,0.231-0.811,0.231-1.262c0-0.441-0.077-0.859-0.231-1.254c-0.153-0.395-0.364-0.738-0.631-1.031
				c-0.267-0.292-0.577-0.522-0.931-0.692c-0.354-0.169-0.73-0.254-1.131-0.254c-0.399,0-0.774,0.085-1.123,0.254
				c-0.349,0.17-0.656,0.403-0.923,0.7c-0.267,0.298-0.478,0.644-0.631,1.039C269.376,344.873,269.3,345.295,269.3,345.747z"/>
			<path fill="#383838" d="M280.455,349.871c-0.872,0-1.521-0.29-1.946-0.87c-0.426-0.579-0.639-1.443-0.639-2.592v-4.708h1.046
				v4.523c0,1.815,0.621,2.723,1.861,2.723c0.309,0,0.61-0.051,0.908-0.153s0.571-0.252,0.823-0.446
				c0.251-0.195,0.477-0.426,0.677-0.692s0.361-0.569,0.484-0.908v-5.046h1.047v6.662c0,0.287,0.123,0.431,0.369,0.431v0.923
				c-0.123,0.021-0.224,0.031-0.3,0.031c-0.077,0-0.131,0-0.162,0c-0.246-0.011-0.446-0.098-0.6-0.262
				c-0.154-0.164-0.231-0.385-0.231-0.662v-0.923c-0.349,0.626-0.822,1.11-1.423,1.454
				C281.77,349.699,281.131,349.871,280.455,349.871z"/>
			<path fill="#383838" d="M293.825,349.716h-1.046v-4.478c0-0.953-0.142-1.646-0.423-2.077c-0.282-0.431-0.716-0.646-1.301-0.646
				c-0.308,0-0.615,0.057-0.923,0.169c-0.308,0.113-0.593,0.271-0.854,0.477c-0.262,0.206-0.495,0.449-0.7,0.731
				s-0.354,0.587-0.446,0.915v4.908h-1.046v-8.016h0.953v1.815c0.328-0.585,0.798-1.057,1.408-1.416
				c0.61-0.358,1.274-0.538,1.992-0.538c0.441,0,0.815,0.082,1.123,0.246s0.554,0.396,0.739,0.692
				c0.185,0.298,0.317,0.661,0.399,1.093c0.082,0.431,0.123,0.907,0.123,1.431V349.716z"/>
			<path fill="#383838" d="M299.347,349.871c-0.554,0-1.066-0.116-1.538-0.347c-0.473-0.23-0.877-0.536-1.216-0.915
				c-0.339-0.38-0.603-0.818-0.792-1.315c-0.19-0.498-0.285-1.019-0.285-1.562c0-0.564,0.093-1.101,0.277-1.608
				s0.438-0.951,0.762-1.331c0.322-0.379,0.707-0.679,1.153-0.899s0.937-0.331,1.47-0.331c0.677,0,1.276,0.177,1.8,0.531
				c0.523,0.354,0.934,0.782,1.231,1.284v-4.893h1.046v9.878c0,0.287,0.123,0.431,0.369,0.431v0.923
				c-0.154,0.031-0.277,0.046-0.369,0.046c-0.246,0-0.462-0.079-0.646-0.238s-0.276-0.352-0.276-0.577v-0.784
				c-0.318,0.522-0.749,0.938-1.293,1.246S299.932,349.871,299.347,349.871z M299.578,348.947c0.257,0,0.531-0.051,0.823-0.153
				c0.293-0.103,0.567-0.244,0.823-0.424c0.257-0.179,0.475-0.39,0.654-0.63c0.179-0.241,0.289-0.501,0.331-0.777v-2.478
				c-0.104-0.276-0.252-0.535-0.446-0.776c-0.195-0.241-0.418-0.454-0.67-0.639c-0.251-0.185-0.521-0.328-0.808-0.431
				s-0.569-0.154-0.846-0.154c-0.431,0-0.821,0.093-1.17,0.277s-0.648,0.429-0.899,0.73c-0.252,0.303-0.444,0.649-0.577,1.039
				c-0.134,0.39-0.2,0.79-0.2,1.2c0,0.431,0.077,0.841,0.23,1.23c0.154,0.39,0.364,0.73,0.631,1.023
				c0.267,0.292,0.582,0.525,0.946,0.699C298.765,348.86,299.158,348.947,299.578,348.947z"/>
		</g>
		<g>
			<path fill="#3A3A3A" d="M200.778,112.793h-30.609v-11.582l19.854-34.746h16.545l-19.854,34.746h14.063V88.802h14.891v12.409
				h5.791v11.582h-5.791v11.582h-14.891V112.793z"/>
			<path fill="#3A3A3A" d="M274.405,108.657c0,5.791-1.311,9.997-3.93,12.616c-2.62,2.62-6.825,3.929-12.616,3.929h-15.718
				c-5.791,0-9.997-1.309-12.616-3.929c-2.62-2.619-3.93-6.825-3.93-12.616V82.184c0-5.791,1.31-9.996,3.93-12.616
				c2.619-2.619,6.825-3.93,12.616-3.93h15.718c5.791,0,9.996,1.311,12.616,3.93c2.619,2.62,3.93,6.825,3.93,12.616V108.657z
				 M259.514,82.184c0-3.309-1.655-4.963-4.964-4.963h-9.1c-3.309,0-4.963,1.654-4.963,4.963v26.473
				c0,3.309,1.654,4.964,4.963,4.964h9.1c3.309,0,4.964-1.655,4.964-4.964V82.184z"/>
			<path fill="#3A3A3A" d="M309.978,112.793h-30.609v-11.582l19.854-34.746h16.546l-19.854,34.746h14.063V88.802h14.891v12.409
				h5.791v11.582h-5.791v11.582h-14.891V112.793z"/>
		</g>
		<g>
			<g>
				<path fill="#CCEBDA" d="M95.521,176.203h-8.479v8.479h-7.419v-8.479h-8.479v-7.419h8.479v-8.479h7.419v8.479h8.479V176.203z"/>
			</g>
			<g>
				<path fill="#CCEBDA" d="M241.142,180.203h-8.479v8.479h-7.419v-8.479h-8.479v-7.419h8.479v-8.479h7.419v8.479h8.479V180.203z"/>
			</g>
			<g>
				<path fill="#CCEBDA" d="M392.854,142.203h-8.479v8.479h-7.419v-8.479h-8.479v-7.419h8.479v-8.479h7.419v8.479h8.479V142.203z"/>
			</g>
			<g>
				<path fill="#CCEBDA" d="M95.521,314.87h-8.479v8.479h-7.419v-8.479h-8.479v-7.419h8.479v-8.479h7.419v8.479h8.479V314.87z"/>
			</g>
			<g>
				<path fill="#CCEBDA" d="M416.375,299.877c0-1.854-1.219-3.072-3.922-3.072c-2.915,0-4.663,1.96-5.724,4.451l-7.313-4.188
					c2.331-5.458,7.472-8.531,13.354-8.531c6.041,0,12.082,3.709,12.082,10.599c0,7.896-8.479,10.334-8.479,13.99h-8.479
					C407.896,306.926,416.375,304.542,416.375,299.877z M407.101,322.083c0-2.756,2.279-5.034,5.034-5.034
					c2.757,0,5.035,2.278,5.035,5.034s-2.278,5.034-5.035,5.034C409.38,327.117,407.101,324.838,407.101,322.083z"/>
			</g>
			<g>
				<path fill="#CCEBDA" d="M132.375,125.211c0-1.854-1.219-3.073-3.921-3.073c-2.915,0-4.664,1.96-5.724,4.451l-7.313-4.187
					c2.332-5.458,7.472-8.532,13.354-8.532c6.041,0,12.082,3.709,12.082,10.599c0,7.896-8.479,10.334-8.479,13.99h-8.479
					C123.896,132.26,132.375,129.875,132.375,125.211z M123.101,147.416c0-2.756,2.279-5.034,5.034-5.034
					c2.756,0,5.035,2.278,5.035,5.034s-2.278,5.034-5.035,5.034C125.38,152.45,123.101,150.172,123.101,147.416z"/>
			</g>
			<g>
				<path fill="#CCEBDA" d="M433.042,112.544c0-1.854-1.219-3.073-3.921-3.073c-2.915,0-4.664,1.96-5.724,4.451l-7.313-4.187
					c2.332-5.458,7.473-8.532,13.354-8.532c6.041,0,12.082,3.709,12.082,10.599c0,7.896-8.479,10.334-8.479,13.99h-8.479
					C424.563,119.593,433.042,117.208,433.042,112.544z M423.768,134.749c0-2.756,2.278-5.034,5.034-5.034s5.034,2.278,5.034,5.034
					s-2.278,5.034-5.034,5.034S423.768,137.505,423.768,134.749z"/>
			</g>
			<g>
				<path fill="#CCEBDA" d="M441.542,177.708l-0.742,4.239h5.617l-0.9,5.83h-5.671l-1.324,7.949h-6.041l1.324-7.949h-4.875
					l-1.325,7.949h-6.041l1.325-7.949h-5.617l0.953-5.83h5.617l0.742-4.239h-5.67l0.954-5.83h5.67l1.325-7.949h6.041l-1.325,7.949
					h4.875l1.325-7.949h6.041l-1.324,7.949h5.564l-0.954,5.83H441.542z M435.5,177.708h-4.876l-0.741,4.239h4.875L435.5,177.708z"/>
			</g>
			<g>
				<path fill="#CCEBDA" d="M287.723,155.708l-0.742,4.239h5.617l-0.9,5.83h-5.671l-1.324,7.949h-6.042l1.325-7.949h-4.875
					l-1.325,7.949h-6.041l1.324-7.949h-5.617l0.954-5.83h5.617l0.742-4.239h-5.671l0.954-5.83h5.671l1.324-7.949h6.041l-1.324,7.949
					h4.875l1.325-7.949h6.041l-1.324,7.949h5.564l-0.954,5.83H287.723z M281.682,155.708h-4.876l-0.742,4.239h4.876L281.682,155.708
					z"/>
			</g>
			<g>
				<path fill="#CCEBDA" d="M73.542,361.041L72.8,365.28h5.617l-0.9,5.83h-5.671l-1.324,7.948H64.48l1.325-7.948H60.93l-1.325,7.948
					h-6.041l1.325-7.948h-5.617l0.954-5.83h5.617l0.742-4.239h-5.67l0.954-5.829h5.67l1.325-7.949h6.041l-1.325,7.949h4.875
					l1.325-7.949h6.041l-1.324,7.949h5.564l-0.954,5.829H73.542z M67.501,361.041h-4.876l-0.742,4.239h4.875L67.501,361.041z"/>
			</g>
			<g>
				<path fill="#CCEBDA" d="M452.875,361.041l-0.742,4.239h5.617l-0.9,5.83h-5.671l-1.324,7.948h-6.042l1.325-7.948h-4.875
					l-1.325,7.948h-6.041l1.324-7.948h-5.617l0.954-5.83h5.617l0.742-4.239h-5.671l0.954-5.829h5.671l1.324-7.949h6.041
					l-1.324,7.949h4.875l1.325-7.949h6.041l-1.324,7.949h5.564l-0.954,5.829H452.875z M446.834,361.041h-4.876l-0.742,4.239h4.876
					L446.834,361.041z"/>
			</g>
		</g>
		<g>
			<defs>
				<rect id="SVGID_1_" x="0" y="0" width="500" height="500"/>
			</defs>
			<clipPath id="SVGID_2_">
				<use xlink:href="#SVGID_1_"  overflow="visible"/>
			</clipPath>
			<path clip-path="url(#SVGID_2_)" fill="#EBA76C" d="M348.472,327.545c-0.606,0.892-2.336,0.777-3.205,0.616
				c-1.083-0.202-2.038-0.915-2.865-1.558c-2.632-2.045-5.26-4.061-7.676-6.403c-1.198-1.163-2.703-2.092-3.657-3.439
				c-0.211-0.298-0.146-1.454-0.147-1.826c-0.003-0.595,0.675-0.54,1.164-0.513c2.749,0.154,5.173,1.741,7.409,3.191
				c0.855,0.555,1.589,1.255,2.448,1.821c1.311,0.865,2.639,1.742,3.805,2.788c0.904,0.813,1.773,1.912,2.368,2.973
				c0.296,0.528,0.71,1.262,0.596,1.917C348.638,327.534,348.381,327.785,348.472,327.545z"/>
			<path clip-path="url(#SVGID_2_)" fill="#EBA76C" d="M331.704,317.862c-0.646-0.479-0.781-1.339-0.95-2.067
				c-0.562-2.411-0.705-4.928-0.941-7.411c-0.194-2.034,0.08-4.119-0.305-6.175c-0.36-1.921-1.259-3.778-1.441-5.746
				c-0.1-1.083-0.102-2.799,0.484-3.95c0.235-0.463,0.864-0.548,1.215-0.164c0.172,0.187,0.324,0.384,0.419,0.561
				c0.233,0.44,0.235,1.201,0.389,1.715c0.294,0.987,0.763,2.011,0.964,3.001c0.162-0.432,0.104-1.246,0.066-1.954
				c-0.012-0.217,0.295-0.274,0.362-0.067c0.309,0.945,0.578,2.112,0.672,2.866c0.121,0.973-0.406,2.254-0.315,3.238
				c0.161,1.737,0.865,3.003,1.303,4.697c0.72,2.794,2.027,5.797,1.724,8.743c-0.075,0.738,0.11,1.987-0.519,2.537
				C334.386,318.074,332.362,318.35,331.704,317.862z"/>
			<path clip-path="url(#SVGID_2_)" fill="#C4DFF8" d="M351.685,323.25c-0.582-0.506-1.591-0.481-2.364-0.735
				c-1.018-0.334-2.08-0.777-2.987-1.337c-0.489-0.302-0.949-0.631-1.455-0.879c-0.511-0.249-1.074-0.395-1.548-0.723
				c-0.42-0.29-0.715-0.729-1.187-0.395c-0.428,0.303-0.757,0.754-1.166,1.096c-0.732,0.611-1.443,1.296-1.85,2.171
				c-0.292,0.626-0.348,1.279-0.578,1.903c0.555,0.334,0.99,0.832,1.547,1.166c0.733,0.441,1.462,0.847,2.104,1.425
				c0.507,0.456,0.924,1.009,1.32,1.551c0.675,0.923,0.542,1.712,0.477,2.803c-0.107,1.776-0.604,3.554-0.607,5.331
				c0.301-0.194,0.56-0.52,0.871-0.73c0.489-0.33,1.096-0.493,1.527-0.904c0.878-0.836,0.941-2.317,1.198-3.424
				c0.44-1.9,1.077-3.745,2.441-5.191c0.606-0.644,1.054-1.219,1.495-1.996c0.226-0.396,0.479-0.875,0.742-1.211
				C351.602,323.344,351.521,323.51,351.685,323.25z"/>
			<g clip-path="url(#SVGID_2_)">
				<path fill="#EBA76C" d="M134.693,290.415c0.029-0.241,0.063-0.48,0.102-0.717c0.321-1.932,0.536-3.889,1.257-5.725
					c0.323-0.823,0.741-1.611,0.996-2.458s0.334-1.787-0.021-2.597c-0.572,0.77-0.943,1.688-1.066,2.639
					c-0.021-2.078,0.103-4.159,0.369-6.221c-0.155-0.104-0.364-0.03-0.532,0.052c-0.831,0.407-1.583,0.974-2.206,1.658
					c-0.299,0.33-0.572,0.694-0.723,1.113c-0.162,0.45-0.174,0.939-0.147,1.418c0.072,1.333,0.658,2.853,0.221,4.113
					c-0.209,0.602-0.177,0.964-0.697,1.978c-0.781,1.521-1.552,3.048-2.325,4.574c-0.869,1.716-2.897,5.772-1.986,7.804
					c0.505,1.128,1.241,1.675,2.465,1.503c1.232-0.173,1.862-1.254,2.412-2.37C133.634,295.511,134.473,292.222,134.693,290.415z"/>
				<path fill="#EBA76C" d="M129.148,319.208c0.32-0.554,0.48-1.179,0.634-1.798c1.497-6.037,2.655-12.23,2.286-18.521
					c-0.04-0.679-0.103-1.375-0.41-2.008c-0.308-0.634-0.911-1.201-1.643-1.315c-0.728-0.114-1.435,0.241-1.88,0.75
					c-0.445,0.508-0.676,1.15-0.889,1.782c-1.826,5.422-2.946,11.104-3.008,16.879c-0.015,1.354,0.056,2.798,0.875,3.973
					c0.457,0.655,1.328,1.396,2.198,1.473C128.14,320.495,128.794,319.823,129.148,319.208z"/>
				<path fill="#9EBEE6" d="M130.349,318.377c0.386-0.703,0.619-1.477,0.851-2.244c0.182-0.606,0.365-1.213,0.548-1.82
					c0.166-0.549,0.331-1.1,0.448-1.661c0.115-0.553,0.183-1.114,0.25-1.676c0.116-0.959,0.231-1.919,0.347-2.879
					c-3.265-1.238-6.944-1.354-10.281-0.324c-0.097,1.527-0.085,3.061,0.036,4.586c0.119,1.492,0.348,3,0.973,4.36
					c0.613,1.335,1.804,2.67,3.101,3.398C128.053,320.92,129.691,319.577,130.349,318.377z"/>
			</g>
			<path clip-path="url(#SVGID_2_)" fill="none" stroke="#C1D6F2" stroke-width="6.8384" stroke-miterlimit="10" d="
				M-101.54,402.244c21.165-2.276,98.188,9.622,120.438,9.121c53.729-1.211,99.675-15.598,99.675-15.598"/>
			<g clip-path="url(#SVGID_2_)">
				<path fill="none" stroke="#2065BF" stroke-width="13.6769" stroke-miterlimit="10" d="M67.454,241.694
					c-46.846,0-78.838-29.707-123.97-33.135c-45.132-3.428-114.259,49.131-175.958,57.129c-61.7,7.998-148.536-52.63-208.522-52.63"
					/>
				<path fill="#57A9F2" d="M161.351,243.48l3.223-59.486c0,0-16.924,0-27.208,0c-16.281,0-23.637,29.564-39.847,38.205
					c-13.483,7.187-25.28,7.34-32.135,7.34s-7.355,12.584-7.355,12.584s0.5,12.585,7.355,12.585s18.652,0.152,32.135,7.339
					c16.21,8.641,23.566,38.205,39.847,38.205c10.284,0,27.208,0,27.208,0l-3.456-56.774L161.351,243.48z"/>
				<path fill="#3A7FD8" d="M196.28,242.123c0-20.368-2.89-38.694-7.498-51.46v-18.38h-15.639c-12.778,0-23.137,31.269-23.137,69.84
					c0,38.572,10.359,69.841,23.137,69.841h15.639v-18.38C193.39,280.817,196.28,262.491,196.28,242.123z"/>
				<ellipse fill="#BADCF2" cx="187.711" cy="242.123" rx="23.137" ry="69.841"/>
				<g>
					<ellipse fill="#2065BF" cx="187.711" cy="216.201" rx="2.999" ry="9.053"/>
					<rect x="187.711" y="207.147" fill="#2065BF" width="49.488" height="18.107"/>
					<circle fill="#2065BF" cx="238.699" cy="216.201" r="9.053"/>
				</g>
				<g>
					<ellipse fill="#2065BF" cx="187.711" cy="268.045" rx="2.999" ry="9.053"/>
					<rect x="187.711" y="258.992" fill="#2065BF" width="49.488" height="18.106"/>
					<circle fill="#2065BF" cx="238.699" cy="268.045" r="9.053"/>
				</g>
			</g>
			<path clip-path="url(#SVGID_2_)" fill="none" stroke="#C1D6F2" stroke-width="6.8384" stroke-miterlimit="10" d="
				M385.881,402.244c21.165-2.276,78.123,9.087,100.377,9.121C535.267,411.438,610.491,389,610.491,389"/>
			<g clip-path="url(#SVGID_2_)">
				<path fill="none" stroke="#2065BF" stroke-width="13.6769" stroke-miterlimit="10" d="M429.728,241.694
					c46.846,0,91.78,29.779,136.912,26.351s125.112-43.775,186.813-35.777c61.699,7.998,115.687,34.147,184.726-19.209"/>
				<path fill="#57A9F2" d="M431.799,229.539c-6.855,0-18.652-0.153-32.136-7.34c-16.21-8.641-23.565-38.205-39.848-38.205
					c-10.283,0-27.207,0-27.207,0l3.656,56.626l-0.425-0.006l-3.231,59.637c0,0,16.924,0,27.207,0
					c16.282,0,23.638-29.564,39.848-38.205c13.483-7.187,25.28-7.339,32.136-7.339s7.355-12.585,7.355-12.585
					S438.655,229.539,431.799,229.539z"/>
				<path fill="#3A7FD8" d="M300.902,242.123c0-20.368,2.891-38.694,7.498-51.46v-18.38h15.64c12.778,0,23.137,31.269,23.137,69.84
					c0,38.572-10.358,69.841-23.137,69.841H308.4v-18.38C303.792,280.817,300.902,262.491,300.902,242.123z"/>
				<ellipse fill="#57A9F2" cx="309.471" cy="242.123" rx="23.138" ry="69.841"/>
				<g>
					<ellipse fill="#2065BF" cx="309.471" cy="216.201" rx="2.999" ry="9.053"/>
				</g>
				<g>
					<ellipse fill="#2065BF" cx="309.471" cy="268.045" rx="2.999" ry="9.053"/>
				</g>
			</g>
			<g clip-path="url(#SVGID_2_)">
				<ellipse fill="#C1D6F2" cx="142.991" cy="396.113" rx="39.878" ry="4.824"/>
				<path fill="#EBA76C" d="M163.744,296.379c0.184-0.158,0.364-0.319,0.539-0.484c1.424-1.343,2.93-2.611,4.052-4.234
					c0.503-0.728,0.924-1.513,1.485-2.196s1.298-1.274,2.168-1.431c-0.32,0.904-0.875,1.724-1.597,2.356
					c1.737-1.142,3.396-2.404,4.959-3.774c0.172,0.071,0.228,0.285,0.252,0.471c0.125,0.916,0.075,1.856-0.147,2.755
					c-0.107,0.433-0.257,0.862-0.521,1.221c-0.284,0.385-0.684,0.668-1.095,0.913c-1.147,0.683-2.735,1.043-3.538,2.109
					c-0.383,0.509-0.702,0.685-1.253,1.681c-0.828,1.497-1.666,2.988-2.502,4.48c-0.94,1.678-3.178,5.622-5.372,5.999
					c-1.218,0.209-2.082-0.098-2.622-1.209c-0.543-1.119,0.003-2.245,0.623-3.323C160.103,300.1,162.366,297.57,163.744,296.379z"/>
				<path fill="#EBA76C" d="M162.171,305.533c-0.031,0.091-0.07,0.181-0.112,0.267c-0.303,0.603-0.811,1.059-1.315,1.494
					c-2.98,2.567-6.198,4.874-9.649,6.791c-1.569,0.87-3.186,1.662-4.85,2.36c-1.25,0.523-2.612,1.004-4.009,0.688
					c-0.779-0.175-1.795-0.702-2.193-1.48c-0.379-0.738-0.003-1.598,0.432-2.159c0.392-0.505,0.91-0.889,1.426-1.264
					c5.027-3.664,10.327-7.072,16.292-9.103c0.644-0.22,1.311-0.423,2.014-0.377c0.703,0.045,1.457,0.39,1.838,1.024
					C162.37,304.316,162.371,304.974,162.171,305.533z"/>
				<path fill="#EBA76C" d="M140.806,305.676c-0.312,0.703-0.79,1.443-1.545,1.596c-0.245,0.049-0.897,0-1.59-0.1
					c-0.167-0.022-0.337-0.049-0.503-0.077c-0.698-0.12-1.343-0.277-1.548-0.422c-0.459-0.322-1.275-1.669-1.35-1.855
					c-0.02-0.049-0.045-0.104-0.076-0.164c-0.058-0.118-0.135-0.255-0.216-0.399c-0.251-0.443-0.551-0.967-0.551-1.292
					c0-2.362,0.999-2.982,1.876-4.137c0.878-1.151,2.152-1.963,3.519-2.444c0.739-0.26,1.636-0.464,2.41-0.237
					c0.692,0.2,0.603,0.703,0.638,1.324C142.029,300.285,141.963,303.063,140.806,305.676z"/>
				<path fill="#EBA76C" d="M138.711,311.016c-1.712,1.846-4.446,2.676-6.896,2.091c-0.698-0.167-1.38-0.44-2.099-0.473
					c0.994-0.641,1.5-1.827,1.726-2.987c0.255-1.296,0.221-2.653-0.126-3.929c-0.069-0.255-0.651-1.351-0.383-1.552
					c0.228-0.169,1.508,0.387,1.876,0.378c0.408-0.009,0.791-0.132,1.168-0.29c0.063-0.027,0.125-0.055,0.188-0.083l0.001-0.002
					c0.422-0.19,0.835-0.409,1.271-0.55c0.091-0.03,0.189-0.056,0.282-0.03c0.078,0.022,0.142,0.078,0.202,0.132
					c0.563,0.51,1.128,1.017,1.694,1.524c-0.188,0.557-0.331,1.131-0.425,1.711c-0.008,0.046-0.015,0.091-0.022,0.139
					c-0.083,0.55-0.123,1.106-0.121,1.663c0,0.158,0.005,0.318,0.021,0.477c0.019,0.205,0.058,0.405,0.128,0.598
					C137.431,310.465,138.04,310.942,138.711,311.016z"/>
				<path fill="#E17D27" d="M137.167,307.095c-0.083,0.55-0.123,1.106-0.121,1.663c0,0.158,0.005,0.318,0.021,0.477
					c-0.164-0.091-0.309-0.274-0.427-0.379c-0.254-0.227-0.486-0.454-0.717-0.703c-0.703-0.768-1.115-1.734-1.476-2.691
					c-0.094-0.251-0.201-0.527-0.254-0.808c-0.032-0.162-0.045-0.324-0.029-0.482c0-0.002,0-0.002,0-0.003l0.001,0.001
					c0.626,0.661,1.117,1.403,1.817,1.997c0.359,0.306,0.785,0.57,1.206,0.79c0.042,0.023,0.084,0.044,0.126,0.065
					c0.115,0.058,0.236,0.102,0.354,0.15C137.503,307.15,137.333,307.124,137.167,307.095z"/>
				<path fill="#3C69BA" d="M135.326,306.405c0.456-0.38,0.9-0.783,1.251-1.262c0.846-1.152,1.085-2.644,1.794-3.886
					c0.457-0.8,1.108-1.488,1.882-1.987c0.644-0.416,1.374-0.705,1.947-1.213c0.874-0.774,1.276-1.982,1.272-3.149
					c-0.004-1.167-0.374-2.304-0.838-3.374c-0.442,0.492-1.138,0.659-1.795,0.748c-1.813,0.243-3.657,0.081-5.477,0.251
					c-1.821,0.171-3.717,0.744-4.905,2.135c-1.258,1.474-1.476,3.553-1.512,5.49c-0.019,0.979-0.004,1.964,0.19,2.923
					c0.252,1.246,0.812,2.431,1.615,3.417C132.087,308.139,133.874,307.618,135.326,306.405z"/>
				<path fill="#EBA76C" d="M138.807,300.833c-0.147-0.235-0.334-0.459-0.586-0.576c-0.252-0.116-0.58-0.103-0.778,0.093
					c-0.154,0.151-0.205,0.384-0.184,0.599c0.021,0.214,0.105,0.417,0.188,0.616c0.289,0.694,0.585,1.401,1.066,1.98
					c0.083,0.101,0.204,0.206,0.329,0.168c0.074-0.022,0.124-0.09,0.165-0.156c0-0.172,0.242-0.488,0.291-0.677
					c0.067-0.261,0.09-0.53,0.073-0.799c-0.018,0.005,0.025,0.051-0.03,0.046C139.073,301.821,139.043,301.212,138.807,300.833z"/>
				<path fill="#6D9AD8" d="M128.222,394.492c-0.069,0.517-0.137,1.053,0.023,1.548c0.321,0.995,1.493,1.508,2.535,1.416
					c1.042-0.09,1.979-0.64,2.873-1.183c1.461-0.888,2.921-1.803,4.174-2.967c0.472-0.438,0.921-0.923,1.181-1.512
					c0.26-0.59,0.306-1.304-0.014-1.862c-0.497-0.869-1.694-1.085-2.663-0.836c-0.969,0.248-1.807,0.844-2.713,1.265
					c-1.235,0.574-1.961,1.008-3.227,1.496C128.879,392.441,128.425,392.969,128.222,394.492z"/>
				<path fill="#F2A71D" d="M126.552,346.238c-0.264,3.232,0.312,6.466,0.783,9.674c0.495,3.372,0.877,6.76,1.146,10.157
					c0.083,1.046,0.154,2.1,0.046,3.144c-0.175,1.688-0.814,3.29-1.156,4.952c-0.581,2.821-0.297,5.739-0.011,8.605
					c0.189,1.897,0.379,3.795,0.568,5.693c0.18,1.799,0.362,3.613,0.909,5.337c1.608,0.587,2.508-0.064,3.074-0.613
					c0.296-4.982,1.101-9.934,2.397-14.753c0.406-1.51,0.861-3.01,1.124-4.551c0.296-1.74,0.343-3.513,0.46-5.273
					c0.45-6.727,1.943-13.432,1.341-20.146c-0.233-2.597-0.777-5.153-1.32-7.703c-0.049-0.23-0.105-0.476-0.271-0.644
					c-0.187-0.188-0.468-0.237-0.729-0.277c-1.379-0.21-2.759-0.419-4.139-0.629c-0.836-0.128-1.939-0.531-2.605,0.176
					c-0.654,0.694-0.785,2.251-0.997,3.144C126.882,343.75,126.653,344.987,126.552,346.238z"/>
				<path fill="#6D9AD8" d="M141.938,397.232c-0.091,0.543-0.182,1.105-0.035,1.636c0.3,1.087,1.538,1.692,2.664,1.646
					c1.126-0.045,2.166-0.586,3.161-1.113c1.555-0.825,3.112-1.651,4.591-2.605c0.861-0.557,1.731-1.197,2.164-2.127
					c0.434-0.929,0.261-2.216-0.627-2.729c-0.963-0.556-2.149,0.012-3.188,0.408c-1.118,0.429-2.302,0.652-3.479,0.874
					c-1.192,0.225-3.237,0.206-4.277,0.809C142.008,394.554,142.105,396.235,141.938,397.232z"/>
				<path fill="#F2A71D" d="M134.592,352.227c0.68,1.018,1.5,1.94,2.142,2.983c0.877,1.424,1.401,3.032,1.917,4.623
					c1.413,4.355,2.84,8.791,2.914,13.37c0.052,3.206-0.564,6.388-0.646,9.594c-0.055,2.132,0.127,4.263,0.309,6.389
					c0.187,2.181,0.373,4.361,0.559,6.542c1.774,0.168,3.598-0.212,5.157-1.075c-0.3-5.395,0.275-10.807,1.203-16.13
					c0.448-2.571,0.98-5.133,1.212-7.732c0.426-4.771-0.165-9.565-0.755-14.318c-0.732-5.897-1.478-11.855-3.537-17.43
					c0.139,0.378-9.9,1.347-10.765,1.434c-3.202,0.32-2.328,4.183-1.85,6.502C132.835,348.84,133.534,350.642,134.592,352.227z"/>
				<path fill="#D86F13" d="M132.296,365.844c0.319,1.08,0.686,2.154,0.839,3.271c0.176,1.286,0.064,2.594-0.047,3.888
					c-0.127,1.469-0.255,2.938-0.382,4.407c-0.33,3.8-0.612,7.61-1.228,11.374c-0.247,1.51,0.27,2.728,0.43,4.423
					c1.478-4.791,2.153-9.29,3.067-14.22c1.03-5.553,1.331-11.211,1.629-16.852c0.086-1.628,0.172-3.257,0.259-4.885
					c0.043-0.826,0.076-1.703-0.333-2.422c-0.407-0.717-1.171-1.138-1.87-1.575c-1.805-1.13-2.965-2.757-4.544-4.069
					c-0.563,0.75-0.044,2.708,0.029,3.61c0.12,1.47,0.258,2.939,0.438,4.403C130.943,360.116,131.462,363.022,132.296,365.844z"/>
				<path fill="#9EBEE6" d="M145.629,329.152c0.108-1.003,0.263-2.005,0.258-3.015c-0.01-1.823-0.543-3.599-1.071-5.344
					c-0.71-2.348-1.42-4.694-2.13-7.041c-0.26-0.859-0.523-1.726-0.958-2.511c-1.144,0.192-2.331,0.116-3.441-0.221l0.163,0.113
					c-1.534,1.295-3.571,1.974-5.575,1.875c0.001-0.004,0.002-0.007,0.003-0.011c-0.22-0.106-0.59-0.073-0.864-0.194
					c-0.239-0.106-0.5-0.251-0.722-0.392c-0.345-0.217-0.749-0.697-0.567-1.13c-0.643,0.469-1.104,0.625-1.895,0.662
					c-0.559,0.025-1.244,0.073-1.688,0.455c-0.762,0.654-1.179,1.655-1.348,2.647c-0.016,0.046-0.032,0.092-0.046,0.139
					c-0.247,0.854-0.175,1.765-0.09,2.649c0.177,1.854,0.396,3.709,0.849,5.516c0.284,1.131,0.658,2.241,0.867,3.39
					c0.843,4.624-1.054,9.429-0.167,14.045c0.562-0.042,1.027,0.396,1.469,0.746c1.5,1.187,3.479,1.603,5.39,1.648
					c1.912,0.047,3.816-0.239,5.729-0.286c2.177-0.055,4.609,0.118,6.251-1.313C145.536,337.458,145.185,333.283,145.629,329.152z"
					/>
				<path fill="#5885C7" d="M141.448,312.838c-0.599-0.354-1.418-0.012-1.808,0.564c-0.39,0.577-0.454,1.309-0.468,2.005
					c-0.087,4.18,1.153,8.271,1.497,12.437c0.073,0.882,0.104,1.78-0.117,2.637c-0.213,0.828-0.653,1.58-0.927,2.391
					c-0.537,1.592-0.409,3.331-0.11,4.984c0.299,1.653,0.764,3.283,0.885,4.959c2.066-0.112,4.116-0.535,6.058-1.251
					c0.122-0.045,0.252-0.099,0.315-0.212c0.065-0.115,0.04-0.258,0.013-0.388c-0.793-3.928-0.746-7.976-0.481-11.974
					c0.067-1.015,0.147-2.033,0.07-3.048c-0.071-0.934-0.276-1.851-0.482-2.765c-0.498-2.209-1.054-4.514-2.547-6.216
					c-0.547-0.623-1.209-1.15-1.672-1.838c-0.464-0.688-0.698-1.621-0.292-2.344c0.188,0.283,0.375,0.567,0.563,0.851"/>
				<path fill="#9EBEE6" d="M138.927,313.258c0.461-0.655,1.053-1.206,1.641-1.751c0.464-0.431,0.929-0.862,1.393-1.293
					c0.421-0.391,0.842-0.781,1.295-1.134c0.446-0.348,0.92-0.655,1.394-0.963c0.811-0.526,1.622-1.053,2.432-1.579
					c2.55,2.387,4.273,5.639,4.816,9.089c-1.328,0.759-2.71,1.423-4.133,1.985c-1.392,0.551-2.847,1.009-4.344,1.047
					c-1.468,0.037-3.192-0.444-4.417-1.289C137.654,316.44,138.141,314.377,138.927,313.258z"/>
				<path fill="#5885C7" d="M137.286,309.288c0.098,0.102,0.041,0.064-0.027,0.002C137.267,309.29,137.277,309.29,137.286,309.288z"
					/>
			</g>
			<g clip-path="url(#SVGID_2_)">
				<ellipse fill="#C1D6F2" cx="355.245" cy="402.244" rx="39.878" ry="4.825"/>
				<path fill="#D29026" d="M344.972,322.617c0.413,0.191,0.91,0.191,1.357,0.189c0.906-0.005,1.806-0.062,2.688-0.287
					c1.469-0.374,2.636-1.251,3.923-2.003c0.388-0.226,0.751-0.5,1.139-0.721c0.206-0.117,0.475-0.169,0.638-0.34
					c-0.326-0.16-0.739-0.047-1.095-0.211c-0.995-0.46-1.632-1.543-1.94-2.542c-0.123-0.396-0.246-0.807-0.352-1.219
					c-0.072-0.281-0.134-0.563-0.182-0.84c-0.024-0.137-0.044-0.294-0.057-0.462c-0.038-0.489-0.021-1.069,0.12-1.489
					c0.046-0.063,0.093-0.128,0.138-0.191c-0.193,0.003-0.384-0.234-0.572-0.239c-0.27-0.009-0.591,0.36-0.786,0.525
					c-0.523,0.444-1.036,0.918-1.722,1.086c-0.902,0.223-1.941,0.54-2.859,0.359c0.326,0.465,0.484,1.138,0.591,1.714
					c0.013,0.067,0.024,0.131,0.035,0.195c0.103,0.583,0.24,1.133,0.218,1.729c0,0.017,0,0.034-0.002,0.052
					c-0.032,0.596-0.115,1.179-0.269,1.754C345.709,320.693,345.465,321.693,344.972,322.617z"/>
				<path fill="#EBA76C" d="M343.161,307.044c-0.113,0.688-0.49,1.258-0.532,1.97c-0.061,1.017-0.044,2.099,0.252,3.077
					c0.585,1.936,1.957,3.957,3.477,5.286c2.313,2.022,4.516-1.83,5.084-3.756c0.483-1.638,0.89-3.897-0.037-5.445
					c-0.742-1.24-1.84-2.539-3.291-2.889c-1.038-0.25-2.383-0.141-3.323,0.406C344.188,306.043,343.663,307.106,343.161,307.044z"/>
				<path fill="#1E3358" d="M350.616,309.814c-1.491-1.971-3.725-1.26-4.605-1.383c-1.687-0.235-2.795-1.604-2.954-3.21
					c-0.085-0.85-0.208-1.956,0.058-2.75c0.713,0.178,1.229,0.552,2.044,0.395c0.853-0.166,1.526-0.526,2.422-0.561
					c1.652-0.062,3.566,0.313,4.687,1.609c1.492,1.729,2.188,4.012,2.13,6.281c-0.017,0.679-1.827,6.356-3.036,5.532
					c-0.439-0.3-0.214-2.727-0.267-3.29C351.029,311.737,350.854,310.128,350.616,309.814z"/>
				<path fill="#1E3358" d="M344.013,304.968c-1.49-0.109-2.426,1.912-2.559,3.29c-0.126,1.309,0.358,2.699,0.814,3.898
					c0.244,0.642,0.522,1.287,0.879,1.863c0.119,0.193,0.737,1.313,1.023,1.282c0.534-0.058-0.262-1.568-0.356-1.814
					c-0.328-0.849-0.576-1.674-0.666-2.569c-0.131-1.308-0.161-2.607,0.44-3.814C344.02,306.243,344.323,305.865,344.013,304.968z"
					/>
				<path fill="#EBA76C" d="M350.642,310.746c0.172-0.467,0.173-0.854,0.546-1.185c0.264-0.234,0.604-0.346,0.876-0.027
					c0.558,0.652-0.185,1.559-0.49,2.128c-0.164,0.307-0.429,0.599-0.578,0.896c-0.104-0.358-0.097-0.747-0.169-1.104
					C350.791,311.275,350.744,310.72,350.642,310.746z"/>
				<path fill="#6190D5" d="M358.85,394.824c0.386,0.756-0.057,2.132,0.08,3.035c0.133,0.877,0.751,1.553,1.278,2.276
					c0.767,1.052,2.965,3.035,2.309,4.473c-0.843,1.848-3.119,1.073-4.304,0.18c-1.226-0.926-1.6-2.502-2.556-3.654
					c-0.778-0.938-0.817-1.717-0.579-2.876c0.229-1.115,0.209-2.241,0.27-3.424c0.745-0.094,1.554,0.116,2.304,0.149
					C357.997,394.999,359.006,395.057,358.85,394.824z"/>
				<path fill="#6190D5" d="M348.619,394.664c0.095,1.069-0.24,2.208-0.04,3.274c0.171,0.907,1.011,1.95,0.759,2.955
					c-0.25,0.996-1.536,1.034-2.378,1.296c-0.875,0.271-1.466,0.848-2.034,1.578c-1.146,1.473-3.887,1.888-5.334,0.403
					c-0.653-0.671-0.794-1.904-0.096-2.498c0.74-0.629,1.829-0.59,2.651-1.061c2.21-1.266,3.336-3.271,3.181-5.941
					c1.098,0.089,2.083,0.283,3.149,0.129C348.527,394.92,348.495,395.035,348.619,394.664z"/>
				<path fill="#F2A71D" d="M356.787,343.802c0.937,0.412,1.438,2.81,1.817,3.754c0.592,1.469,0.991,3.065,1.211,4.633
					c0.616,4.389-0.007,8.749-0.47,13.103c-0.184,1.727-0.515,3.45-0.646,5.188c-0.137,1.809,0.357,4.091,1.021,5.734
					c0.733,1.816,1.146,5.064,0.874,7.028c-0.277,2.002-0.087,2.188-0.292,4.191c-0.19,1.86-0.391,3.737-0.481,5.588
					c-0.034,0.704-0.114,1.385-0.081,2.098c0.037,0.762-0.169,1.462-0.172,2.187c0,0.132-0.108,0.235-0.24,0.232
					c-1.568-0.043-3.556,0.027-4.99-0.436c-0.058-0.019-0.099-0.07-0.105-0.13c-0.383-3.29-1.013-6.57-1.677-9.823
					c-1.028-5.039-1.956-10.098-2.943-15.144c-0.922-4.712-1.852-9.525-2.459-14.302c-0.287-2.258-0.431-4.531-0.433-6.808
					c-0.001-1.102,0.008-2.199,0.071-3.299c0.027-0.47-0.108-1.438,0.289-1.722c0.458-0.326,2.263-0.137,2.88-0.19
					c1.112-0.098,2.132-0.186,3.221-0.481c1.318-0.358,2.715-0.771,3.981-1.199C356.818,344.025,356.48,344.09,356.787,343.802z"/>
				<path fill="#4F4E4E" d="M350.41,345.876c0.05,0,0.099,0,0.146,0.002C350.502,345.789,350.453,345.803,350.41,345.876z"/>
				<path fill="#F2A71D" d="M339.055,360.173c0.001,4.925,0.96,9.774,1.992,14.568c1.056,4.901,1.917,9.769,2.618,14.729
					c0.265,1.877,0.377,3.823,0.749,5.653c0.07,0.346,0.129,1.12,0.312,1.393c0.342,0.517,1.066,0.32,1.759,0.32
					c0.589,0,1.335,0.134,1.896,0.062c0.793-0.101,0.867-0.496,0.983-1.303c0.444-3.063,0.487-5.425,0.633-7.837
					c0.116-1.937,0.34-3.676,0.174-5.583c-0.01-0.125-0.022-0.25-0.036-0.376c-0.352-3.124-0.813-6.221-1.23-9.327
					c-0.171-1.273-0.155-2.542-0.063-3.81c0.106-1.555,0.325-3.107,0.44-4.663c0.432-5.823-0.203-11.663,0.938-17.405
					c0.045-0.223,0.107-0.577,0.19-0.718c-3.088-0.005-7.603,1.885-10.321-0.291c0.063,2.484-0.672,4.807-0.794,7.241
					C339.173,355.253,339.055,357.69,339.055,360.173z"/>
				<path fill="#C4DFF8" d="M339.538,345.793c0.086-2.484,0.319-4.95,0.322-7.44c0.002-2.386,0.039-4.753,0.171-7.135
					c0.058-1.038,0.188-2.101,0.043-3.139c-0.149-1.065-0.268-2.098-0.268-3.181c0-0.997-0.075-3.056,0.958-3.533
					c0.786-0.362,1.626-0.688,2.409-1.068c0.869-0.422,1.998-1.221,2.962-1.323c-0.01,0.16,0.011,0.402,0.043,0.503
					c-0.012,0.015-0.021,0.027-0.032,0.042c0.081,1.153,1.174,1.605,2.181,1.754c1.359,0.203,2.576-0.136,3.594-1.13
					c0.42-0.408,0.824-0.988,0.929-1.538c0.561,0.302,1.192,0.368,1.838,0.404c0.326,0.157,0.681,0.278,1.04,0.355
					c0.61,0.228,1.238,0.408,1.858,0.623c0.513,0.409,1.076,0.713,1.753,0.78c0.418,0.231,0.825,0.484,1.212,0.745
					c0.081,0.229,0.139,0.478,0.188,0.739c0.306,1.593,0.509,3.08-0.399,4.453c-0.397,0.602-2.464,3.95-2.539,4.235
					c-0.144,0.553,0.004,1.35,0.004,1.93v0.264c-0.002,0.779-0.007,1.561,0,2.34c0.022,2.814,0.518,5.578,0.958,8.354
					c0.162,1.012,0.337,2.035,0.555,3.038c0.038,0.175,0.078,0.347,0.118,0.52c0.15,0.639,0.447,1.541,0.331,2.196
					c-0.311-0.023-0.748,0.139-1.057,0.208c-1.359,0.307-2.651,0.94-4.049,1.132c-2.259,0.309-4.593,0.414-6.881,0.424
					c-2.518,0.011-5.588,0.655-7.8-0.919c-0.492-0.35-0.334-0.873-0.334-1.491C339.649,347.886,339.502,346.846,339.538,345.793z"/>
				<path fill="#EBA76C" d="M355.704,325.242c0.808,0.717,2.487,0.108,3.307-0.302c1.021-0.511,1.797-1.496,2.461-2.374
					c2.117-2.794,4.237-5.559,6.07-8.589c0.91-1.503,2.177-2.861,2.802-4.479c0.138-0.358-0.197-1.494-0.283-1.866
					c-0.137-0.594-0.792-0.346-1.27-0.179c-2.676,0.939-4.694,3.218-6.561,5.305c-0.715,0.799-1.273,1.708-1.988,2.519
					c-1.09,1.238-2.194,2.494-3.1,3.872c-0.701,1.069-1.301,2.416-1.639,3.646c-0.168,0.611-0.405,1.462-0.138,2.084
					C355.537,325.276,355.849,325.454,355.704,325.242z"/>
				<path fill="#EBA76C" d="M369.686,310.098c0.656-0.469,0.805-1.325,0.987-2.051c0.604-2.401,0.79-4.914,1.071-7.394
					c0.229-2.03-0.009-4.119,0.412-6.169c0.393-1.913,1.324-3.755,1.541-5.72c0.119-1.08,0.151-2.796-0.415-3.958
					c-0.228-0.467-0.854-0.563-1.212-0.186c-0.175,0.185-0.331,0.379-0.428,0.554c-0.241,0.437-0.258,1.197-0.419,1.707
					c-0.312,0.982-0.799,1.998-1.017,2.985c-0.154-0.436-0.082-1.248-0.032-1.955c0.016-0.217-0.29-0.28-0.361-0.074
					c-0.324,0.939-0.614,2.102-0.722,2.854c-0.138,0.971,0.367,2.261,0.259,3.243c-0.191,1.734-0.918,2.987-1.385,4.674
					c-0.769,2.781-2.128,5.761-1.877,8.712c0.063,0.739-0.145,1.985,0.475,2.546C367,310.262,369.019,310.575,369.686,310.098z"/>
				<path fill="#4F4E4E" d="M338.774,332.58c-0.024-0.027-0.051-0.055-0.078-0.08C338.675,332.573,338.699,332.602,338.774,332.58z"
					/>
				<path fill="#D86F13" d="M345.929,360.979c0.234,2.525,0.579,5.062,1.438,7.465c0.65,1.813,0.978,3.84,1.067,5.752
					c0.04,0.844-0.105,1.653-0.108,2.495c-0.005,0.978,0.146,1.939,0.313,2.902c0.157,0.896,0.452,1.738,0.776,2.583
					c0.218,0.569,0.381,1.192,0.724,1.701c-0.009-0.562,0.009-1.131,0.032-1.702c-0.01-0.125-0.022-0.25-0.036-0.376
					c-0.352-3.124-0.813-6.221-1.23-9.327c-0.171-1.273-0.155-2.542-0.063-3.81c-0.24-1.043-0.408-2.147-0.515-3.201
					c-0.108-1.077-0.334-2.15-0.376-3.238c-0.041-1.027-0.009-2.555-0.412-3.487c-0.332-0.767-1.305-1.113-1.92-1.591
					C345.553,358.401,345.811,359.715,345.929,360.979z"/>
				<path fill="#C4DFF8" d="M365.569,316.823c-0.334-0.426-0.774-0.839-1.174-1.211c-0.445-0.414-0.888-0.833-1.331-1.251
					c-0.257-0.242-0.516-0.433-0.82-0.604c-0.333-0.188-0.916-0.301-1.121-0.598c-0.229,0.16-0.778,0.753-1.18,1.083
					c-0.619,0.51-1.238,0.938-1.796,1.524c-0.64,0.674-1.377,1.269-2.11,1.824c-0.913,0.692-1.957,1.324-3.077,1.5
					c-0.168,0.347-0.326,0.699-0.509,1.044c-0.182,0.346-0.401,0.645-0.652,0.914c-0.001,0.026-0.001,0.054-0.001,0.08
					c-0.014,0.553-0.058,1.09-0.151,1.637c-0.099,0.577-0.315,1.096-0.099,1.661c0.479,1.251,1.415,2.151,2.347,3.074
					c1.08,1.071,1.913,2.29,2.774,3.538c0.122,0.176,0.232,0.376,0.346,0.571c0.062-0.475,0.174-0.94,0.372-1.378
					c0.559-1.23,1.596-2.507,2.639-3.359c0.101-0.083,0.208-0.121,0.314-0.168c0.401-0.636,0.81-1.267,1.219-1.909
					c0.708-1.115,1.115-2.294,1.708-3.44c0.383-0.741,0.902-1.356,1.319-2.082c0.299-0.521,0.553-1.103,0.901-1.572
					C365.784,317.301,365.913,317.262,365.569,316.823z"/>
			</g>
		</g>
	</g>
</g>
<g id="DESIGNED_BY_FREEPIK" display="none">
	<g display="inline">
		<g id="XMLID_319_">
			<g id="XMLID_338_">
				<path id="XMLID_346_" fill="#222221" d="M260.104,465.465c-0.433,0.443-0.804,0.932-1.108,1.453l-0.465-0.241
					c-0.067-0.297-0.35-0.502-0.659-0.466c-0.331,0.039-0.567,0.339-0.529,0.67c0.039,0.331,0.339,0.567,0.67,0.528
					c0.065-0.007,0.127-0.025,0.184-0.052l0.451,0.234c-0.251,0.554-0.433,1.139-0.539,1.743l0.747,0.132
					c0.229-1.306,0.85-2.507,1.792-3.473L260.104,465.465z"/>
				<path id="XMLID_345_" fill="#222221" d="M265.591,463.164c-0.171,0-0.341,0.006-0.509,0.017l-0.074-0.626
					c0.188-0.149,0.296-0.389,0.266-0.645c-0.046-0.393-0.402-0.674-0.795-0.628c-0.394,0.046-0.675,0.402-0.628,0.796
					c0.03,0.254,0.189,0.461,0.404,0.563l0.073,0.624c-0.714,0.116-1.402,0.332-2.06,0.646l0.327,0.685
					c0.935-0.447,1.941-0.674,2.995-0.674c0.497,0,0.993,0.053,1.476,0.158l0.16-0.741
					C266.692,463.222,266.142,463.164,265.591,463.164z"/>
				<path id="XMLID_344_" fill="#222221" d="M272.194,465.71c0.331-0.04,0.566-0.341,0.525-0.672
					c-0.04-0.331-0.341-0.566-0.672-0.525c-0.31,0.038-0.535,0.304-0.53,0.608l-0.416,0.363c-0.418-0.43-0.89-0.813-1.407-1.14
					l-0.404,0.642c1.135,0.715,2.021,1.727,2.563,2.925l0.69-0.313c-0.251-0.554-0.567-1.071-0.942-1.545l0.402-0.351
					C272.065,465.715,272.128,465.719,272.194,465.71z"/>
				<path id="XMLID_343_" fill="#222221" d="M265.044,473.372c-0.386,0.023-0.775,0.035-1.157,0.035c-0.88,0-1.733-0.061-2.479-0.18
					c-0.391-0.062-0.846-0.154-1.271-0.292c1.047,1.861,3.069,3.125,5.389,3.125c2.855,0,5.263-1.916,5.949-4.503
					c-0.682,0.449-1.505,0.825-2.458,1.122C267.838,473.047,266.463,473.287,265.044,473.372z"/>
				<path id="XMLID_339_" fill="#222221" d="M265.591,464.68c-3.352,0-6.079,2.666-6.079,5.943c0,0.425,0.046,0.849,0.137,1.261
					c0.674,0.483,2.706,0.891,5.348,0.731c2.88-0.174,5.297-0.958,6.672-2.159c-0.005-0.194-0.021-0.39-0.045-0.581
					C271.244,466.914,268.65,464.68,265.591,464.68z M263.432,471.195c-1.02,0-1.85-0.83-1.85-1.85c0-1.021,0.83-1.851,1.85-1.851
					s1.85,0.83,1.85,1.851C265.282,470.365,264.452,471.195,263.432,471.195z M268.169,470.287c-0.75,0-1.36-0.61-1.36-1.36
					s0.61-1.36,1.36-1.36s1.36,0.61,1.36,1.36S268.919,470.287,268.169,470.287z"/>
			</g>
			<path id="XMLID_336_" fill="#222221" d="M281.595,466.547c-0.295-0.116-0.806-0.31-1.383-0.238
				c-0.551,0.069-0.844,0.341-0.844,1.007v0.866h2.229v1.717h-2.229v5.455h-1.932v-5.455h-1.339v-1.717h1.339v-0.889
				c0-1.68,0.896-2.782,2.568-2.782c0.643,0,1.157,0.121,1.59,0.308V466.547z"/>
			<path id="XMLID_334_" fill="#222221" d="M286.297,469.878c-0.177-0.029-0.357-0.046-0.525-0.046c-0.896,0-1.51,0.548-1.51,1.613
				v3.908h-1.933v-7.172h1.873v0.784c0.451-0.673,1.14-0.977,2.021-0.977c0.414,0,0.848,0.128,1.095,0.337L286.297,469.878z"/>
			<path id="XMLID_331_" fill="#222221" d="M293.965,471.757c0,0.222-0.016,0.488-0.037,0.651h-5.085
				c0.207,1.036,0.933,1.487,1.843,1.487c0.622,0,1.295-0.252,1.813-0.688l1.133,1.243c-0.814,0.748-1.851,1.089-3.057,1.089
				c-2.198,0-3.724-1.496-3.724-3.753c0-2.258,1.48-3.797,3.627-3.797C292.543,467.99,293.958,469.522,293.965,471.757z
				 M288.851,471.091h3.175c-0.178-0.918-0.732-1.437-1.562-1.437C289.554,469.655,289.021,470.203,288.851,471.091z"/>
			<path id="XMLID_328_" fill="#222221" d="M301.619,471.757c0,0.222-0.016,0.488-0.037,0.651h-5.085
				c0.207,1.036,0.933,1.487,1.843,1.487c0.622,0,1.296-0.252,1.813-0.688l1.133,1.243c-0.814,0.748-1.851,1.089-3.058,1.089
				c-2.198,0-3.723-1.496-3.723-3.753c0-2.258,1.48-3.797,3.627-3.797C300.197,467.99,301.611,469.522,301.619,471.757z
				 M296.504,471.091h3.175c-0.178-0.918-0.733-1.437-1.562-1.437C297.208,469.655,296.674,470.203,296.504,471.091z"/>
			<path id="XMLID_325_" fill="#222221" d="M309.964,471.764c0,2.154-1.495,3.775-3.472,3.775c-0.962,0-1.644-0.378-2.109-0.933
				v3.708h-1.925v-10.133h1.888v0.792c0.467-0.585,1.154-0.984,2.139-0.984C308.469,467.99,309.964,469.611,309.964,471.764z
				 M304.287,471.764c0,1.133,0.748,1.977,1.844,1.977c1.14,0,1.85-0.881,1.85-1.977c0-1.095-0.71-1.976-1.85-1.976
				C305.035,469.789,304.287,470.632,304.287,471.764z"/>
			<path id="XMLID_322_" fill="#222221" d="M313.068,465.835c0,0.696-0.541,1.229-1.236,1.229c-0.696,0-1.229-0.533-1.229-1.229
				c0-0.695,0.532-1.243,1.229-1.243C312.527,464.592,313.068,465.14,313.068,465.835z M312.808,475.354h-1.932v-7.172h1.932
				V475.354z"/>
			<path id="XMLID_320_" fill="#222221" d="M316.032,470.736l2.702-2.554h2.368l-3.479,3.375l3.501,3.797h-2.376l-2.717-2.901v2.901
				H314.1v-10.658h1.932V470.736z"/>
		</g>
		<g>
			<path fill="#222221" d="M184.412,475.29v-1.055c-0.527,0.718-1.391,1.23-2.387,1.23c-1.846,0-3.149-1.406-3.149-3.706
				c0-2.256,1.289-3.721,3.149-3.721c0.952,0,1.816,0.469,2.387,1.245v-3.765h1.099v9.771H184.412z M184.412,473.371v-3.208
				c-0.395-0.615-1.245-1.143-2.124-1.143c-1.42,0-2.27,1.172-2.27,2.739s0.85,2.725,2.27,2.725
				C183.167,474.484,184.017,473.986,184.412,473.371z"/>
			<path fill="#222221" d="M186.932,471.745c0-2.051,1.465-3.706,3.486-3.706c2.139,0,3.398,1.67,3.398,3.794v0.278h-5.727
				c0.088,1.333,1.025,2.446,2.549,2.446c0.806,0,1.626-0.322,2.182-0.894l0.527,0.718c-0.703,0.703-1.655,1.084-2.812,1.084
				C188.44,475.465,186.932,473.957,186.932,471.745z M190.403,468.947c-1.509,0-2.256,1.274-2.314,2.358h4.644
				C192.718,470.25,192.015,468.947,190.403,468.947z"/>
			<path fill="#222221" d="M194.607,474.352l0.571-0.791c0.469,0.542,1.362,1.011,2.329,1.011c1.084,0,1.67-0.513,1.67-1.216
				c0-1.714-4.38-0.659-4.38-3.281c0-1.099,0.952-2.036,2.636-2.036c1.202,0,2.051,0.454,2.623,1.025l-0.513,0.762
				c-0.424-0.513-1.201-0.894-2.109-0.894c-0.966,0-1.567,0.483-1.567,1.113c0,1.553,4.379,0.527,4.379,3.281
				c0,1.187-0.952,2.139-2.783,2.139C196.306,475.465,195.325,475.114,194.607,474.352z"/>
			<path fill="#222221" d="M201.477,466.471c0-0.41,0.337-0.747,0.732-0.747c0.41,0,0.747,0.337,0.747,0.747
				s-0.337,0.732-0.747,0.732C201.814,467.204,201.477,466.881,201.477,466.471z M201.667,475.29v-7.075h1.099v7.075H201.667z"/>
			<path fill="#222221" d="M204.582,477.106l0.556-0.82c0.586,0.703,1.289,0.967,2.3,0.967c1.172,0,2.271-0.571,2.271-2.124v-1.011
				c-0.513,0.718-1.377,1.26-2.373,1.26c-1.846,0-3.149-1.377-3.149-3.662c0-2.271,1.289-3.677,3.149-3.677
				c0.952,0,1.802,0.469,2.373,1.245v-1.069h1.099v6.87c0,2.344-1.641,3.076-3.369,3.076
				C206.237,478.161,205.417,477.925,204.582,477.106z M209.708,473.253v-3.091c-0.381-0.615-1.23-1.143-2.109-1.143
				c-1.421,0-2.27,1.128-2.27,2.695c0,1.553,0.849,2.695,2.27,2.695C208.478,474.411,209.328,473.869,209.708,473.253z"/>
			<path fill="#222221" d="M217.413,475.29v-4.629c0-1.245-0.63-1.641-1.582-1.641c-0.864,0-1.685,0.527-2.094,1.099v5.171h-1.099
				v-7.075h1.099v1.025c0.498-0.586,1.464-1.201,2.519-1.201c1.479,0,2.256,0.747,2.256,2.285v4.966H217.413z"/>
			<path fill="#222221" d="M219.932,471.745c0-2.051,1.465-3.706,3.486-3.706c2.139,0,3.398,1.67,3.398,3.794v0.278h-5.727
				c0.088,1.333,1.025,2.446,2.548,2.446c0.806,0,1.626-0.322,2.183-0.894l0.527,0.718c-0.703,0.703-1.655,1.084-2.813,1.084
				C221.441,475.465,219.932,473.957,219.932,471.745z M223.404,468.947c-1.509,0-2.256,1.274-2.314,2.358h4.643
				C225.718,470.25,225.015,468.947,223.404,468.947z"/>
			<path fill="#222221" d="M233.35,475.29v-1.055c-0.527,0.718-1.392,1.23-2.388,1.23c-1.845,0-3.149-1.406-3.149-3.706
				c0-2.256,1.289-3.721,3.149-3.721c0.952,0,1.817,0.469,2.388,1.245v-3.765h1.098v9.771H233.35z M233.35,473.371v-3.208
				c-0.396-0.615-1.245-1.143-2.124-1.143c-1.421,0-2.271,1.172-2.271,2.739s0.85,2.725,2.271,2.725
				C232.105,474.484,232.954,473.986,233.35,473.371z"/>
			<path fill="#222221" d="M239.692,475.29v-9.771h1.099v3.765c0.571-0.776,1.421-1.245,2.388-1.245
				c1.845,0,3.149,1.465,3.149,3.721c0,2.3-1.304,3.706-3.149,3.706c-0.996,0-1.86-0.513-2.388-1.23v1.055H239.692z M242.9,474.484
				c1.436,0,2.285-1.157,2.285-2.725s-0.85-2.739-2.285-2.739c-0.864,0-1.729,0.527-2.109,1.143v3.208
				C241.171,473.986,242.036,474.484,242.9,474.484z"/>
			<path fill="#222221" d="M247.528,477.062c0.161,0.073,0.425,0.117,0.601,0.117c0.483,0,0.806-0.161,1.055-0.747l0.469-1.069
				l-2.959-7.148h1.187l2.358,5.801l2.344-5.801h1.2l-3.544,8.511c-0.425,1.024-1.143,1.421-2.08,1.436
				c-0.234,0-0.601-0.044-0.806-0.104L247.528,477.062z"/>
		</g>
	</g>
</g>
</svg>
