<?xml version="1.0" encoding="utf-8"?>
<!-- Generator: Adobe Illustrator 16.0.0, SVG Export Plug-In . SVG Version: 6.00 Build 0)  -->
<!DOCTYPE svg PUBLIC "-//W3C//DTD SVG 1.1//EN" "http://www.w3.org/Graphics/SVG/1.1/DTD/svg11.dtd">
<svg version="1.1" xmlns="http://www.w3.org/2000/svg" xmlns:xlink="http://www.w3.org/1999/xlink" x="0px" y="0px" width="3100px"
	 height="2100px" viewBox="0 0 3100 2100" enable-background="new 0 0 3100 2100" xml:space="preserve">
<g id="bacground" display="none">
	<rect display="inline" fill="#E3EEFC" width="3099.776" height="2100"/>
</g>
<g id="back_white">
	<path fill="#FFFFFF" d="M2725.589,1839.031H395.76c-65.165,0-118.482-53.316-118.482-118.481V378.357
		c0-65.165,53.317-118.482,118.482-118.482h2329.829c65.165,0,118.481,53.317,118.481,118.482V1720.55
		C2844.07,1785.715,2790.754,1839.031,2725.589,1839.031z"/>
</g>
<g id="text_2">
	<g>
		<g>
			<g>
				<path d="M989.466,1507.696H974.06v12.598h17.896v3.833h-22.583v-35.547h22.338v3.833H974.06v11.45h15.406V1507.696z"/>
				<path d="M1009.851,1501.764c-0.684-0.113-1.424-0.171-2.221-0.171c-2.962,0-4.973,1.262-6.031,3.784v18.75h-4.517v-26.416h4.395
					l0.073,3.052c1.481-2.359,3.581-3.54,6.299-3.54c0.879,0,1.546,0.114,2.002,0.342V1501.764z"/>
			</g>
		</g>
		<g>
			<g>
				<path d="M1026.771,1501.764c-0.684-0.113-1.424-0.171-2.223-0.171c-2.961,0-4.971,1.262-6.029,3.784v18.75h-4.517v-26.416h4.395
					l0.074,3.052c1.481-2.359,3.58-3.54,6.298-3.54c0.879,0,1.546,0.114,2.002,0.342V1501.764z"/>
			</g>
		</g>
		<g>
			<g>
				<path d="M1029.236,1510.675c0-2.588,0.508-4.915,1.526-6.982c1.017-2.066,2.433-3.662,4.248-4.785s3.886-1.685,6.213-1.685
					c3.597,0,6.506,1.245,8.728,3.735s3.333,5.803,3.333,9.937v0.317c0,2.572-0.493,4.879-1.478,6.921
					c-0.985,2.043-2.392,3.635-4.223,4.773c-1.832,1.14-3.936,1.709-6.312,1.709c-3.581,0-6.481-1.245-8.703-3.735
					c-2.221-2.49-3.333-5.786-3.333-9.888V1510.675z M1033.777,1511.212c0,2.93,0.679,5.282,2.039,7.056
					c1.359,1.774,3.178,2.661,5.457,2.661c2.295,0,4.118-0.899,5.469-2.698c1.35-1.798,2.026-4.316,2.026-7.556
					c0-2.896-0.688-5.245-2.063-7.044c-1.375-1.798-3.203-2.697-5.481-2.697c-2.229,0-4.028,0.888-5.395,2.661
					C1034.461,1505.369,1033.777,1507.908,1033.777,1511.212z"/>
				<path d="M1071.716,1501.764c-0.683-0.113-1.424-0.171-2.222-0.171c-2.962,0-4.972,1.262-6.03,3.784v18.75h-4.517v-26.416h4.394
					l0.073,3.052c1.481-2.359,3.581-3.54,6.299-3.54c0.879,0,1.546,0.114,2.002,0.342V1501.764z"/>
				<path d="M1110.608,1511.212c0,4.037-0.928,7.279-2.783,9.729c-1.855,2.449-4.345,3.674-7.47,3.674
					c-3.337,0-5.917-1.18-7.74-3.54l-0.219,3.052h-4.15v-37.5h4.517v13.989c1.822-2.262,4.337-3.394,7.544-3.394
					c3.206,0,5.725,1.213,7.556,3.638c1.831,2.426,2.746,5.746,2.746,9.961V1511.212z M1106.091,1510.699
					c0-3.076-0.594-5.452-1.782-7.129c-1.188-1.676-2.897-2.515-5.127-2.515c-2.979,0-5.119,1.384-6.421,4.15v11.426
					c1.383,2.768,3.54,4.15,6.47,4.15c2.165,0,3.849-0.838,5.053-2.515C1105.489,1516.592,1106.091,1514.068,1106.091,1510.699z"/>
				<path d="M1132.605,1524.127c-0.261-0.521-0.472-1.448-0.634-2.783c-2.1,2.182-4.606,3.271-7.519,3.271
					c-2.605,0-4.741-0.736-6.409-2.209c-1.669-1.474-2.502-3.341-2.502-5.604c0-2.75,1.045-4.887,3.137-6.408
					c2.091-1.522,5.034-2.283,8.826-2.283h4.395v-2.075c0-1.578-0.472-2.836-1.416-3.772c-0.944-0.936-2.336-1.403-4.174-1.403
					c-1.611,0-2.962,0.407-4.053,1.221c-1.091,0.814-1.635,1.799-1.635,2.954h-4.541c0-1.318,0.467-2.592,1.403-3.82
					c0.935-1.229,2.205-2.201,3.808-2.918c1.603-0.716,3.365-1.074,5.286-1.074c3.044,0,5.428,0.761,7.153,2.283
					c1.726,1.521,2.62,3.617,2.686,6.286v12.158c0,2.426,0.31,4.354,0.928,5.786v0.391H1132.605z M1125.11,1520.685
					c1.416,0,2.76-0.366,4.029-1.099c1.27-0.732,2.188-1.685,2.758-2.856v-5.42h-3.54c-5.534,0-8.301,1.62-8.301,4.858
					c0,1.416,0.472,2.523,1.416,3.32C1122.416,1520.286,1123.629,1520.685,1125.11,1520.685z"/>
				<path d="M1142.396,1510.699c0-4.053,0.96-7.313,2.88-9.777c1.92-2.467,4.436-3.699,7.544-3.699c3.092,0,5.542,1.059,7.349,3.174
					v-13.77h4.517v37.5h-4.151l-0.219-2.832c-1.807,2.214-4.321,3.32-7.544,3.32c-3.06,0-5.555-1.253-7.483-3.76
					c-1.929-2.506-2.893-5.777-2.893-9.814V1510.699z M1146.912,1511.212c0,2.995,0.618,5.339,1.855,7.031
					c1.237,1.693,2.946,2.539,5.127,2.539c2.864,0,4.956-1.285,6.274-3.857v-12.134c-1.351-2.49-3.426-3.735-6.226-3.735
					c-2.214,0-3.939,0.854-5.176,2.563C1147.53,1505.328,1146.912,1507.859,1146.912,1511.212z"/>
				<path d="M1182.996,1510.699c0-4.117,0.952-7.394,2.856-9.826c1.904-2.434,4.427-3.65,7.569-3.65c3.222,0,5.737,1.14,7.544,3.418
					l0.219-2.93h4.126v25.781c0,3.418-1.014,6.111-3.04,8.081c-2.026,1.969-4.748,2.954-8.167,2.954
					c-1.904,0-3.768-0.407-5.59-1.221c-1.823-0.814-3.215-1.929-4.175-3.345l2.344-2.71c1.937,2.393,4.305,3.589,7.104,3.589
					c2.197,0,3.91-0.619,5.139-1.855c1.229-1.237,1.843-2.979,1.843-5.225v-2.271c-1.807,2.084-4.272,3.125-7.397,3.125
					c-3.093,0-5.595-1.245-7.507-3.735S1182.996,1514.996,1182.996,1510.699z M1187.537,1511.212c0,2.979,0.61,5.318,1.832,7.019
					c1.22,1.701,2.929,2.552,5.126,2.552c2.849,0,4.94-1.294,6.274-3.882v-12.061c-1.383-2.522-3.458-3.784-6.226-3.784
					c-2.197,0-3.915,0.854-5.151,2.563S1187.537,1507.859,1187.537,1511.212z"/>
				<path d="M1228.431,1524.127c-0.261-0.521-0.472-1.448-0.635-2.783c-2.099,2.182-4.606,3.271-7.52,3.271
					c-2.604,0-4.741-0.736-6.409-2.209c-1.668-1.474-2.502-3.341-2.502-5.604c0-2.75,1.046-4.887,3.138-6.408
					c2.091-1.522,5.033-2.283,8.826-2.283h4.395v-2.075c0-1.578-0.472-2.836-1.416-3.772c-0.945-0.936-2.336-1.403-4.175-1.403
					c-1.611,0-2.962,0.407-4.053,1.221c-1.09,0.814-1.635,1.799-1.635,2.954h-4.542c0-1.318,0.468-2.592,1.405-3.82
					c0.935-1.229,2.205-2.201,3.808-2.918c1.604-0.716,3.365-1.074,5.286-1.074c3.043,0,5.428,0.761,7.154,2.283
					c1.725,1.521,2.62,3.617,2.686,6.286v12.158c0,2.426,0.309,4.354,0.927,5.786v0.391H1228.431z M1220.935,1520.685
					c1.416,0,2.759-0.366,4.028-1.099s2.189-1.685,2.759-2.856v-5.42h-3.54c-5.535,0-8.301,1.62-8.301,4.858
					c0,1.416,0.471,2.523,1.416,3.32C1218.242,1520.286,1219.454,1520.685,1220.935,1520.685z"/>
				<path d="M1245.447,1491.314v6.396h4.931v3.491h-4.931v16.402c0,1.06,0.219,1.854,0.659,2.384
					c0.439,0.529,1.187,0.794,2.246,0.794c0.521,0,1.237-0.098,2.149-0.293v3.641c-1.189,0.323-2.344,0.485-3.466,0.485
					c-2.02,0-3.54-0.61-4.566-1.831c-1.025-1.221-1.538-2.954-1.538-5.2v-16.382h-4.81v-3.491h4.81v-6.396H1245.447z"/>
				<path d="M1266.614,1524.615c-3.581,0-6.494-1.176-8.74-3.527c-2.246-2.353-3.369-5.497-3.369-9.437v-0.83
					c0-2.62,0.5-4.96,1.501-7.019c1.001-2.06,2.4-3.671,4.2-4.834c1.798-1.164,3.748-1.746,5.847-1.746
					c3.434,0,6.104,1.132,8.008,3.394c1.905,2.263,2.857,5.502,2.857,9.717v1.88h-17.896c0.064,2.604,0.827,4.708,2.283,6.311
					c1.457,1.604,3.308,2.405,5.554,2.405c1.595,0,2.946-0.325,4.052-0.977c1.106-0.65,2.075-1.514,2.905-2.588l2.759,2.148
					C1274.361,1522.915,1271.041,1524.615,1266.614,1524.615z M1266.052,1500.934c-1.823,0-3.353,0.663-4.59,1.99
					c-1.237,1.326-2.001,3.186-2.295,5.578h13.232v-0.342c-0.13-2.295-0.749-4.073-1.855-5.334
					C1269.438,1501.564,1267.94,1500.934,1266.052,1500.934z"/>
				<path d="M1305.53,1517.901l5.078-20.19h4.517l-7.69,26.416h-3.663l-6.421-20.02l-6.25,20.02h-3.662l-7.667-26.416h4.492
					l5.201,19.775l6.153-19.775h3.637L1305.53,1517.901z"/>
			</g>
		</g>
		<g>
			<g>
				<path d="M1336.023,1524.127c-0.261-0.521-0.472-1.448-0.635-2.783c-2.099,2.182-4.606,3.271-7.519,3.271
					c-2.605,0-4.742-0.736-6.41-2.209c-1.668-1.474-2.502-3.341-2.502-5.604c0-2.75,1.046-4.887,3.137-6.408
					c2.092-1.522,5.033-2.283,8.826-2.283h4.395v-2.075c0-1.578-0.472-2.836-1.416-3.772c-0.945-0.936-2.336-1.403-4.175-1.403
					c-1.611,0-2.962,0.407-4.053,1.221c-1.09,0.814-1.635,1.799-1.635,2.954h-4.542c0-1.318,0.468-2.592,1.404-3.82
					c0.936-1.229,2.205-2.201,3.809-2.918c1.603-0.716,3.365-1.074,5.286-1.074c3.042,0,5.427,0.761,7.153,2.283
					c1.725,1.521,2.62,3.617,2.685,6.286v12.158c0,2.426,0.31,4.354,0.928,5.786v0.391H1336.023z M1328.528,1520.685
					c1.416,0,2.758-0.366,4.028-1.099c1.271-0.732,2.189-1.685,2.759-2.856v-5.42h-3.54c-5.534,0-8.301,1.62-8.301,4.858
					c0,1.416,0.471,2.523,1.416,3.32C1325.834,1520.286,1327.046,1520.685,1328.528,1520.685z"/>
			</g>
		</g>
		<g>
			<g>
				<path d="M1355.188,1517.511l6.152-19.8h4.834l-10.62,30.493c-1.644,4.395-4.256,6.592-7.837,6.592l-0.854-0.073l-1.685-0.317
					v-3.662l1.221,0.098c1.53,0,2.722-0.31,3.577-0.928c0.854-0.619,1.559-1.75,2.111-3.394l1.001-2.686l-9.424-26.123h4.931
					L1355.188,1517.511z"/>
			</g>
		</g>
		<g>
			<g>
				<path d="M1367.444,1531.207l-2.563-1.758c1.53-2.133,2.327-4.33,2.392-6.592v-4.077h4.419v3.54c0,1.645-0.403,3.287-1.208,4.932
					C1369.678,1528.896,1368.665,1530.214,1367.444,1531.207z"/>
				<path d="M1412.098,1511.212c0,4.021-0.92,7.26-2.759,9.717c-1.839,2.458-4.33,3.687-7.47,3.687c-3.207,0-5.73-1.017-7.569-3.052
					v12.72h-4.516v-36.572h4.126l0.219,2.93c1.838-2.278,4.395-3.418,7.666-3.418c3.174,0,5.684,1.196,7.532,3.589
					c1.847,2.393,2.771,5.722,2.771,9.985V1511.212z M1407.581,1510.699c0-2.979-0.635-5.33-1.905-7.056
					c-1.269-1.725-3.011-2.588-5.224-2.588c-2.735,0-4.786,1.213-6.153,3.638v12.622c1.351,2.409,3.418,3.613,6.202,3.613
					c2.164,0,3.886-0.858,5.163-2.575C1406.942,1516.636,1407.581,1514.085,1407.581,1510.699z"/>
				<path d="M1422.743,1524.127h-4.518v-37.5h4.518V1524.127z"/>
				<path d="M1440.931,1524.615c-3.581,0-6.495-1.176-8.741-3.527c-2.246-2.353-3.369-5.497-3.369-9.437v-0.83
					c0-2.62,0.501-4.96,1.501-7.019c1.001-2.06,2.401-3.671,4.199-4.834c1.799-1.164,3.748-1.746,5.848-1.746
					c3.434,0,6.103,1.132,8.007,3.394c1.904,2.263,2.856,5.502,2.856,9.717v1.88h-17.895c0.064,2.604,0.825,4.708,2.282,6.311
					c1.458,1.604,3.308,2.405,5.554,2.405c1.595,0,2.946-0.325,4.053-0.977c1.106-0.65,2.075-1.514,2.905-2.588l2.759,2.148
					C1448.678,1522.915,1445.357,1524.615,1440.931,1524.615z M1440.37,1500.934c-1.824,0-3.354,0.663-4.59,1.99
					c-1.238,1.326-2.002,3.186-2.295,5.578h13.232v-0.342c-0.13-2.295-0.749-4.073-1.855-5.334
					C1443.754,1501.564,1442.257,1500.934,1440.37,1500.934z"/>
				<path d="M1472.767,1524.127c-0.261-0.521-0.473-1.448-0.635-2.783c-2.099,2.182-4.606,3.271-7.519,3.271
					c-2.605,0-4.741-0.736-6.409-2.209c-1.668-1.474-2.501-3.341-2.501-5.604c0-2.75,1.045-4.887,3.136-6.408
					c2.092-1.522,5.033-2.283,8.826-2.283h4.395v-2.075c0-1.578-0.472-2.836-1.416-3.772c-0.945-0.936-2.336-1.403-4.175-1.403
					c-1.611,0-2.962,0.407-4.053,1.221c-1.09,0.814-1.635,1.799-1.635,2.954h-4.542c0-1.318,0.468-2.592,1.404-3.82
					c0.935-1.229,2.206-2.201,3.809-2.918c1.603-0.716,3.365-1.074,5.285-1.074c3.043,0,5.428,0.761,7.154,2.283
					c1.725,1.521,2.62,3.617,2.685,6.286v12.158c0,2.426,0.31,4.354,0.928,5.786v0.391H1472.767z M1465.271,1520.685
					c1.416,0,2.758-0.366,4.028-1.099s2.189-1.685,2.759-2.856v-5.42h-3.54c-5.535,0-8.301,1.62-8.301,4.858
					c0,1.416,0.471,2.523,1.416,3.32C1462.577,1520.286,1463.79,1520.685,1465.271,1520.685z"/>
				<path d="M1499.036,1517.12c0-1.221-0.459-2.169-1.379-2.845c-0.92-0.675-2.523-1.257-4.809-1.745
					c-2.288-0.488-4.103-1.074-5.445-1.758c-1.342-0.684-2.336-1.497-2.978-2.441c-0.644-0.943-0.964-2.066-0.964-3.369
					c0-2.164,0.916-3.995,2.747-5.493c1.831-1.497,4.17-2.246,7.019-2.246c2.995,0,5.424,0.773,7.289,2.319
					c1.862,1.547,2.794,3.524,2.794,5.933h-4.541c0-1.236-0.524-2.303-1.574-3.198c-1.05-0.895-2.373-1.343-3.968-1.343
					c-1.644,0-2.93,0.358-3.856,1.074c-0.929,0.717-1.393,1.652-1.393,2.808c0,1.091,0.431,1.913,1.294,2.466
					c0.862,0.554,2.421,1.083,4.675,1.587c2.253,0.505,4.081,1.107,5.48,1.807c1.4,0.7,2.437,1.542,3.113,2.526
					c0.675,0.985,1.013,2.186,1.013,3.602c0,2.36-0.944,4.252-2.832,5.676c-1.888,1.425-4.338,2.137-7.348,2.137
					c-2.117,0-3.988-0.375-5.616-1.123c-1.627-0.748-2.9-1.795-3.821-3.137c-0.919-1.344-1.379-2.796-1.379-4.358h4.517
					c0.081,1.514,0.688,2.714,1.819,3.601c1.13,0.888,2.624,1.331,4.48,1.331c1.709,0,3.081-0.346,4.114-1.038
					C1498.519,1519.199,1499.036,1518.276,1499.036,1517.12z"/>
				<path d="M1520.397,1524.615c-3.581,0-6.493-1.176-8.739-3.527c-2.247-2.353-3.37-5.497-3.37-9.437v-0.83
					c0-2.62,0.5-4.96,1.501-7.019c1.001-2.06,2.4-3.671,4.199-4.834c1.798-1.164,3.747-1.746,5.847-1.746
					c3.434,0,6.103,1.132,8.007,3.394c1.905,2.263,2.857,5.502,2.857,9.717v1.88h-17.896c0.065,2.604,0.826,4.708,2.282,6.311
					c1.457,1.604,3.308,2.405,5.555,2.405c1.594,0,2.945-0.325,4.053-0.977c1.106-0.65,2.075-1.514,2.905-2.588l2.759,2.148
					C1528.145,1522.915,1524.825,1524.615,1520.397,1524.615z M1519.837,1500.934c-1.823,0-3.354,0.663-4.59,1.99
					c-1.237,1.326-2.001,3.186-2.294,5.578h13.231v-0.342c-0.129-2.295-0.749-4.073-1.855-5.334
					C1523.223,1501.564,1521.724,1500.934,1519.837,1500.934z"/>
				<path d="M1558.898,1520.929c1.611,0,3.02-0.488,4.225-1.465c1.204-0.977,1.871-2.197,2.002-3.662h4.271
					c-0.081,1.514-0.602,2.954-1.563,4.321c-0.959,1.367-2.242,2.458-3.844,3.271c-1.604,0.813-3.301,1.221-5.092,1.221
					c-3.597,0-6.457-1.2-8.581-3.602c-2.124-2.4-3.187-5.684-3.187-9.851v-0.757c0-2.571,0.472-4.858,1.416-6.86
					s2.299-3.556,4.065-4.663c1.767-1.106,3.854-1.66,6.263-1.66c2.962,0,5.424,0.888,7.385,2.661
					c1.962,1.774,3.007,4.077,3.137,6.909h-4.271c-0.131-1.709-0.777-3.113-1.941-4.211c-1.164-1.1-2.6-1.648-4.309-1.648
					c-2.295,0-4.074,0.826-5.335,2.479c-1.262,1.651-1.892,4.04-1.892,7.165v0.854c0,3.044,0.626,5.388,1.879,7.031
					C1554.781,1520.107,1556.571,1520.929,1558.898,1520.929z"/>
				<path d="M1573.279,1510.675c0-2.588,0.508-4.915,1.525-6.982c1.018-2.066,2.434-3.662,4.248-4.785s3.886-1.685,6.213-1.685
					c3.598,0,6.508,1.245,8.729,3.735c2.223,2.49,3.332,5.803,3.332,9.937v0.317c0,2.572-0.492,4.879-1.477,6.921
					c-0.984,2.043-2.393,3.635-4.223,4.773c-1.832,1.14-3.936,1.709-6.313,1.709c-3.58,0-6.481-1.245-8.703-3.735
					s-3.332-5.786-3.332-9.888V1510.675z M1577.82,1511.212c0,2.93,0.68,5.282,2.038,7.056c1.358,1.774,3.178,2.661,5.456,2.661
					c2.295,0,4.119-0.899,5.469-2.698c1.352-1.798,2.027-4.316,2.027-7.556c0-2.896-0.688-5.245-2.063-7.044
					c-1.376-1.798-3.202-2.697-5.481-2.697c-2.229,0-4.027,0.888-5.395,2.661C1578.504,1505.369,1577.82,1507.908,1577.82,1511.212z
					"/>
				<path d="M1607.265,1497.711l0.146,3.32c2.018-2.539,4.654-3.809,7.91-3.809c5.582,0,8.398,3.149,8.447,9.448v17.456h-4.518
					v-17.48c-0.016-1.904-0.451-3.312-1.305-4.224c-0.855-0.911-2.186-1.367-3.992-1.367c-1.465,0-2.75,0.391-3.856,1.172
					c-1.108,0.781-1.97,1.807-2.589,3.076v18.823h-4.518v-26.416H1607.265z"/>
				<path d="M1636.707,1491.314v6.396h4.933v3.491h-4.933v16.402c0,1.06,0.219,1.854,0.658,2.384s1.189,0.794,2.246,0.794
					c0.521,0,1.237-0.098,2.148-0.293v3.641c-1.188,0.323-2.344,0.485-3.467,0.485c-2.018,0-3.539-0.61-4.564-1.831
					s-1.539-2.954-1.539-5.2v-16.382h-4.809v-3.491h4.809v-6.396H1636.707z"/>
				<path d="M1663.222,1524.127c-0.262-0.521-0.474-1.448-0.636-2.783c-2.1,2.182-4.605,3.271-7.52,3.271
					c-2.604,0-4.74-0.736-6.408-2.209c-1.67-1.474-2.504-3.341-2.504-5.604c0-2.75,1.046-4.887,3.138-6.408
					c2.091-1.522,5.034-2.283,8.825-2.283h4.396v-2.075c0-1.578-0.473-2.836-1.416-3.772c-0.944-0.936-2.335-1.403-4.175-1.403
					c-1.611,0-2.963,0.407-4.053,1.221c-1.091,0.814-1.637,1.799-1.637,2.954h-4.541c0-1.318,0.468-2.592,1.405-3.82
					c0.935-1.229,2.204-2.201,3.808-2.918c1.604-0.716,3.365-1.074,5.285-1.074c3.045,0,5.43,0.761,7.154,2.283
					c1.725,1.521,2.62,3.617,2.686,6.286v12.158c0,2.426,0.309,4.354,0.928,5.786v0.391H1663.222z M1655.725,1520.685
					c1.416,0,2.76-0.366,4.029-1.099s2.188-1.685,2.759-2.856v-5.42h-3.539c-5.535,0-8.302,1.62-8.302,4.858
					c0,1.416,0.473,2.523,1.416,3.32C1653.031,1520.286,1654.244,1520.685,1655.725,1520.685z"/>
				<path d="M1684.705,1520.929c1.611,0,3.02-0.488,4.223-1.465c1.205-0.977,1.873-2.197,2.003-3.662h4.272
					c-0.082,1.514-0.602,2.954-1.563,4.321c-0.96,1.367-2.243,2.458-3.846,3.271c-1.604,0.813-3.3,1.221-5.09,1.221
					c-3.598,0-6.458-1.2-8.582-3.602c-2.123-2.4-3.186-5.684-3.186-9.851v-0.757c0-2.571,0.473-4.858,1.416-6.86
					s2.298-3.556,4.064-4.663c1.766-1.106,3.854-1.66,6.263-1.66c2.962,0,5.423,0.888,7.386,2.661
					c1.96,1.774,3.006,4.077,3.137,6.909h-4.272c-0.13-1.709-0.778-3.113-1.94-4.211c-1.164-1.1-2.601-1.648-4.31-1.648
					c-2.296,0-4.074,0.826-5.334,2.479c-1.263,1.651-1.894,4.04-1.894,7.165v0.854c0,3.044,0.627,5.388,1.881,7.031
					C1680.588,1520.107,1682.377,1520.929,1684.705,1520.929z"/>
				<path d="M1706.408,1491.314v6.396h4.932v3.491h-4.932v16.402c0,1.06,0.221,1.854,0.66,2.384s1.188,0.794,2.246,0.794
					c0.521,0,1.236-0.098,2.148-0.293v3.641c-1.188,0.323-2.344,0.485-3.467,0.485c-2.019,0-3.541-0.61-4.565-1.831
					c-1.026-1.221-1.538-2.954-1.538-5.2v-16.382h-4.811v-3.491h4.811v-6.396H1706.408z"/>
				<path d="M1745.301,1524.127c-0.261-0.521-0.473-1.448-0.635-2.783c-2.1,2.182-4.605,3.271-7.52,3.271
					c-2.604,0-4.74-0.736-6.408-2.209c-1.67-1.474-2.504-3.341-2.504-5.604c0-2.75,1.047-4.887,3.138-6.408
					c2.091-1.522,5.034-2.283,8.825-2.283h4.395v-2.075c0-1.578-0.472-2.836-1.416-3.772c-0.943-0.936-2.335-1.403-4.174-1.403
					c-1.611,0-2.963,0.407-4.053,1.221c-1.091,0.814-1.637,1.799-1.637,2.954h-4.541c0-1.318,0.468-2.592,1.404-3.82
					c0.936-1.229,2.205-2.201,3.809-2.918c1.604-0.716,3.365-1.074,5.285-1.074c3.044,0,5.429,0.761,7.154,2.283
					c1.725,1.521,2.62,3.617,2.686,6.286v12.158c0,2.426,0.309,4.354,0.928,5.786v0.391H1745.301z M1737.805,1520.685
					c1.417,0,2.76-0.366,4.029-1.099s2.188-1.685,2.758-2.856v-5.42h-3.539c-5.534,0-8.301,1.62-8.301,4.858
					c0,1.416,0.473,2.523,1.416,3.32C1735.111,1520.286,1736.324,1520.685,1737.805,1520.685z"/>
				<path d="M1755.09,1510.699c0-4.053,0.961-7.313,2.882-9.777c1.921-2.467,4.435-3.699,7.544-3.699
					c3.092,0,5.541,1.059,7.348,3.174v-13.77h4.518v37.5h-4.15l-0.221-2.832c-1.807,2.214-4.32,3.32-7.543,3.32
					c-3.061,0-5.555-1.253-7.483-3.76c-1.929-2.506-2.894-5.777-2.894-9.814V1510.699z M1759.607,1511.212
					c0,2.995,0.618,5.339,1.855,7.031c1.236,1.693,2.945,2.539,5.127,2.539c2.865,0,4.955-1.285,6.273-3.857v-12.134
					c-1.35-2.49-3.426-3.735-6.224-3.735c-2.215,0-3.94,0.854-5.177,2.563C1760.226,1505.328,1759.607,1507.859,1759.607,1511.212z"
					/>
				<path d="M1788.635,1497.711l0.123,2.93c1.937-2.278,4.549-3.418,7.836-3.418c3.695,0,6.211,1.416,7.546,4.248
					c0.878-1.27,2.021-2.295,3.429-3.076s3.072-1.172,4.992-1.172c5.795,0,8.74,3.068,8.838,9.204v17.7h-4.516v-17.432
					c0-1.888-0.432-3.3-1.295-4.236c-0.862-0.936-2.311-1.403-4.346-1.403c-1.676,0-3.066,0.501-4.174,1.501
					c-1.107,1.002-1.75,2.349-1.929,4.041v17.529h-4.541v-17.31c0-3.841-1.88-5.762-5.64-5.762c-2.963,0-4.988,1.262-6.08,3.784
					v19.287h-4.516v-26.416H1788.635z"/>
				<path d="M1828.234,1490.704c0-0.732,0.225-1.351,0.672-1.855c0.447-0.504,1.111-0.757,1.99-0.757s1.546,0.253,2.002,0.757
					c0.455,0.505,0.684,1.123,0.684,1.855s-0.229,1.343-0.684,1.831c-0.456,0.488-1.123,0.732-2.002,0.732s-1.543-0.244-1.99-0.732
					S1828.234,1491.437,1828.234,1490.704z M1833.117,1524.127h-4.516v-26.416h4.516V1524.127z"/>
				<path d="M1844.617,1497.711l0.147,3.32c2.017-2.539,4.653-3.809,7.909-3.809c5.582,0,8.399,3.149,8.447,9.448v17.456h-4.517
					v-17.48c-0.017-1.904-0.451-3.312-1.306-4.224c-0.855-0.911-2.186-1.367-3.992-1.367c-1.465,0-2.75,0.391-3.857,1.172
					s-1.97,1.807-2.588,3.076v18.823h-4.518v-26.416H1844.617z"/>
				<path d="M1867.957,1490.704c0-0.732,0.224-1.351,0.671-1.855c0.447-0.504,1.11-0.757,1.989-0.757s1.547,0.253,2.002,0.757
					c0.456,0.505,0.685,1.123,0.685,1.855s-0.229,1.343-0.685,1.831c-0.455,0.488-1.123,0.732-2.002,0.732s-1.542-0.244-1.989-0.732
					S1867.957,1491.437,1867.957,1490.704z M1872.84,1524.127h-4.518v-26.416h4.518V1524.127z"/>
				<path d="M1895.447,1517.12c0-1.221-0.461-2.169-1.38-2.845c-0.919-0.675-2.523-1.257-4.81-1.745s-4.102-1.074-5.444-1.758
					c-1.342-0.684-2.336-1.497-2.979-2.441c-0.644-0.943-0.964-2.066-0.964-3.369c0-2.164,0.915-3.995,2.746-5.493
					c1.831-1.497,4.171-2.246,7.021-2.246c2.993,0,5.423,0.773,7.286,2.319c1.863,1.547,2.796,3.524,2.796,5.933h-4.541
					c0-1.236-0.525-2.303-1.574-3.198c-1.05-0.895-2.373-1.343-3.967-1.343c-1.646,0-2.931,0.358-3.858,1.074
					c-0.927,0.717-1.392,1.652-1.392,2.808c0,1.091,0.431,1.913,1.294,2.466c0.862,0.554,2.42,1.083,4.675,1.587
					c2.254,0.505,4.081,1.107,5.481,1.807c1.399,0.7,2.437,1.542,3.112,2.526c0.675,0.985,1.013,2.186,1.013,3.602
					c0,2.36-0.942,4.252-2.832,5.676c-1.888,1.425-4.336,2.137-7.348,2.137c-2.116,0-3.988-0.375-5.615-1.123
					c-1.628-0.748-2.902-1.795-3.82-3.137c-0.92-1.344-1.381-2.796-1.381-4.358h4.519c0.08,1.514,0.686,2.714,1.818,3.601
					c1.13,0.888,2.625,1.331,4.479,1.331c1.709,0,3.079-0.346,4.113-1.038C1894.931,1519.199,1895.447,1518.276,1895.447,1517.12z"
					/>
				<path d="M1911.975,1491.314v6.396h4.932v3.491h-4.932v16.402c0,1.06,0.221,1.854,0.661,2.384
					c0.438,0.529,1.187,0.794,2.245,0.794c0.521,0,1.236-0.098,2.148-0.293v3.641c-1.188,0.323-2.344,0.485-3.467,0.485
					c-2.019,0-3.541-0.61-4.566-1.831c-1.024-1.221-1.537-2.954-1.537-5.2v-16.382h-4.811v-3.491h4.811v-6.396H1911.975z"/>
			</g>
		</g>
		<g>
			<g>
				<path d="M1934.949,1501.764c-0.684-0.113-1.425-0.171-2.222-0.171c-2.963,0-4.973,1.262-6.03,3.784v18.75h-4.516v-26.416h4.394
					l0.073,3.052c1.48-2.359,3.58-3.54,6.299-3.54c0.879,0,1.547,0.114,2.002,0.342V1501.764z"/>
			</g>
		</g>
		<g>
			<g>
				<path d="M1954.432,1524.127c-0.261-0.521-0.473-1.448-0.635-2.783c-2.1,2.182-4.606,3.271-7.52,3.271
					c-2.604,0-4.74-0.736-6.407-2.209c-1.67-1.474-2.504-3.341-2.504-5.604c0-2.75,1.046-4.887,3.138-6.408
					c2.091-1.522,5.032-2.283,8.825-2.283h4.395v-2.075c0-1.578-0.473-2.836-1.416-3.772c-0.944-0.936-2.335-1.403-4.175-1.403
					c-1.611,0-2.962,0.407-4.053,1.221c-1.091,0.814-1.636,1.799-1.636,2.954h-4.541c0-1.318,0.468-2.592,1.403-3.82
					c0.937-1.229,2.207-2.201,3.809-2.918c1.604-0.716,3.365-1.074,5.286-1.074c3.043,0,5.429,0.761,7.153,2.283
					c1.725,1.521,2.62,3.617,2.686,6.286v12.158c0,2.426,0.309,4.354,0.928,5.786v0.391H1954.432z M1946.937,1520.685
					c1.416,0,2.759-0.366,4.028-1.099s2.188-1.685,2.759-2.856v-5.42h-3.54c-5.534,0-8.301,1.62-8.301,4.858
					c0,1.416,0.472,2.523,1.416,3.32C1944.242,1520.286,1945.455,1520.685,1946.937,1520.685z"/>
			</g>
		</g>
		<g>
			<g>
				<path d="M1971.448,1491.314v6.396h4.932v3.491h-4.932v16.402c0,1.06,0.22,1.854,0.659,2.384s1.188,0.794,2.246,0.794
					c0.521,0,1.236-0.098,2.149-0.293v3.641c-1.189,0.323-2.345,0.485-3.468,0.485c-2.019,0-3.54-0.61-4.564-1.831
					c-1.026-1.221-1.539-2.954-1.539-5.2v-16.382h-4.81v-3.491h4.81v-6.396H1971.448z"/>
			</g>
		</g>
		<g>
			<g>
				<path d="M1979.969,1510.675c0-2.588,0.509-4.915,1.525-6.982c1.019-2.066,2.435-3.662,4.248-4.785
					c1.815-1.123,3.886-1.685,6.214-1.685c3.598,0,6.507,1.245,8.728,3.735c2.223,2.49,3.333,5.803,3.333,9.937v0.317
					c0,2.572-0.492,4.879-1.478,6.921c-0.984,2.043-2.393,3.635-4.223,4.773c-1.831,1.14-3.936,1.709-6.312,1.709
					c-3.581,0-6.481-1.245-8.704-3.735c-2.221-2.49-3.332-5.786-3.332-9.888V1510.675z M1984.51,1511.212
					c0,2.93,0.68,5.282,2.039,7.056c1.358,1.774,3.177,2.661,5.456,2.661c2.295,0,4.117-0.899,5.469-2.698
					c1.351-1.798,2.026-4.316,2.026-7.556c0-2.896-0.688-5.245-2.063-7.044c-1.376-1.798-3.203-2.697-5.481-2.697
					c-2.23,0-4.027,0.888-5.396,2.661C1985.193,1505.369,1984.51,1507.908,1984.51,1511.212z"/>
				<path d="M2022.449,1501.764c-0.684-0.113-1.425-0.171-2.221-0.171c-2.964,0-4.974,1.262-6.031,3.784v18.75h-4.516v-26.416h4.394
					l0.073,3.052c1.48-2.359,3.58-3.54,6.299-3.54c0.879,0,1.547,0.114,2.002,0.342V1501.764z"/>
			</g>
		</g>
	</g>
</g>
<g id="text">
	<g>
		<g>
			<g>
				<path fill="#0073C3" d="M1265.796,1395.635l4.515-39.772h43.857v12.953h-31.119l-1.935,16.823
					c3.69-1.971,7.613-2.956,11.771-2.956c7.453,0,13.293,2.311,17.521,6.933c4.228,4.623,6.342,11.091,6.342,19.403
					c0,5.052-1.066,9.576-3.198,13.571c-2.131,3.995-5.187,7.094-9.163,9.298c-3.977,2.203-8.672,3.306-14.083,3.306
					c-4.729,0-9.119-0.959-13.168-2.876c-4.049-1.916-7.247-4.612-9.594-8.089c-2.347-3.475-3.592-7.435-3.735-11.878h15.372
					c0.322,3.261,1.459,5.796,3.413,7.605c1.952,1.81,4.505,2.714,7.658,2.714c3.512,0,6.217-1.263,8.116-3.789
					c1.898-2.526,2.849-6.101,2.849-10.723c0-4.442-1.094-7.847-3.278-10.212c-2.187-2.365-5.286-3.547-9.298-3.547
					c-3.691,0-6.684,0.967-8.976,2.902l-1.504,1.397L1265.796,1395.635z"/>
				<path fill="#0073C3" d="M1379.64,1401.763c0,10.821-2.24,19.099-6.718,24.831c-4.479,5.733-11.037,8.6-19.671,8.6
					c-8.528,0-15.049-2.813-19.564-8.438c-4.515-5.625-6.826-13.688-6.934-24.187v-14.404c0-10.928,2.266-19.223,6.799-24.885
					c4.532-5.661,11.062-8.492,19.59-8.492c8.527,0,15.049,2.805,19.564,8.412c4.515,5.607,6.826,13.66,6.934,24.159V1401.763z
					 M1364.107,1385.926c0-6.492-0.887-11.218-2.661-14.177c-1.773-2.959-4.542-4.438-8.304-4.438c-3.654,0-6.351,1.408-8.088,4.224
					c-1.739,2.815-2.661,7.218-2.769,13.207v19.045c0,6.385,0.868,11.128,2.606,14.23c1.738,3.103,4.523,4.653,8.358,4.653
					c3.797,0,6.539-1.488,8.222-4.465c1.685-2.977,2.562-7.531,2.635-13.665V1385.926z"/>
				<path fill="#0073C3" d="M1444.09,1434.118h-53.639v-10.642l25.314-26.981c3.476-3.798,6.046-7.112,7.713-9.943
					c1.667-2.83,2.499-5.518,2.499-8.062c0-3.476-0.878-6.208-2.633-8.196c-1.756-1.989-4.264-2.983-7.525-2.983
					c-3.512,0-6.279,1.209-8.303,3.628c-2.025,2.419-3.038,5.599-3.038,9.54h-15.586c0-4.765,1.138-9.118,3.414-13.061
					c2.274-3.941,5.49-7.031,9.647-9.271c4.156-2.239,8.868-3.359,14.135-3.359c8.063,0,14.324,1.936,18.785,5.805
					c4.46,3.87,6.692,9.335,6.692,16.394c0,3.869-1.004,7.812-3.01,11.824c-2.007,4.013-5.447,8.689-10.319,14.027l-17.791,18.758
					h33.646V1434.118z"/>
				<path fill="#0073C3" d="M1530.424,1400.204h-30.958v20.961h36.333v12.953h-52.457v-78.256h52.35v13.061h-36.226v18.65h30.958
					V1400.204z"/>
				<path fill="#0073C3" d="M1577.246,1390.529c-2.115-0.286-3.979-0.43-5.591-0.43c-5.877,0-9.728,1.988-11.556,5.966v38.053
					h-15.532v-58.154h14.673l0.43,6.934c3.117-5.339,7.436-8.009,12.953-8.009c1.721,0,3.332,0.233,4.837,0.699L1577.246,1390.529z"
					/>
			</g>
		</g>
		<g>
			<g>
				<path fill="#0073C3" d="M1617.725,1390.529c-2.115-0.286-3.978-0.43-5.59-0.43c-5.877,0-9.729,1.988-11.556,5.966v38.053
					h-15.533v-58.154h14.673l0.432,6.934c3.116-5.339,7.434-8.009,12.951-8.009c1.721,0,3.333,0.233,4.838,0.699L1617.725,1390.529z
					"/>
			</g>
		</g>
		<g>
			<g>
				<path fill="#0073C3" d="M1621.172,1404.504c0-5.769,1.109-10.911,3.332-15.426c2.221-4.515,5.42-8.009,9.595-10.48
					c4.173-2.473,9.021-3.709,14.538-3.709c7.847,0,14.252,2.401,19.214,7.202c4.963,4.802,7.731,11.323,8.304,19.564l0.108,3.977
					c0,8.923-2.491,16.08-7.472,21.473s-11.663,8.089-20.048,8.089c-8.384,0-15.075-2.688-20.074-8.063
					c-4.997-5.375-7.497-12.685-7.497-21.929V1404.504z M1636.704,1405.606c0,5.526,1.039,9.752,3.118,12.677
					c2.077,2.925,5.053,4.387,8.921,4.387c3.763,0,6.7-1.444,8.815-4.333c2.113-2.889,3.171-7.509,3.171-13.861
					c0-5.418-1.058-9.617-3.171-12.596c-2.115-2.979-5.088-4.468-8.922-4.468c-3.799,0-6.737,1.48-8.814,4.44
					C1637.743,1394.813,1636.704,1399.398,1636.704,1405.606z"/>
				<path fill="#0073C3" d="M1718.838,1390.529c-2.114-0.286-3.977-0.43-5.59-0.43c-5.877,0-9.729,1.988-11.555,5.966v38.053
					h-15.534v-58.154h14.673l0.432,6.934c3.116-5.339,7.434-8.009,12.951-8.009c1.721,0,3.333,0.233,4.838,0.699L1718.838,1390.529z
					"/>
			</g>
		</g>
	</g>
</g>
<g id="caracter">
	<g>
		<circle fill="#D1E2FA" cx="1490.311" cy="832.897" r="384.752"/>
		<path fill="#5AB8FD" d="M1295.264,1164.658c15.563,9.288,34.27,18.921,56.073,27.381c35.448,13.756,67.753,20.019,93.187,22.892
			c-8.566-172.953-17.133-345.906-25.7-518.858l-0.203-4.094c0,0-7.314-12.191-6.501-24.382c0.813-12.191-1.626-21.132-1.626-21.132
			s-106.47,73.147-108.908,77.211S1300.141,1154.905,1295.264,1164.658z"/>
		<path fill="#FADED6" d="M986.631,1073.512c0,0-0.178,1.673-9.143,9.752c-4.433,3.995-8.518,8.33-19.506,13.106
			c-4.61,2.003-18.624,13.318-20.726,16.153c-4.648,6.271-7.214,8.725-18.187,23.354c-7.877,10.504-28.039,18.489-15.644-0.497
			c4.869-7.457,17.828-23.125,32.611-36.878c-4.266,0-33.525,28.345-33.525,28.345s-17.067,19.201-22.554,15.544
			c-5.486-3.657,19.811-40.841,39.317-47.546c0,0-27.431,13.715-39.621,28.649c-12.192,14.935-20.725-1.829-15.237-7.317
			c4.472-4.472,9.069-8.824,13.688-13.143c3.66-3.423,7.409-6.75,11.178-10.053c1.718-1.506,3.512-3.123,5.267-4.664
			c1.046-0.92,3.893-4.51,5.518-3.638c-0.196,0.56-0.761,0.908-1.243,1.221c0,0.315-2.445,1.585-2.786,1.806
			c-1.044,0.678-2.089,1.354-3.134,2.032c-1.97,1.276-3.925,2.583-5.935,3.794c-4.144,2.496-8.277,4.999-12.501,7.359
			c-5.304,2.964-10.71,5.786-16.408,7.898c-1.648,0.611-3.361,1.169-5.118,1.129c-1.757-0.039-3.59-0.778-4.526-2.268
			c-0.786-1.251-0.833-2.869-0.38-4.275c0.453-1.407,1.358-2.627,2.375-3.699c2.768-2.916,6.387-4.874,10.071-6.484
			c3.955-1.729,8.053-3.11,12.211-4.262c2.838-0.786,5.899-0.998,8.693-1.848c2.673-0.813,5.376-2.764,7.726-4.247
			c6.718-4.242,12.841-9.599,18.291-15.358c1.077-1.174,2.153-2.388,3.035-3.72c0,0-25.602,22.248-28.345,21.029
			s-18.287-8.839,24.992-45.412c0,0,22.858-21.03,60.956-11.886C1015.875,1038.97,986.631,1073.512,986.631,1073.512z"/>
		<path fill="#5AB8FD" d="M1346.497,860.431c0,0-32.51,180.429-138.167,206.437c-105.657,26.008-216.19,16.255-216.19,16.255
			s-35.76-39.011-29.258-69.896c6.501-30.884,178.804-42.263,196.684-74.772c17.88-32.51,144.668-217.815,144.668-217.815
			S1364.377,782.407,1346.497,860.431z"/>
		<path fill="#FADED6" d="M1974.687,1062.691c0,0,0.178,1.673,9.144,9.753c4.432,3.994,8.518,8.329,19.505,13.105
			c4.61,2.004,18.623,13.318,20.726,16.153c4.648,6.271,7.214,8.726,18.186,23.354c7.878,10.504,28.04,18.489,15.645-0.496
			c-4.869-7.458-17.827-23.126-32.611-36.878c4.268,0,33.526,28.344,33.526,28.344s17.067,19.201,22.553,15.544
			s-19.81-40.841-39.316-47.546c0,0,27.43,13.716,39.621,28.649c12.191,14.935,20.725-1.829,15.239-7.314
			c-5.486-5.486-29.868-28.954-35.659-31.697s40.84,28.345,48.764,25.297c1.991-0.766,3.631-2.409,3.613-4.65
			c-0.024-3.068-2.657-5.629-4.897-7.37c-4.89-3.799-10.963-6.069-16.816-7.885c-3.812-1.183-7.786-1.734-11.604-2.898
			c-4.125-1.257-7.388-3.588-10.837-6.09c-0.849-0.616-1.692-1.241-2.528-1.875c-2.773-2.102-5.476-4.301-8.056-6.638
			c-2.67-2.42-5.314-4.983-7.479-7.88c-0.179-0.24-0.361-0.481-0.521-0.735c0,0,25.601,22.249,28.344,21.029
			c2.743-1.219,18.287-8.839-24.992-45.412c0,0-22.858-21.03-60.955-11.887C1945.441,1028.15,1974.687,1062.691,1974.687,1062.691z"
			/>
		<path fill="#36436C" d="M1433.184,661.088c0,0,0.938,18.707,59.417,53.562c41.361-26.284,48.75-50.516,48.75-50.516l7.98-26.806
			c0,0-1.167,24.635-0.568,103.287c0.598,78.652-3.967,473.19-3.967,473.19c-16.164,2.432-34.86,3.859-55.625,3.789
			c-14.231-0.049-27.32-0.756-39.264-2.092c-6.746-186.652-13.576-373.475-20.321-560.126L1433.184,661.088z"/>
		<path fill="#0073C3" d="M1440.549,698.43l-21.742-2.409l25.709,518.917c2.64,0.311,5.326,0.601,8.056,0.867
			c3.915,0.382,7.751,0.699,11.504,0.958C1456.234,1043.985,1448.391,871.208,1440.549,698.43z"/>
		<path fill="#FADED6" d="M1434.764,666.216c-4.687-8.794-6.146-32.458-5.777-39.441c0.35-6.635,120.412-5.433,120.393-4.203
			c1.344,3.278,2.643,21.317-13.752,53.646c-7.486,14.762-42.656,38.438-42.656,38.438S1447.188,689.529,1434.764,666.216z"/>
		<path fill="#0097FA" d="M1426.51,638.459l14.043,59.973c0,0-17.576,1.134-21.741-2.409c-6.248-5.313-10.972-34.114-8.33-49.607
			C1411.737,639.052,1426.51,638.459,1426.51,638.459z"/>
		<path fill="#5AB8FD" d="M1678.464,1168.549c-26.925,14.897-51.3,24.372-70.344,30.501c-25.09,8.075-46.024,11.914-57.666,13.852
			c-8.373,1.394-15.011,2.269-21.159,2.832c8.593-173.882,17.187-347.799,25.78-521.681l0.202-4.093c0,0,7.314-12.191,6.502-24.382
			c-0.813-12.191,1.625-21.131,1.625-21.131s106.471,73.146,108.908,77.21S1673.588,1158.796,1678.464,1168.549z"/>
		<path fill="#5AB8FD" d="M1627.385,858.461c0,0,32.511,180.429,138.166,206.437c105.657,26.008,216.19,16.255,216.19,16.255
			s35.762-39.012,29.259-69.896c-6.502-30.884-178.803-42.263-196.684-74.772c-17.88-32.51-144.668-217.815-144.668-217.815
			S1609.506,780.438,1627.385,858.461z"/>
		<path fill="#0073C3" d="M1533.333,696.463l21.742-2.408l-25.777,521.677c-4.595,0.456-9.312,0.84-14.146,1.139
			c-1.833,0.113-3.649,0.212-5.45,0.297C1517.578,1043.606,1525.458,870.023,1533.333,696.463z"/>
		<g>
			
				<ellipse transform="matrix(0.9999 0.0156 -0.0156 0.9999 8.639 -22.1705)" fill="#FADED6" cx="1421.885" cy="541.283" rx="18.374" ry="21.863"/>
			
				<ellipse transform="matrix(0.9999 0.0156 -0.0156 0.9999 8.6868 -24.2069)" fill="#FADED6" cx="1552.119" cy="543.321" rx="18.374" ry="21.863"/>
			<path fill="#FADED6" d="M1551.231,565.328c-0.779,49.834-29.178,89.799-63.428,89.263c-34.25-0.536-61.383-41.369-60.604-91.204
				c0.78-49.834-4.546-105.834,63.661-104.147C1562.771,461.02,1552.012,515.494,1551.231,565.328z"/>
			<path fill="#2A3952" d="M1423.604,535.495c-16.823-43.127-11.743-81.502,8.296-94.158c4.077-2.575,11.248-5.648,23.024-4.602
				c3.009-5.097,11.067-17.14,26.425-23.779c26.224-11.335,50.832,2.981,55.737,5.834c7.966,4.634,22.219,12.926,24.369,28.295
				c1.308,9.341-2.434,17.163-4.67,21.018c-1.612,23.753-3.225,47.507-4.837,71.26c-4.06-3.479-12.213-11.444-16.677-24.453
				c-5.984-17.443-1.393-32.47,0.272-37.214c-8.636,3.658-21.813,7.975-38.286,8.706c-25.815,1.145-45.632-7.143-55.33-12.032
				c-0.845,10.239-2.188,21.332-4.24,33.121c-2.253,12.943-7.029,25.063-10,35.783
				C1425.661,540.761,1424.851,538.81,1423.604,535.495z"/>
			<path fill="#2A3952" d="M1551.729,545.99c0,0-13.817,18.351-28.033,35.275l-28.064-13.596
				c-5.916-2.865-12.778-2.502-18.364,0.974l-25.248,15.729c-11.565-11.421-21.667-25.033-24.69-36.743l-4.807,76.785
				c0,0,19.244,38.76,64.98,49.401c43.509-5.522,65.351-53.565,65.351-53.565L1551.729,545.99z M1489.457,608.404
				c-5.921-0.717-14.126-5.006-22.657-11.317l20.304-12.649c0.125-0.082,0.281-0.087,0.415-0.023l23.076,11.179
				C1502.48,603.552,1494.797,609.05,1489.457,608.404z"/>
		</g>
		<path fill="#0097FA" d="M1546.591,636.444l-13.262,60.019c0,0,17.576,1.135,21.741-2.408c6.248-5.313,10.971-34.114,8.33-49.607
			C1562.145,637.083,1546.591,636.444,1546.591,636.444z"/>
	</g>
</g>
<g id="button" display="none">
	<path display="inline" fill="#0073C3" d="M1815,1735h-616c-6.6,0-12-5.4-12-12v-104c0-6.6,5.4-12,12-12h616c6.6,0,12,5.4,12,12v104
		C1827,1729.6,1821.6,1735,1815,1735z"/>
	<g display="inline">
		<g>
			<g>
				<path fill="#FFFFFF" d="M1307.078,1690.868v-44.807h15.694c5.436,0,9.56,1.042,12.371,3.124s4.216,5.134,4.216,9.155
					c0,2.195-0.564,4.129-1.692,5.801c-1.129,1.672-2.698,2.897-4.709,3.677c2.298,0.575,4.109,1.734,5.432,3.478
					c1.323,1.744,1.985,3.878,1.985,6.401c0,4.308-1.375,7.57-4.124,9.786c-2.75,2.216-6.668,3.344-11.756,3.385H1307.078z
					 M1316.31,1664.834h6.832c4.657-0.082,6.985-1.939,6.985-5.57c0-2.031-0.59-3.493-1.77-4.386
					c-1.18-0.892-3.042-1.338-5.585-1.338h-6.462V1664.834z M1316.31,1671.357v12.095h7.908c2.174,0,3.872-0.519,5.093-1.555
					c1.221-1.035,1.831-2.467,1.831-4.293c0-4.103-2.123-6.186-6.37-6.247H1316.31z"/>
				<path fill="#FFFFFF" d="M1366.198,1690.868c-0.411-0.8-0.708-1.795-0.892-2.985c-2.154,2.4-4.955,3.601-8.401,3.601
					c-3.263,0-5.966-0.943-8.109-2.831c-2.144-1.887-3.216-4.267-3.216-7.14c0-3.528,1.308-6.236,3.924-8.124
					s6.395-2.841,11.34-2.862h4.092v-1.907c0-1.539-0.394-2.77-1.184-3.693c-0.791-0.923-2.037-1.385-3.739-1.385
					c-1.498,0-2.673,0.359-3.523,1.077c-0.852,0.719-1.277,1.703-1.277,2.954h-8.894c0-1.928,0.595-3.713,1.785-5.354
					c1.189-1.641,2.872-2.928,5.047-3.862c2.174-0.933,4.616-1.4,7.324-1.4c4.104,0,7.359,1.031,9.771,3.093
					c2.411,2.063,3.616,4.96,3.616,8.694v14.433c0.021,3.159,0.462,5.55,1.323,7.17v0.523H1366.198z M1358.842,1684.683
					c1.313,0,2.524-0.292,3.631-0.877c1.108-0.585,1.929-1.369,2.461-2.354v-5.724h-3.323c-4.452,0-6.822,1.539-7.109,4.616
					l-0.03,0.523c0,1.107,0.389,2.021,1.169,2.738C1356.422,1684.324,1357.489,1684.683,1358.842,1684.683z"/>
				<path fill="#FFFFFF" d="M1394.729,1684.313c1.642,0,2.975-0.451,4-1.354c1.026-0.902,1.56-2.103,1.601-3.601h8.339
					c-0.021,2.258-0.636,4.324-1.847,6.201c-1.211,1.877-2.867,3.334-4.97,4.37c-2.103,1.035-4.426,1.554-6.97,1.554
					c-4.76,0-8.514-1.513-11.263-4.539c-2.75-3.025-4.124-7.206-4.124-12.54v-0.585c0-5.128,1.365-9.222,4.093-12.278
					c2.729-3.057,6.473-4.586,11.233-4.586c4.164,0,7.503,1.186,10.017,3.555c2.513,2.37,3.791,5.524,3.832,9.463h-8.339
					c-0.042-1.731-0.575-3.14-1.601-4.223c-1.025-1.083-2.38-1.624-4.062-1.624c-2.073,0-3.637,0.755-4.693,2.265
					c-1.057,1.511-1.585,3.961-1.585,7.351v0.925c0,3.432,0.523,5.897,1.57,7.397S1392.595,1684.313,1394.729,1684.313z"/>
				<path fill="#FFFFFF" d="M1426.03,1677.513l-3.2,3.2v10.155h-8.895V1643.6h8.895v26.188l1.723-2.216l8.524-10.001h10.678
					l-12.032,13.879l13.078,19.418h-10.217L1426.03,1677.513z"/>
			</g>
		</g>
		<g>
			<g>
				<path fill="#FFFFFF" d="M1474.322,1649.385v8.187h5.694v6.523h-5.694v16.618c0,1.23,0.236,2.113,0.708,2.646
					c0.472,0.534,1.374,0.8,2.708,0.8c0.985,0,1.856-0.071,2.616-0.215v6.739c-1.744,0.533-3.539,0.8-5.386,0.8
					c-6.237,0-9.417-3.148-9.539-9.447v-17.941h-4.863v-6.523h4.863v-8.187H1474.322z"/>
			</g>
		</g>
		<g>
			<g>
				<path fill="#FFFFFF" d="M1482.852,1673.912c0-3.303,0.635-6.247,1.907-8.832s3.103-4.586,5.494-6.001
					c2.39-1.416,5.164-2.124,8.325-2.124c4.492,0,8.159,1.375,11.001,4.124c2.841,2.75,4.426,6.483,4.754,11.202l0.062,2.277
					c0,5.108-1.426,9.206-4.277,12.294c-2.853,3.088-6.678,4.631-11.479,4.631s-8.632-1.538-11.494-4.616
					c-2.862-3.077-4.293-7.262-4.293-12.556V1673.912z M1491.745,1674.543c0,3.165,0.595,5.584,1.785,7.259
					c1.189,1.675,2.893,2.512,5.109,2.512c2.154,0,3.836-0.827,5.047-2.481c1.21-1.654,1.815-4.299,1.815-7.936
					c0-3.103-0.605-5.507-1.815-7.213c-1.211-1.705-2.914-2.558-5.108-2.558c-2.175,0-3.858,0.848-5.048,2.543
					C1492.34,1668.364,1491.745,1670.989,1491.745,1674.543z"/>
				<path fill="#FFFFFF" d="M1572.996,1690.868h-9.231v-19.203h-18.002v19.203h-9.233v-44.807h9.233v18.156h18.002v-18.156h9.231
					V1690.868z"/>
				<path fill="#FFFFFF" d="M1579.278,1673.912c0-3.303,0.636-6.247,1.908-8.832s3.103-4.586,5.494-6.001
					c2.39-1.416,5.164-2.124,8.323-2.124c4.493,0,8.16,1.375,11.002,4.124c2.842,2.75,4.426,6.483,4.754,11.202l0.063,2.277
					c0,5.108-1.426,9.206-4.278,12.294c-2.851,3.088-6.677,4.631-11.478,4.631c-4.802,0-8.633-1.538-11.495-4.616
					c-2.86-3.077-4.293-7.262-4.293-12.556V1673.912z M1588.172,1674.543c0,3.165,0.595,5.584,1.785,7.259
					c1.189,1.675,2.893,2.512,5.109,2.512c2.154,0,3.836-0.827,5.047-2.481c1.209-1.654,1.814-4.299,1.814-7.936
					c0-3.103-0.605-5.507-1.814-7.213c-1.211-1.705-2.914-2.558-5.109-2.558c-2.174,0-3.857,0.848-5.047,2.543
					C1588.767,1668.364,1588.172,1670.989,1588.172,1674.543z"/>
				<path fill="#FFFFFF" d="M1624.828,1657.571l0.277,3.724c2.358-2.893,5.549-4.34,9.57-4.34c4.287,0,7.231,1.693,8.832,5.078
					c2.34-3.385,5.673-5.078,10.001-5.078c3.611,0,6.3,1.052,8.063,3.155c1.764,2.103,2.646,5.268,2.646,9.493v21.265h-8.926
					v-21.233c0-1.888-0.368-3.268-1.106-4.14c-0.739-0.872-2.042-1.308-3.908-1.308c-2.668,0-4.514,1.272-5.54,3.815l0.031,22.865
					h-8.894v-21.203c0-1.928-0.38-3.323-1.138-4.186c-0.761-0.861-2.053-1.292-3.879-1.292c-2.523,0-4.35,1.046-5.478,3.139v23.542
					h-8.894v-33.297H1624.828z"/>
				<path fill="#FFFFFF" d="M1686.564,1691.483c-4.883,0-8.857-1.497-11.924-4.493c-3.068-2.995-4.602-6.985-4.602-11.971v-0.861
					c0-3.344,0.646-6.334,1.938-8.971c1.293-2.636,3.124-4.667,5.494-6.093c2.369-1.426,5.071-2.14,8.108-2.14
					c4.554,0,8.141,1.437,10.756,4.309c2.615,2.873,3.924,6.945,3.924,12.218v3.631h-21.203c0.287,2.175,1.154,3.919,2.6,5.231
					c1.446,1.313,3.277,1.97,5.494,1.97c3.425,0,6.103-1.241,8.031-3.724l4.369,4.893c-1.334,1.888-3.139,3.36-5.416,4.416
					C1691.857,1690.955,1689.334,1691.483,1686.564,1691.483z M1685.549,1664.126c-1.765,0-3.195,0.598-4.293,1.793
					s-1.8,2.905-2.107,5.131h12.371v-0.711c-0.042-1.979-0.574-3.509-1.6-4.59
					C1688.893,1664.667,1687.438,1664.126,1685.549,1664.126z"/>
			</g>
		</g>
	</g>
</g>
</svg>
