<svg id="add_1_" data-name="add (1)" xmlns="http://www.w3.org/2000/svg" width="19.894" height="19.894" viewBox="0 0 19.894 19.894">
  <g id="Group_1115" data-name="Group 1115">
    <g id="Group_1114" data-name="Group 1114">
      <path id="Path_584" data-name="Path 584" d="M9.947,0a9.947,9.947,0,1,0,9.947,9.947A9.958,9.958,0,0,0,9.947,0Zm0,18.353a8.406,8.406,0,1,1,8.406-8.406A8.416,8.416,0,0,1,9.947,18.353Z" fill="#f7a928"/>
    </g>
  </g>
  <g id="Group_1117" data-name="Group 1117" transform="translate(5.324 5.255)">
    <g id="Group_1116" data-name="Group 1116">
      <path id="Path_585" data-name="Path 585" d="M145.5,139.09h-3.082v-3.082a.77.77,0,0,0-1.541,0v3.082h-3.082a.77.77,0,0,0,0,1.541h3.082v3.082a.77.77,0,0,0,1.541,0v-3.082H145.5a.77.77,0,0,0,0-1.541Z" transform="translate(-137.022 -135.238)" fill="#f7a928"/>
    </g>
  </g>
</svg>
