<svg xmlns="http://www.w3.org/2000/svg" width="16.356" height="16.335" viewBox="0 0 16.356 16.335"><defs><style>.a{fill:#fff;}</style></defs><g transform="translate(0 -0.17)"><g transform="translate(0 0.17)"><path class="a" d="M92.478,215.019a1.633,1.633,0,1,0,1.633,1.633A1.635,1.635,0,0,0,92.478,215.019Z" transform="translate(-85.319 -201.951)"/><path class="a" d="M176.623,215.019a1.633,1.633,0,1,0,1.633,1.633A1.635,1.635,0,0,0,176.623,215.019Z" transform="translate(-164.346 -201.951)"/><path class="a" d="M16.278,4.3a.362.362,0,0,0-.286-.139H3.721L2.71.438A.242.242,0,0,0,2.7.416.331.331,0,0,0,2.666.351.36.36,0,0,0,2.628.294a.326.326,0,0,0-.05-.044A.348.348,0,0,0,2.519.211.362.362,0,0,0,2.456.19.34.34,0,0,0,2.384.175C2.375.175,2.368.17,2.359.17h-2A.363.363,0,0,0,.363.9H2.081l1.01,3.721,1.814,7.348a.363.363,0,0,0,.352.276h8.92a.363.363,0,0,0,.352-.276l1.815-7.352A.361.361,0,0,0,16.278,4.3Z" transform="translate(0 -0.17)"/></g></g></svg>