<svg xmlns="http://www.w3.org/2000/svg" width="26.751" height="26.751" viewBox="0 0 26.751 26.751"><defs><style>.a{fill:#f0f0f0;}.b{fill:#0052b4;}.c{fill:#d80027;}</style></defs><circle class="a" cx="12.5" cy="12.5" r="12.5" transform="translate(0 0)"/><g transform="translate(0.715 0.715)"><path class="b" d="M11.1,100.142a13.2,13.2,0,0,0-2.282,4.609H15.71Z" transform="translate(-8.819 -95.417)"/><path class="b" d="M376.9,104.752a13.2,13.2,0,0,0-2.282-4.609l-4.609,4.609Z" transform="translate(-351.316 -95.418)"/><path class="b" d="M8.819,322.784a13.2,13.2,0,0,0,2.282,4.609l4.609-4.609Z" transform="translate(-8.819 -306.539)"/><path class="b" d="M327.391,11.1a13.2,13.2,0,0,0-4.609-2.282V15.71Z" transform="translate(-306.537 -8.819)"/><path class="b" d="M100.142,374.614a13.2,13.2,0,0,0,4.609,2.282v-6.891Z" transform="translate(-95.417 -351.317)"/><path class="b" d="M104.751,8.819a13.2,13.2,0,0,0-4.609,2.282l4.609,4.609Z" transform="translate(-95.417 -8.819)"/><path class="b" d="M322.783,376.9a13.2,13.2,0,0,0,4.609-2.282l-4.609-4.609Z" transform="translate(-306.538 -351.317)"/><path class="b" d="M370.005,322.784l4.609,4.609a13.2,13.2,0,0,0,2.282-4.609Z" transform="translate(-351.316 -306.539)"/></g><g transform="translate(0.259 0.259)"><path class="c" d="M26.38,11.518H14.974V.112a13.368,13.368,0,0,0-3.456,0V11.518H.112a13.367,13.367,0,0,0,0,3.455H11.518V26.38a13.368,13.368,0,0,0,3.456,0V14.974H26.38a13.368,13.368,0,0,0,0-3.455Z"/><path class="c" d="M322.783,322.783h0l5.911,5.911q.408-.408.779-.85l-5.061-5.06h-1.629Z" transform="translate(-306.081 -306.082)"/><path class="c" d="M80.891,322.784h0l-5.911,5.911q.408.408.85.779l5.061-5.061Z" transform="translate(-71.1 -306.082)"/><path class="c" d="M66.622,80.891h0L60.712,74.98q-.408.408-.779.85l5.061,5.061h1.629Z" transform="translate(-56.832 -71.1)"/><path class="c" d="M322.783,66.623h0l5.911-5.911q-.408-.408-.85-.779l-5.061,5.061Z" transform="translate(-306.081 -56.833)"/></g></svg>