<svg xmlns="http://www.w3.org/2000/svg" width="16.129" height="16.16" viewBox="0 0 16.129 16.16">
  <path id="Icon_feather-phone" data-name="Icon feather-phone" d="M18.3,14.349v2.282a1.521,1.521,0,0,1-1.658,1.521,15.053,15.053,0,0,1-6.564-2.335,14.833,14.833,0,0,1-4.564-4.564A15.053,15.053,0,0,1,3.174,4.658,1.521,1.521,0,0,1,4.688,3H6.97A1.521,1.521,0,0,1,8.491,4.308a9.767,9.767,0,0,0,.532,2.137,1.521,1.521,0,0,1-.342,1.6l-.966.966a12.17,12.17,0,0,0,4.564,4.564l.966-.966a1.521,1.521,0,0,1,1.6-.342,9.767,9.767,0,0,0,2.137.532A1.521,1.521,0,0,1,18.3,14.349Z" transform="translate(-2.667 -2.5)" fill="none" stroke="#000" stroke-linecap="round" stroke-linejoin="round" stroke-width="1"/>
</svg>
