<svg xmlns="http://www.w3.org/2000/svg" width="20.58" height="18.008" viewBox="0 0 20.58 18.008">
  <path id="Icon_awesome-sort-amount-down" data-name="Icon awesome-sort-amount-down" d="M12.22,17.685H9.647A.643.643,0,0,0,9,18.328v1.286a.643.643,0,0,0,.643.643H12.22a.643.643,0,0,0,.643-.643V18.328A.643.643,0,0,0,12.22,17.685ZM7.074,15.113H5.145V2.893A.643.643,0,0,0,4.5,2.25H3.216a.643.643,0,0,0-.643.643v12.22H.643a.643.643,0,0,0-.454,1.1L3.4,20.069a.643.643,0,0,0,.909,0L7.53,16.211A.644.644,0,0,0,7.074,15.113ZM17.365,7.4H9.647A.643.643,0,0,0,9,8.038V9.325a.643.643,0,0,0,.643.643h7.718a.643.643,0,0,0,.643-.643V8.038A.643.643,0,0,0,17.365,7.4ZM14.792,12.54H9.647A.643.643,0,0,0,9,13.183V14.47a.643.643,0,0,0,.643.643h5.145a.643.643,0,0,0,.643-.643V13.183A.643.643,0,0,0,14.792,12.54ZM19.937,2.25H9.647A.643.643,0,0,0,9,2.893V4.179a.643.643,0,0,0,.643.643h10.29a.643.643,0,0,0,.643-.643V2.893A.643.643,0,0,0,19.937,2.25Z" transform="translate(0 -2.25)"/>
</svg>
