<svg xmlns="http://www.w3.org/2000/svg" width="81.298" height="82.119" viewBox="0 0 81.298 82.119">
  <g id="Group_13442" data-name="Group 13442" transform="translate(-1287.882 -339.883)">
    <path id="Icon_feather-message-square" data-name="Icon feather-message-square" d="M4.5,49.047a7.425,7.425,0,0,0,7.425,7.425H56.472L71.321,71.321v-59.4A7.425,7.425,0,0,0,63.9,4.5H11.925A7.425,7.425,0,0,0,4.5,11.925Z" transform="translate(1283.382 335.383)" fill="#0491a4"/>
    <path id="Icon_feather-message-square-2" data-name="Icon feather-message-square" d="M4.5,49.418A7.486,7.486,0,0,0,11.986,56.9H56.9L71.876,71.876V11.986A7.486,7.486,0,0,0,64.39,4.5h-52.4A7.486,7.486,0,0,0,4.5,11.986Z" transform="translate(1295.804 348.626)" fill="#f9f9f9" stroke="#000" stroke-linecap="round" stroke-linejoin="round" stroke-width="3"/>
    <path id="Path_17418" data-name="Path 17418" d="M4.108,0A4.108,4.108,0,1,1,0,4.108,4.108,4.108,0,0,1,4.108,0Z" transform="translate(1312.629 374.489)" fill="#0491a4"/>
    <path id="Path_17417" data-name="Path 17417" d="M4.108,0A4.108,4.108,0,1,1,0,4.108,4.108,4.108,0,0,1,4.108,0Z" transform="translate(1329.884 374.489)" fill="#0491a4"/>
    <path id="Path_17416" data-name="Path 17416" d="M4.108,0A4.108,4.108,0,1,1,0,4.108,4.108,4.108,0,0,1,4.108,0Z" transform="translate(1347.139 374.489)" fill="#0491a4"/>
  </g>
</svg>
