<svg id="mail_7_" data-name="mail (7)" xmlns="http://www.w3.org/2000/svg" width="20.739" height="14.582" viewBox="0 0 20.739 14.582">
  <g id="Group_319" data-name="Group 319">
    <path id="Path_221" data-name="Path 221" d="M18.916,76H1.823A1.825,1.825,0,0,0,0,77.823V88.759a1.826,1.826,0,0,0,1.823,1.823H18.916a1.825,1.825,0,0,0,1.823-1.823V77.823A1.825,1.825,0,0,0,18.916,76Zm-.255,1.215-7,6.966a1.823,1.823,0,0,1-2.579,0l-7-6.965ZM1.215,88.512V78.071l5.251,5.223Zm.864.855,5.249-5.216.894.889a3.038,3.038,0,0,0,4.3,0l.895-.89,5.249,5.216Zm17.445-.855-5.251-5.218,5.251-5.223Z" transform="translate(0 -76)" fill="#cbcbcb"/>
  </g>
</svg>
