<svg xmlns="http://www.w3.org/2000/svg" width="26.492" height="26.492" viewBox="0 0 26.492 26.492"><defs><style>.a{fill:#6da544;}.b{fill:#ffda44;}.c{fill:#d80027;}.d{fill:#f0f0f0;}</style></defs><g transform="translate(0)"><path class="a" d="M25.668,155.062a13.294,13.294,0,0,0,0-9.215L13.246,144.7.824,145.848a13.294,13.294,0,0,0,0,9.215l12.422,1.152Z" transform="translate(0 -137.209)"/><path class="b" d="M40.767,8.639a13.251,13.251,0,0,0-24.844,0Z" transform="translate(-15.099)"/><path class="c" d="M28.345,353.682a13.251,13.251,0,0,0,12.422-8.639H15.923A13.251,13.251,0,0,0,28.345,353.682Z" transform="translate(-15.099 -327.19)"/><path class="d" d="M98.618,95.642H91.679l-2.144-6.6-2.144,6.6H80.451l5.614,4.079-2.144,6.6,5.614-4.031,5.614,4.031L93,99.721Z" transform="translate(-76.288 -84.436)"/></g></svg>