<svg xmlns="http://www.w3.org/2000/svg" width="166.284" height="73.179" viewBox="0 0 166.284 73.179">
  <g id="Group_7141" data-name="Group 7141" transform="translate(0 0)">
    <path id="Path_5479" data-name="Path 5479" d="M241.058,416.192c-.572,4.479-2.674,8.577-4.916,12.525-.074.134-.15.267-.229.4H212.6c-.471-.122-.937-.257-1.4-.4a25.48,25.48,0,0,1-7.359-3.621c-8.575-6.178-11.875-17.852-10.384-28.312.927-6.5,3.779-13.134,9.333-16.634a14.013,14.013,0,0,1,10.075-1.765c.088.016.177.036.267.054a10.4,10.4,0,0,1,6.964,4.9c2.648,4.7,1.071,10.531-.231,15.766s-2,11.5,1.765,15.363a9.61,9.61,0,0,1,11.175-12.49c.273.058.542.124.806.2a8.947,8.947,0,0,1,1.839.77C239.9,405.429,241.7,411.144,241.058,416.192Z" transform="translate(-191.588 -355.939)" fill="#f2f2f2"/>
    <path id="Path_5480" data-name="Path 5480" d="M278.942,429.791c.646.15,1.294.283,1.946.4h-3.524c-.461-.124-.921-.257-1.376-.4q-1.5-.469-2.957-1.077a26.525,26.525,0,0,1-10.188-7.345,20.735,20.735,0,0,1-3.213-5.249,23.84,23.84,0,0,1-1.645-6.718,47.774,47.774,0,0,1,.947-14.247,59.463,59.463,0,0,1,4.646-13.935q.382-.8.79-1.585a.309.309,0,0,1,.207-.177.357.357,0,0,1,.267.054.422.422,0,0,1,.167.558,58.777,58.777,0,0,0-4.93,13.431,51.7,51.7,0,0,0-1.466,13.981,22.307,22.307,0,0,0,3.927,12.238,24.69,24.69,0,0,0,9.243,7.584A33.927,33.927,0,0,0,278.942,429.791Z" transform="translate(-243.292 -357.013)" fill="#fff"/>
    <path id="Path_5481" data-name="Path 5481" d="M376.3,524.229h-1.039c-.116-.132-.229-.267-.339-.4a22.147,22.147,0,0,1-4.662-9.961,21.61,21.61,0,0,1,1.863-13.449,22.115,22.115,0,0,1,2.014-3.334c.273.058.542.124.806.2a20.9,20.9,0,0,0,1,26.539C376.056,523.962,376.176,524.1,376.3,524.229Z" transform="translate(-332.914 -451.05)" fill="#fff"/>
    <path id="Path_5482" data-name="Path 5482" d="M868.3,575.346a9.19,9.19,0,0,0,1.3,3.305c.02.035.04.07.06.106h6.151c.124-.032.247-.068.37-.106a6.726,6.726,0,0,0,1.942-.956c2.263-1.63,3.134-4.711,2.741-7.472a6.087,6.087,0,0,0-2.463-4.39,3.7,3.7,0,0,0-2.659-.466l-.07.014a2.744,2.744,0,0,0-1.838,1.292c-.7,1.241-.283,2.779.061,4.161s.528,3.035-.466,4.055a2.536,2.536,0,0,0-2.949-3.3c-.072.015-.143.033-.213.054a2.364,2.364,0,0,0-.485.2A3.482,3.482,0,0,0,868.3,575.346Z" transform="translate(-731.312 -505.578)" fill="#f2f2f2"/>
    <path id="Path_5483" data-name="Path 5483" d="M884.567,578.939c-.17.04-.341.075-.513.106h.93c.122-.033.243-.068.363-.106q.4-.124.78-.284a7,7,0,0,0,2.689-1.939,5.472,5.472,0,0,0,.848-1.385,6.291,6.291,0,0,0,.434-1.773,12.609,12.609,0,0,0-.25-3.76,15.692,15.692,0,0,0-1.226-3.678q-.1-.21-.209-.418a.082.082,0,0,0-.055-.047.094.094,0,0,0-.07.014.112.112,0,0,0-.044.147,15.511,15.511,0,0,1,1.3,3.545,13.646,13.646,0,0,1,.387,3.69,5.888,5.888,0,0,1-1.037,3.23,6.516,6.516,0,0,1-2.439,2A8.955,8.955,0,0,1,884.567,578.939Z" transform="translate(-743.934 -505.866)" fill="#fff"/>
    <path id="Path_5484" data-name="Path 5484" d="M876.437,603.863h.274c.031-.035.06-.07.089-.106a5.845,5.845,0,0,0,1.23-2.629,5.7,5.7,0,0,0-.492-3.549,5.831,5.831,0,0,0-.531-.88c-.072.015-.143.033-.213.054a5.517,5.517,0,0,1-.263,7Q876.486,603.81,876.437,603.863Z" transform="translate(-737.846 -530.684)" fill="#fff"/>
    <path id="Path_5485" data-name="Path 5485" d="M514.463,449.176H495.211l-.2-5.919A1.777,1.777,0,0,1,497,441.432l11.2,1.372h0a6.276,6.276,0,0,1,6.26,6.272Z" transform="translate(-432.924 -406.55)" fill="#f7a928"/>
    <path id="Path_5486" data-name="Path 5486" d="M490.3,375.414H476.87a1.359,1.359,0,0,0-1.36,1.36V390.2a1.359,1.359,0,0,0,1.36,1.36H490.3a1.359,1.359,0,0,0,1.36-1.36V376.774a1.359,1.359,0,0,0-1.36-1.36Z" transform="translate(-417.339 -353.785)" fill="#ccc"/>
    <path id="Path_5487" data-name="Path 5487" d="M500.087,404.088l-6.34,1.235a1.446,1.446,0,0,1-1.694-1.142l-.487-2.5a1.446,1.446,0,0,1,1.142-1.694l6.34-1.235a1.446,1.446,0,0,1,1.694,1.142l.487,2.5A1.446,1.446,0,0,1,500.087,404.088Z" transform="translate(-430.153 -372.419)" fill="#3f3d56"/>
    <path id="Path_5488" data-name="Path 5488" d="M506.935,408.047l-4.838.942a.34.34,0,0,1-.13-.667l4.838-.942a.34.34,0,1,1,.13.667Z" transform="translate(-438.268 -379.334)" fill="#fff"/>
    <path id="Path_5489" data-name="Path 5489" d="M511.555,415l-2.5.487a.34.34,0,0,1-.13-.667l2.5-.487a.34.34,0,0,1,.13.667Z" transform="translate(-443.829 -384.895)" fill="#fff"/>
    <path id="Path_5490" data-name="Path 5490" d="M491.657,376.774v1.785H475.51v-1.785a1.359,1.359,0,0,1,1.36-1.36H490.3A1.359,1.359,0,0,1,491.657,376.774Z" transform="translate(-417.339 -353.785)" fill="#b3b3b3"/>
    <path id="Path_5491" data-name="Path 5491" d="M627.748,362.374A2.155,2.155,0,0,0,624.7,361.1l-18.473-6.628-.814,4.615,18.414,5.064a2.166,2.166,0,0,0,3.92-1.774Z" transform="translate(-521.186 -337.042)" fill="#ffb8b8"/>
    <path id="Path_5492" data-name="Path 5492" d="M627.748,362.374A2.155,2.155,0,0,0,624.7,361.1l-18.473-6.628-.814,4.615,18.414,5.064a2.166,2.166,0,0,0,3.92-1.774Z" transform="translate(-521.186 -337.042)" opacity="0.2"/>
    <path id="Path_5493" data-name="Path 5493" d="M589.639,348.621l-1.744,4.557a.966.966,0,0,1-1.376.5l-4.24-2.386a2.683,2.683,0,1,1,1.933-5.006l4.734,1.05a.966.966,0,0,1,.693,1.289Z" transform="translate(-501.318 -330.352)" fill="#f7a928"/>
    <path id="Path_5494" data-name="Path 5494" d="M697.629,414.914l-6.619,3.009.869,3.272a50.894,50.894,0,0,1,1.312,19.386h0l4.84,1.011,4.012-10.23-1.4-11.634Z" transform="translate(-589.613 -385.362)" fill="#f7a928"/>
    <path id="Path_5495" data-name="Path 5495" d="M756.616,490.414c-4.349,0-7.893,3.162-8.065,7.121h16.131C764.51,493.576,760.965,490.414,756.616,490.414Z" transform="translate(-635.612 -445.718)" fill="#3f3d56"/>
    <path id="Path_5496" data-name="Path 5496" d="M507.987,428.984c-.226-17.872-10.4-16.228-10.4-16.228s.19,5.563.282,5.736c6.486,12.272-4.218,26.658-17.844,24.012q-.385-.075-.74-.152a6.936,6.936,0,0,1-5.449-7.775c1.342-10.779-5.334-10.588-5.334-10.588h-9.762l-5.069-4.562a1.474,1.474,0,0,0-2.369.586l-.652,1.77s-9.628,1-8.826,10.43H444.8a6.011,6.011,0,0,0,.032.8l22.215-.181a2.431,2.431,0,0,1,2.457,2.347,2.357,2.357,0,0,1-2.436,2.366l-3.582-.119c-1.1,4.914,1.6,8.224,4.588,10.305a16.678,16.678,0,0,0,9.551,2.934h9.73c12.637,0,14.843-10.631,14.843-10.631C508.816,437.227,507.987,428.984,507.987,428.984Z" transform="translate(-390.368 -383.605)" fill="#3f3d56"/>
    <circle id="Ellipse_532" data-name="Ellipse 532" cx="11.283" cy="11.283" r="11.283" transform="translate(109.12 50.312)" fill="#3f3d56"/>
    <circle id="Ellipse_533" data-name="Ellipse 533" cx="2.765" cy="2.765" r="2.765" transform="translate(117.637 58.83)" fill="#fff"/>
    <circle id="Ellipse_534" data-name="Ellipse 534" cx="12.988" cy="12.988" r="12.988" transform="translate(50.449 46.902)" fill="#3f3d56"/>
    <circle id="Ellipse_535" data-name="Ellipse 535" cx="3.183" cy="3.183" r="3.183" transform="translate(60.254 56.707)" fill="#fff"/>
    <path id="Path_5497" data-name="Path 5497" d="M680.937,383.363l-2.382-6.469a2.736,2.736,0,0,1,1.622-3.512l6.828-2.514a4.814,4.814,0,1,1,3.327,9.034Z" transform="translate(-579.521 -349.913)" fill="#3f3d56"/>
    <path id="Path_5498" data-name="Path 5498" d="M728.256,375.79a4.724,4.724,0,0,1-1.765,3.679,6.015,6.015,0,0,1-3.951-8.284,4.715,4.715,0,0,1,5.717,4.605Z" transform="translate(-614.394 -350.318)" fill="#f7a928"/>
    <ellipse id="Ellipse_536" data-name="Ellipse 536" cx="2.808" cy="3.41" rx="2.808" ry="3.41" transform="translate(50.349 43.091)" fill="#f7a928"/>
    <path id="Path_5499" data-name="Path 5499" d="M450.069,266.586h2.459l1.17-6.378h-3.63Z" transform="translate(-359.792 -208.014)" fill="#ffb8b8"/>
    <path id="Path_5500" data-name="Path 5500" d="M632.444,555.587h4.843a3.086,3.086,0,0,1,3.086,3.086v.1h-7.929Z" transform="translate(-542.794 -497.818)" fill="#2f2e41"/>
    <path id="Path_5501" data-name="Path 5501" d="M583.582,453.99q-.043,0-.086,0l-3.4-.248a.9.9,0,0,1-.764-1.209l4.555-10.233a.7.7,0,0,0-.039-.561.692.692,0,0,0-.443-.353c-2.142-.56-7.637-2.051-12.393-3.795-2.038-.747-3.321-1.827-3.815-3.21a4.531,4.531,0,0,1,.353-3.555l.032-.055,4.476.407,4.852.413,10.634,5.7a4.029,4.029,0,0,1,1.769,5.172l-4.9,10.994A.9.9,0,0,1,583.582,453.99Z" transform="translate(-490.45 -398.036)" fill="#2f2e41"/>
    <circle id="Ellipse_537" data-name="Ellipse 537" cx="4.927" cy="4.927" r="4.927" transform="translate(77.454 3.041)" fill="#ffb8b8"/>
    <path id="Path_5502" data-name="Path 5502" d="M443.069,269.586h2.459l1.17-6.378h-3.63Z" transform="translate(-354.196 -210.413)" fill="#ffb8b8"/>
    <path id="Path_5503" data-name="Path 5503" d="M625.444,558.587h4.843a3.086,3.086,0,0,1,3.086,3.086v.1h-7.929Z" transform="translate(-537.198 -500.217)" fill="#2f2e41"/>
    <path id="Path_5504" data-name="Path 5504" d="M576.582,456.99q-.043,0-.086,0l-3.4-.248a.9.9,0,0,1-.764-1.209l4.555-10.233a.7.7,0,0,0-.039-.561.692.692,0,0,0-.443-.353c-2.142-.56-7.637-2.051-12.393-3.795-2.038-.747-3.321-1.827-3.815-3.21a4.53,4.53,0,0,1,.353-3.555l.032-.055,4.476.407,4.852.413,10.634,5.7a4.029,4.029,0,0,1,1.769,5.172l-4.9,10.994a.9.9,0,0,1-.824.535Z" transform="translate(-484.855 -400.434)" fill="#2f2e41"/>
    <path id="Path_5505" data-name="Path 5505" d="M571.4,338.6l-5.215-1.805s-3.274,2.515-1.7,8.755a15.447,15.447,0,0,1-.682,9.692,9.983,9.983,0,0,1-.525,1.109s5.817,7.02,11.233,1.805l-2.106-10.13S575.716,341.307,571.4,338.6Z" transform="translate(-487.503 -322.912)" fill="#f7a928"/>
    <path id="Path_5506" data-name="Path 5506" d="M567.855,280.647c-.7-1.049-1.255-2.5-.483-3.5s2.265-.84,3.432-1.277a3.886,3.886,0,0,0,2.274-4.227,5.016,5.016,0,0,0-3.3-3.708,7.15,7.15,0,0,0-5.081.277,7.759,7.759,0,0,0-4.372,4.428,5.966,5.966,0,0,0,1.141,5.983c1.577,1.661,4.053,2.1,6.343,2.076" transform="translate(-484.862 -267.585)" fill="#2f2e41"/>
    <path id="Path_5507" data-name="Path 5507" d="M485.593,277.369a2.773,2.773,0,0,1-3.18-.231,24.9,24.9,0,0,0-2.744-2.025c-1.809-.873-4-.292-5.757.674s-3.322,2.3-5.181,3.06-4.233.8-5.641-.636a5.161,5.161,0,0,0,7.564,6.092c2.038-1.241,3.163-3.844,5.449-4.529a7.334,7.334,0,0,1,3.9.257,8.518,8.518,0,0,0,3.9.407,2.775,2.775,0,0,0,2.333-2.751Z" transform="translate(-407.183 -273.261)" fill="#2f2e41"/>
    <path id="Path_5508" data-name="Path 5508" d="M625.589,372.2a2.155,2.155,0,0,0-3.182-.891l-19.15-4.3-.238,4.68,18.9,2.753a2.167,2.167,0,0,0,3.671-2.244Z" transform="translate(-519.271 -347.065)" fill="#ffb8b8"/>
    <path id="Path_5509" data-name="Path 5509" d="M585.043,362.249l-1.169,4.738a.966.966,0,0,1-1.3.663l-4.5-1.845a2.683,2.683,0,0,1,1.3-5.207l4.828.458a.966.966,0,0,1,.847,1.193Z" transform="translate(-497.699 -341.877)" fill="#f7a928"/>
    <circle id="Ellipse_538" data-name="Ellipse 538" cx="1.404" cy="1.404" r="1.404" transform="translate(102.701 26.042)" fill="#f7a928"/>
    <path id="Path_5510" data-name="Path 5510" d="M351.784,630.615a.2.2,0,0,1-.2.2H185.7a.2.2,0,0,1,0-.4H351.584A.2.2,0,0,1,351.784,630.615Z" transform="translate(-185.5 -557.636)" fill="#3f3d56"/>
  </g>
</svg>
