<svg xmlns="http://www.w3.org/2000/svg" width="20.89" height="20.888" viewBox="0 0 20.89 20.888"><defs><style>.a{fill:#1e91d6;}</style></defs><g transform="translate(0 0)"><path class="a" d="M21.342,17.133l-4.228-2.82a1.234,1.234,0,0,0-1.653.268L14.23,16.165a.526.526,0,0,1-.675.142l-.234-.129a14.159,14.159,0,0,1-3.69-2.9,14.216,14.216,0,0,1-2.9-3.69L6.6,9.355a.527.527,0,0,1,.139-.677L8.325,7.447a1.235,1.235,0,0,0,.269-1.652L5.774,1.566A1.228,1.228,0,0,0,4.12,1.194L2.351,2.256A2.494,2.494,0,0,0,1.214,3.732c-.637,2.32-.158,6.323,5.74,12.222,4.692,4.691,8.184,5.953,10.585,5.953a6.168,6.168,0,0,0,1.636-.214,2.492,2.492,0,0,0,1.476-1.137l1.063-1.767A1.228,1.228,0,0,0,21.342,17.133Zm-.228,1.3L20.054,20.2a1.8,1.8,0,0,1-1.062.823c-2.142.588-5.883.1-11.545-5.561S1.3,6.058,1.886,3.916A1.8,1.8,0,0,1,2.71,2.853L4.478,1.792a.533.533,0,0,1,.718.162l1.532,2.3L8.013,6.181A.536.536,0,0,1,7.9,6.9L6.314,8.13a1.218,1.218,0,0,0-.323,1.564l.126.228a14.768,14.768,0,0,0,3.017,3.85,14.783,14.783,0,0,0,3.85,3.017l.229.126a1.218,1.218,0,0,0,1.564-.323l1.231-1.583a.536.536,0,0,1,.717-.116l4.228,2.82A.532.532,0,0,1,21.115,18.431Z" transform="translate(-1 -1.018)"/><path class="a" d="M282.976,70.02a5.925,5.925,0,0,1,5.918,5.918.348.348,0,0,0,.7,0,6.621,6.621,0,0,0-6.614-6.614.348.348,0,1,0,0,.7Z" transform="translate(-271.139 -66.538)"/><path class="a" d="M282.976,121.22a3.834,3.834,0,0,1,3.829,3.829.348.348,0,1,0,.7,0,4.531,4.531,0,0,0-4.525-4.525.348.348,0,1,0,0,.7Z" transform="translate(-271.139 -115.649)"/><path class="a" d="M282.976,172.42a1.743,1.743,0,0,1,1.741,1.741.348.348,0,0,0,.7,0,2.44,2.44,0,0,0-2.437-2.437.348.348,0,0,0,0,.7Z" transform="translate(-271.139 -164.76)"/></g></svg>