<svg xmlns="http://www.w3.org/2000/svg" width="20.887" height="20.54" viewBox="0 0 20.887 20.54"><defs><style>.a{fill:#1e91d6;}</style></defs><g transform="translate(0)"><g transform="translate(0 0)"><path class="a" d="M88.711,19.37c.86,1.213,1.719,2.3,2.288,3l.236.287H89.517a.348.348,0,1,0,0,.7h5.57a.348.348,0,0,0,0-.7H93.369l.236-.287c.569-.7,1.427-1.783,2.288-3a30.585,30.585,0,0,0,2.3-3.706,8.141,8.141,0,0,0,1.072-3.445,6.957,6.957,0,0,0-2.039-4.93.348.348,0,1,0-.493.492,6.264,6.264,0,0,1,1.835,4.438,7.5,7.5,0,0,1-1,3.128,29.892,29.892,0,0,1-2.247,3.62c-.849,1.2-1.7,2.27-2.259,2.959-.187.229-.355.432-.5.6a.353.353,0,0,1-.531,0c-.143-.171-.312-.374-.5-.6-.562-.689-1.411-1.761-2.259-2.959a29.893,29.893,0,0,1-2.247-3.62,7.494,7.494,0,0,1-1-3.128,6.268,6.268,0,0,1,8.706-5.782.348.348,0,1,0,.272-.641,6.965,6.965,0,0,0-9.674,6.424,8.154,8.154,0,0,0,1.072,3.446A30.566,30.566,0,0,0,88.711,19.37Z" transform="translate(-81.858 -5.246)"/><path class="a" d="M174.141,82.781a.348.348,0,1,0,0-.7A3.481,3.481,0,1,0,176.6,83.1a.348.348,0,1,0-.492.492,2.785,2.785,0,1,1-1.969-.816Z" transform="translate(-163.698 -78.95)"/><path class="a" d="M20.756,368.06l-2.141-3.829a1.082,1.082,0,0,0-.947-.547H15.187a.348.348,0,1,0,0,.7h2.481a.386.386,0,0,1,.34.19l2.14,3.829a.313.313,0,0,1,0,.322.383.383,0,0,1-.337.185H1.08a.383.383,0,0,1-.337-.185.313.313,0,0,1,0-.322l2.14-3.829a.386.386,0,0,1,.34-.19H5.7a.348.348,0,1,0,0-.7H3.22a1.082,1.082,0,0,0-.948.547L.131,368.06a1.01,1.01,0,0,0,.011,1.013,1.072,1.072,0,0,0,.937.528H19.808a1.072,1.072,0,0,0,.937-.528A1.009,1.009,0,0,0,20.756,368.06Z" transform="translate(0 -349.061)"/><path class="a" d="M352.654,406.351h-1.392a.351.351,0,0,0-.193.059l-1.044.7a.348.348,0,0,0,.386.579l.956-.638h1.288a.348.348,0,1,0,0-.7Z" transform="translate(-335.596 -389.988)"/><path class="a" d="M366.937,457.9a.348.348,0,0,0,.348.348h2.785a.348.348,0,1,0,0-.7h-2.785A.348.348,0,0,0,366.937,457.9Z" transform="translate(-351.968 -439.1)"/><path class="a" d="M88.122,407.742a.348.348,0,0,0,.194-.638l-1.044-.7a.35.35,0,0,0-.194-.058H85.685a.348.348,0,1,0,0,.7h1.288l.957.638A.347.347,0,0,0,88.122,407.742Z" transform="translate(-81.856 -389.987)"/><path class="a" d="M60.085,457.551a.348.348,0,0,0,0,.7H62.87a.348.348,0,0,0,0-.7Z" transform="translate(-57.3 -439.099)"/></g></g></svg>