<svg xmlns="http://www.w3.org/2000/svg" width="16.287" height="17.371" viewBox="0 0 16.287 17.371">
  <path id="Icon_awesome-shield-alt" data-name="Icon awesome-shield-alt" d="M16.411,2.841,9.9.126a1.634,1.634,0,0,0-1.252,0L2.129,2.841a1.627,1.627,0,0,0-1,1.5c0,6.735,3.885,11.391,7.516,12.9a1.634,1.634,0,0,0,1.252,0c2.908-1.211,7.519-5.395,7.519-12.9A1.629,1.629,0,0,0,16.411,2.841Zm-7.139,12.3,0-12.928L15.237,4.7c-.112,5.137-2.786,8.859-5.965,10.44Z" transform="translate(-1.125 -0.002)" fill="#707070"/>
</svg>
