<svg xmlns="http://www.w3.org/2000/svg" width="10.065" height="10.065" viewBox="0 0 10.065 10.065"><defs><style>.a{fill:#2e3192;}</style></defs><g transform="translate(2.39 1.265)"><path class="a" d="M128.955,64.439a.379.379,0,0,0-.536,0l-4.551,4.539-1.642-1.783a.379.379,0,0,0-.558.514l1.909,2.074a.379.379,0,0,0,.271.122h.008a.38.38,0,0,0,.268-.111l4.83-4.818A.379.379,0,0,0,128.955,64.439Z" transform="translate(-121.568 -64.327)"/></g><path class="a" d="M9.686,4.653a.379.379,0,0,0-.379.379A4.274,4.274,0,1,1,5.032.759a.379.379,0,1,0,0-.759,5.032,5.032,0,1,0,5.032,5.032A.379.379,0,0,0,9.686,4.653Z"/></svg>