<svg xmlns="http://www.w3.org/2000/svg" width="17" height="13.357" viewBox="0 0 17 13.357">
  <g id="black-back-closed-envelope-shape" transform="translate(0 -59.013)">
    <g id="Group_1065" data-name="Group 1065" transform="translate(0 59.013)">
      <path id="Path_717" data-name="Path 717" d="M31.9,328.718a1.453,1.453,0,0,0,.995-.375l-4.816-4.817-.333.24q-.541.4-.878.621a5.409,5.409,0,0,1-.9.455,2.732,2.732,0,0,1-1.044.232h-.019a2.731,2.731,0,0,1-1.044-.232,5.391,5.391,0,0,1-.9-.455q-.337-.223-.878-.621l-.332-.241-4.817,4.818a1.453,1.453,0,0,0,.995.375Z" transform="translate(-16.423 -315.361)" fill="#021c19"/>
      <path id="Path_718" data-name="Path 718" d="M.958,199.38A5.03,5.03,0,0,1,0,198.555v7.328l4.245-4.245Q2.971,200.749.958,199.38Z" transform="translate(0 -194.248)" fill="#021c19"/>
      <path id="Path_719" data-name="Path 719" d="M416.6,199.38q-1.938,1.312-3.295,2.259l4.243,4.244v-7.328A5.235,5.235,0,0,1,416.6,199.38Z" transform="translate(-400.552 -194.248)" fill="#021c19"/>
      <path id="Path_720" data-name="Path 720" d="M15.488,59.013H1.524A1.355,1.355,0,0,0,.4,59.506a1.914,1.914,0,0,0-.394,1.233,2.217,2.217,0,0,0,.522,1.3,4.706,4.706,0,0,0,1.11,1.1q.322.228,1.945,1.352c.584.4,1.092.757,1.528,1.062.372.259.693.484.957.67l.142.1.262.188q.308.223.512.361t.493.308a2.878,2.878,0,0,0,.546.256,1.509,1.509,0,0,0,.474.085h.019a1.51,1.51,0,0,0,.474-.085,2.871,2.871,0,0,0,.545-.256q.289-.171.493-.308t.512-.361l.261-.188.142-.1.96-.667,3.48-2.416a4.512,4.512,0,0,0,1.157-1.167,2.51,2.51,0,0,0,.465-1.432,1.53,1.53,0,0,0-1.518-1.518Z" transform="translate(-0.006 -59.013)" fill="#021c19"/>
    </g>
  </g>
</svg>
