<svg xmlns="http://www.w3.org/2000/svg" width="17.131" height="17.13" viewBox="0 0 17.131 17.13">
  <g id="Page-1" transform="translate(0.003)">
    <g id="_003---Call" data-name="003---Call" transform="translate(-0.003)">
      <path id="Shape" d="M8.091,10.078A6.913,6.913,0,0,1,6,6.153a.587.587,0,0,1,.169-.491L7.5,4.339a.591.591,0,0,0,.083-.731L5.472.337A.591.591,0,0,0,4.707.122L1.325,1.715A.587.587,0,0,0,1,2.3,16.348,16.348,0,0,0,5.978,12.19a16.343,16.343,0,0,0,9.889,4.978.587.587,0,0,0,.587-.325l1.593-3.382a.591.591,0,0,0-.214-.764l-3.271-2.106a.591.591,0,0,0-.731.083L12.507,12a.587.587,0,0,1-.491.169,6.913,6.913,0,0,1-3.925-2.087Z" transform="translate(-0.997 -0.042)" fill="#021c19"/>
      <path id="Shape-2" data-name="Shape" d="M33.612,16.2a.591.591,0,0,1-.591-.591,4.435,4.435,0,0,0-4.43-4.43.591.591,0,0,1,0-1.181A5.618,5.618,0,0,1,34.2,15.612.591.591,0,0,1,33.612,16.2Z" transform="translate(-20.025 -7.047)" fill="#021c19"/>
      <path id="Shape-3" data-name="Shape" d="M36.565,9.156a.591.591,0,0,1-.591-.591,7.392,7.392,0,0,0-7.384-7.384.591.591,0,1,1,0-1.181,8.574,8.574,0,0,1,8.565,8.565.591.591,0,0,1-.591.591Z" transform="translate(-20.025)" fill="#021c19"/>
    </g>
  </g>
</svg>
