<svg id="earth-grid-select-language-button_1_" data-name="earth-grid-select-language-button (1)" xmlns="http://www.w3.org/2000/svg" width="15.046" height="15.046" viewBox="0 0 15.046 15.046">
  <g id="language">
    <path id="Path_809" data-name="Path 809" d="M7.523,0a7.523,7.523,0,1,0,7.523,7.523A7.545,7.545,0,0,0,7.523,0Zm5.191,4.514H10.532A11.89,11.89,0,0,0,9.479,1.806,6.055,6.055,0,0,1,12.714,4.514ZM7.523,1.5A10.1,10.1,0,0,1,8.953,4.514H6.094A11.061,11.061,0,0,1,7.523,1.5ZM1.73,9.028a4.851,4.851,0,0,1-.226-1.5,4.851,4.851,0,0,1,.226-1.5H4.288a10.083,10.083,0,0,0-.075,1.5c0,.527.075.978.075,1.5Zm.6,1.5H4.514a11.89,11.89,0,0,0,1.053,2.708A6.055,6.055,0,0,1,2.332,10.532ZM4.514,4.514H2.332A6.341,6.341,0,0,1,5.567,1.806,11.89,11.89,0,0,0,4.514,4.514Zm3.009,9.028a10.1,10.1,0,0,1-1.429-3.009H8.953A11.062,11.062,0,0,1,7.523,13.542Zm1.73-4.514H5.793a10.2,10.2,0,0,1-.15-1.5,10.2,10.2,0,0,1,.15-1.5H9.329a10.2,10.2,0,0,1,.15,1.5A10.385,10.385,0,0,1,9.254,9.028Zm.226,4.213a10.674,10.674,0,0,0,1.053-2.708h2.182A6.055,6.055,0,0,1,9.479,13.241Zm1.354-4.213a10.083,10.083,0,0,0,.075-1.5c0-.527-.075-.978-.075-1.5h2.558a4.851,4.851,0,0,1,.226,1.5,4.852,4.852,0,0,1-.226,1.5Z" fill="#707070"/>
  </g>
</svg>
