<svg xmlns="http://www.w3.org/2000/svg" width="16.453" height="17.623" viewBox="0 0 16.453 17.623">
  <g id="location_2_" data-name="location (2)" transform="translate(-16.996)">
    <path id="Path_721" data-name="Path 721" d="M32.825,369.581H28.294v-1.1h4.171l-.661-2.011H28.657a20.749,20.749,0,0,0-2.6,2.8l-.834,1.144-.834-1.144a20.848,20.848,0,0,0-2.6-2.8H18.641l-.661,2.011h4.171v1.1H17.62l-.624,1.9H33.449Z" transform="translate(0 -353.859)" fill="#021c19"/>
    <path id="Path_722" data-name="Path 722" d="M86.763,14.808C89.252,11.4,92.8,10.079,92.8,6.033a6.033,6.033,0,0,0-12.066,0C80.73,10.079,84.275,11.4,86.763,14.808Zm0-10.194a1.645,1.645,0,1,1-1.645,1.645A1.648,1.648,0,0,1,86.763,4.614Z" transform="translate(-61.54)" fill="#021c19"/>
  </g>
</svg>
