<svg id="pencil_1_" data-name="pencil (1)" xmlns="http://www.w3.org/2000/svg" width="20.921" height="20.921" viewBox="0 0 20.921 20.921">
  <g id="Group_1123" data-name="Group 1123">
    <path id="Path_592" data-name="Path 592" d="M20.27,2.546l-1.9-1.9a2.224,2.224,0,0,0-3.142,0L1.127,14.756a.624.624,0,0,0-.169.322L.01,20.2a.613.613,0,0,0,.714.714l5.119-.948a.624.624,0,0,0,.322-.169L20.27,5.688A2.221,2.221,0,0,0,20.27,2.546Zm-18.892,17,.573-3.1L4.474,18.97Zm4.354-1.05-3.3-3.3L14.49,3.126l3.3,3.3ZM19.4,4.821l-.742.742-3.3-3.3.742-.742a1,1,0,0,1,1.408,0l1.9,1.9A1,1,0,0,1,19.4,4.821Z" transform="translate(0 0)"/>
  </g>
</svg>
