<svg id="Page-1" xmlns="http://www.w3.org/2000/svg" width="15.133" height="15.132" viewBox="0 0 15.133 15.132">
  <g id="_003---Call" data-name="003---Call">
    <path id="Shape" d="M7.264,8.91A6.107,6.107,0,0,1,5.42,5.443a.519.519,0,0,1,.149-.434L6.737,3.84a.522.522,0,0,0,.074-.646L4.95.3a.522.522,0,0,0-.676-.19L1.286,1.522A.519.519,0,0,0,1,2.04a14.441,14.441,0,0,0,4.4,8.736,14.437,14.437,0,0,0,8.736,4.4.519.519,0,0,0,.518-.287L16.058,11.9a.522.522,0,0,0-.189-.675l-2.89-1.86a.522.522,0,0,0-.646.073l-1.168,1.169a.519.519,0,0,1-.434.149A6.107,6.107,0,0,1,7.264,8.91Z" transform="translate(-0.997 -0.044)" fill="#707070"/>
    <path id="Shape-2" data-name="Shape" d="M32.957,15.479a.522.522,0,0,1-.522-.522,3.918,3.918,0,0,0-3.914-3.914.522.522,0,1,1,0-1.044,4.963,4.963,0,0,1,4.957,4.957A.522.522,0,0,1,32.957,15.479Z" transform="translate(-20.955 -7.391)" fill="#707070"/>
    <path id="Shape-3" data-name="Shape" d="M35.566,8.088a.522.522,0,0,1-.522-.522,6.53,6.53,0,0,0-6.523-6.523.522.522,0,1,1,0-1.044,7.575,7.575,0,0,1,7.566,7.566.522.522,0,0,1-.522.522Z" transform="translate(-20.955 0)" fill="#707070"/>
  </g>
</svg>
