<svg id="placeholder" xmlns="http://www.w3.org/2000/svg" width="15.691" height="20.921" viewBox="0 0 15.691 20.921">
  <g id="Group_1119" data-name="Group 1119">
    <g id="Group_1118" data-name="Group 1118">
      <path id="Path_586" data-name="Path 586" d="M71.845,0A7.853,7.853,0,0,0,64,7.845c0,5.438,7.082,12.583,7.383,12.885a.657.657,0,0,0,.926,0c.3-.3,7.383-7.447,7.383-12.885A7.853,7.853,0,0,0,71.845,0Zm0,19.322C70.284,17.651,65.308,12,65.308,7.845a6.538,6.538,0,0,1,13.076,0C78.383,12,73.407,17.651,71.845,19.322Z" transform="translate(-64)"/>
    </g>
  </g>
  <g id="Group_1121" data-name="Group 1121" transform="translate(3.923 3.923)">
    <g id="Group_1120" data-name="Group 1120">
      <path id="Path_587" data-name="Path 587" d="M163.923,96a3.923,3.923,0,1,0,3.923,3.923A3.928,3.928,0,0,0,163.923,96Zm0,6.538a2.615,2.615,0,1,1,2.615-2.615A2.618,2.618,0,0,1,163.923,102.538Z" transform="translate(-160 -96)"/>
    </g>
  </g>
</svg>
