<svg xmlns="http://www.w3.org/2000/svg" width="29.381" height="19.587" viewBox="0 0 29.381 19.587"><defs><style>.a{fill:#f0f0f0;}.b{fill:#d80027;}.c{fill:#0052b4;}</style></defs><rect class="a" width="29.377" height="19.585"/><path class="b" d="M16.524,85.33H12.852v7.956H0v3.672H12.852v7.956h3.672V96.958H29.377V93.286H16.524Z" transform="translate(0 -85.33)"/><g transform="translate(17.881 13.198)"><path class="c" d="M393.785,315.358l6.783,3.768v-3.768Z" transform="translate(-389.073 -315.358)"/><path class="c" d="M311.652,315.358l11.5,6.386v-1.806l-8.245-4.58Z" transform="translate(-311.652 -315.358)"/><path class="c" d="M320.085,349.684,311.652,345v4.686Z" transform="translate(-311.652 -343.297)"/></g><path class="a" d="M311.652,315.358l11.5,6.386v-1.806l-8.245-4.58Z" transform="translate(-293.771 -302.16)"/><path class="b" d="M311.652,315.358l11.5,6.386v-1.806l-8.245-4.58Z" transform="translate(-293.771 -302.16)"/><g transform="translate(0 13.198)"><path class="c" d="M5.183,315.356,0,318.236v-2.88Z" transform="translate(0 -315.356)"/><path class="c" d="M35.524,329.51v5.574H25.491Z" transform="translate(-24.028 -328.698)"/></g><path class="b" d="M8.245,315.358,0,319.938v1.806H0l11.5-6.386Z" transform="translate(0 -302.16)"/><path class="c" d="M6.783,134.726,0,130.958v3.768Z" transform="translate(0 -128.34)"/><path class="c" d="M11.5,91.716,0,85.33v1.806l8.245,4.58Z" transform="translate(0 -85.33)"/><path class="c" d="M53.366,85.33,61.8,90.016V85.33Z" transform="translate(-50.304 -85.33)"/><path class="a" d="M11.5,91.716,0,85.33v1.806l8.245,4.58Z" transform="translate(0 -85.33)"/><path class="b" d="M11.5,91.716,0,85.33v1.806l8.245,4.58Z" transform="translate(0 -85.33)"/><g transform="translate(17.881)"><path class="c" d="M421.659,149.326l5.183-2.88v2.88Z" transform="translate(-415.347 -142.939)"/><path class="c" d="M311.652,90.9V85.331h10.033Z" transform="translate(-311.652 -85.331)"/></g><path class="b" d="M314.9,91.716l8.245-4.58V85.33h0l-11.5,6.386Z" transform="translate(-293.771 -85.33)"/></svg>