<svg xmlns="http://www.w3.org/2000/svg" width="38.186" height="32.751" viewBox="0 0 38.186 32.751">
  <g id="wishlist" transform="translate(-170.064 -303.323)">
    <path id="Path_9341" data-name="Path 9341" d="M-7555.569-5988.621l-.054-.03-.051-.027-.072-.04-.018-.011-.005,0-.007,0-.036-.02-.021-.012-.015-.008-.007,0a.152.152,0,0,1-.023-.014l-.019-.01-.017-.009-.041-.021-.012-.007-.013-.008-.042-.023-.015-.008-.022-.012-.011-.006-.009-.006-.021-.011-.058-.031a.1.1,0,0,0-.027-.015l-.028-.016-.046-.026-.012-.007-.014-.008-.072-.04a.23.23,0,0,0-.028-.015l-.023-.014-.008,0-.008,0-.035-.021c-.075-.041-.152-.084-.236-.133l-.032-.018-.032-.018a.191.191,0,0,0-.029-.016l-.014-.008-.019-.011-.012-.007-.031-.019a.1.1,0,0,1-.023-.013c-.028-.015-.059-.032-.087-.049l-.008,0a41.172,41.172,0,0,1-9.119-6.965,26.535,26.535,0,0,1-4.687-6.523,16.508,16.508,0,0,1-1.958-7.471c0-.013,0-.027,0-.041s0-.027,0-.041a10.361,10.361,0,0,1,2.555-6.843,8.932,8.932,0,0,1,6.743-2.992,7.675,7.675,0,0,1,5.277,1.967,9.149,9.149,0,0,1,2.608,4.206,9.164,9.164,0,0,1,2.609-4.206,7.677,7.677,0,0,1,5.278-1.967,8.867,8.867,0,0,1,6.091,2.334,10.032,10.032,0,0,1,3.03,5.582l0,.008,0,.007a.061.061,0,0,0,0,.015v.006c0,.011,0,.024.006.038a.049.049,0,0,1,0,.01.052.052,0,0,0,0,.009l0,.016c0,.01,0,.017,0,.023a.049.049,0,0,0,0,.008v.005a.185.185,0,0,0,0,.026c0,.007,0,.015,0,.022a.023.023,0,0,1,0,.011c0,.007,0,.014,0,.021s0,.017,0,.025a.025.025,0,0,0,0,.006.06.06,0,0,1,0,.009c0,.006,0,.013,0,.02s0,.019,0,.026a.04.04,0,0,1,0,.01c0,.017,0,.032.007.049v.007c0,.008,0,.017,0,.025s0,.018,0,.026l0,0c0,.02,0,.037.006.054a.015.015,0,0,1,0,.008l0,.026,0,.025a.007.007,0,0,1,0,.006l.006.053a.012.012,0,0,1,0,.008c0,.017,0,.034.005.051,0,0,0,.006,0,.007s0,.029,0,.043v.032c0,.012,0,.024,0,.037h0l0,0v.027c0,.01,0,.019,0,.027l0,.006c0,.019,0,.037.005.053s0,.04,0,.059a.012.012,0,0,1,0,.008c0,.009,0,.017,0,.026s0,.018,0,.025v.008l0,.027,0,.026v.005a.488.488,0,0,1,0,.053v.008a.452.452,0,0,1,0,.051.017.017,0,0,0,0,0c0,.013,0,.021,0,.03s0,.017,0,.025a.006.006,0,0,0,0,.005c0,.009,0,.018,0,.026s0,.019,0,.027h0l0,0a.267.267,0,0,0,0,.028c0,.01,0,.02,0,.029v.007c0,.008,0,.017,0,.025s0,.018,0,.026v.01c0,.017,0,.034,0,.051v.011c0,.007,0,.016,0,.023s0,.017,0,.024v.013c0,.007,0,.015,0,.022s0,.018,0,.025v.011c0,.008,0,.016,0,.024s0,.016,0,.023v.08a.289.289,0,0,1,0,.042v.12c0,.013,0,.027,0,.04s0,.028,0,.042c0,.063,0,.122,0,.177a10.917,10.917,0,0,1-.066,1.126,10.5,10.5,0,0,0-5.117-1.329,10.512,10.512,0,0,0-10.5,10.5,10.481,10.481,0,0,0,3.742,8.035,50.229,50.229,0,0,1-5.237,3.237v0h-.008Z" transform="translate(7743.317 6324.11)" fill="#021c19" stroke="rgba(0,0,0,0)" stroke-width="1"/>
    <path id="Path_9342" data-name="Path 9342" d="M8.5,0A8.5,8.5,0,1,1,0,8.5,8.5,8.5,0,0,1,8.5,0Z" transform="translate(191.25 315.713)" fill="#021c19"/>
    <path id="Path_9340" data-name="Path 9340" d="M-7569.5-6030.5l-3.5,3.5,3.5-3.5-3.5-3.5,3.5,3.5,3.5-3.5-3.5,3.5,3.5,3.5Z" transform="translate(7769.25 6354.713)" fill="none" stroke="#fff" stroke-width="2"/>
  </g>
</svg>
